<svg width="118" height="118" viewBox="0 0 118 118" fill="none" xmlns="http://www.w3.org/2000/svg">
<g clip-path="url(#clip0_41_852)" filter="url(#filter0_d_41_852)">
<path d="M59 0C28.6119 0 4 24.9862 4 55.8364C4 82.0771 21.7357 103.856 45.6643 109.995C45.3881 109.297 45.2523 108.318 45.2523 107.344V97.8491H38.3762C34.6643 97.8491 31.2238 96.1763 29.7119 93.1018C27.9238 89.7516 27.6477 84.5861 23.1119 81.3738C21.7357 80.257 22.8357 79.1403 24.3477 79.2781C27.2357 80.1145 29.5715 82.0723 31.7715 84.9996C33.9715 87.9316 34.9357 88.6301 39.0596 88.6301C40.9834 88.6301 44.0072 88.4923 46.7596 88.0694C48.2715 84.1585 50.8834 80.6705 54.0477 78.9978C35.6238 76.7643 26.8238 67.5501 26.8238 54.9857C26.8238 49.5399 29.1596 44.3745 33.0119 39.9076C31.7762 35.5785 30.1238 26.6446 33.5643 23.1566C41.8166 23.1566 46.7643 28.6025 48 29.9948C52.1238 28.5977 56.6643 27.7614 61.3357 27.7614C66.1477 27.7614 70.5477 28.5977 74.6715 29.9948C75.9072 28.5977 80.8596 23.1566 89.1072 23.1566C92.4072 26.5068 90.8953 35.5785 89.5191 39.9076C93.3715 44.2367 95.5715 49.5399 95.5715 54.9857C95.5715 67.5501 86.9072 76.7643 68.6238 78.7174C73.7119 81.369 77.2881 88.9057 77.2881 94.4894V107.206C77.2881 107.624 77.1523 108.042 77.1523 108.46C98.6 100.924 114 80.2665 114 55.8364C114 24.9862 89.3881 0 59 0Z" fill="white"/>
</g>
<defs>
<filter id="filter0_d_41_852" x="0" y="0" width="118" height="118" filterUnits="userSpaceOnUse" color-interpolation-filters="sRGB">
<feFlood flood-opacity="0" result="BackgroundImageFix"/>
<feColorMatrix in="SourceAlpha" type="matrix" values="0 0 0 0 0 0 0 0 0 0 0 0 0 0 0 0 0 0 127 0" result="hardAlpha"/>
<feOffset dy="4"/>
<feGaussianBlur stdDeviation="2"/>
<feComposite in2="hardAlpha" operator="out"/>
<feColorMatrix type="matrix" values="0 0 0 0 0 0 0 0 0 0 0 0 0 0 0 0 0 0 0.25 0"/>
<feBlend mode="normal" in2="BackgroundImageFix" result="effect1_dropShadow_41_852"/>
<feBlend mode="normal" in="SourceGraphic" in2="effect1_dropShadow_41_852" result="shape"/>
</filter>
<clipPath id="clip0_41_852">
<rect width="110" height="110" fill="white" transform="translate(4)"/>
</clipPath>
</defs>
</svg>
