<svg width="119" height="118" viewBox="0 0 119 118" fill="none" xmlns="http://www.w3.org/2000/svg">
<g clip-path="url(#clip0_41_859)" filter="url(#filter0_d_41_859)">
<path d="M59.4999 0.000305176C28.8479 0.000305176 4 24.6244 4 55.0002C4 85.376 28.8479 110 59.4999 110C90.1518 110 115 85.376 115 55.0002C115 24.6244 90.1514 0.000305176 59.4999 0.000305176ZM44.6924 81.5901H32.5068V42.5767H44.6924V81.5901ZM38.5416 37.4676C34.5619 37.4676 31.3357 34.2444 31.3357 30.269C31.3357 26.2931 34.5623 23.0701 38.5416 23.0701C42.5208 23.0701 45.747 26.2931 45.747 30.269C45.7472 34.2446 42.521 37.4676 38.5416 37.4676ZM90.3578 81.5901H78.2313V61.1113C78.2313 55.4946 76.0784 52.3593 71.5967 52.3593C66.7192 52.3593 64.171 55.6247 64.171 61.1113V81.5901H52.4837V42.5767H64.171V47.8312C64.171 47.8312 67.6866 41.3867 76.0343 41.3867C84.3822 41.3867 90.358 46.4379 90.358 56.8874L90.3578 81.5901Z" fill="white"/>
</g>
<defs>
<filter id="filter0_d_41_859" x="0" y="0" width="119" height="118" filterUnits="userSpaceOnUse" color-interpolation-filters="sRGB">
<feFlood flood-opacity="0" result="BackgroundImageFix"/>
<feColorMatrix in="SourceAlpha" type="matrix" values="0 0 0 0 0 0 0 0 0 0 0 0 0 0 0 0 0 0 127 0" result="hardAlpha"/>
<feOffset dy="4"/>
<feGaussianBlur stdDeviation="2"/>
<feComposite in2="hardAlpha" operator="out"/>
<feColorMatrix type="matrix" values="0 0 0 0 0 0 0 0 0 0 0 0 0 0 0 0 0 0 0.25 0"/>
<feBlend mode="normal" in2="BackgroundImageFix" result="effect1_dropShadow_41_859"/>
<feBlend mode="normal" in="SourceGraphic" in2="effect1_dropShadow_41_859" result="shape"/>
</filter>
<clipPath id="clip0_41_859">
<rect width="111" height="110" fill="white" transform="translate(4)"/>
</clipPath>
</defs>
</svg>
