<svg width="206" height="137" viewBox="0 0 206 137" fill="none" xmlns="http://www.w3.org/2000/svg">
<path d="M93.1873 83.6148C94.7786 78.4506 95.0226 72.9808 93.9008 67.688C93.9859 67.5074 94.0645 67.3234 94.1329 67.1315C95.3443 63.7593 93.5517 60.0425 90.137 58.8464C89.6238 58.6669 89.103 58.5556 88.5839 58.5045C85.9143 56.095 82.907 54.1532 79.629 52.7412C76.5527 51.4136 73.3207 50.5782 70.0165 50.2449C69.2857 49.476 68.4392 48.8173 67.5038 48.2947C67.4486 45.5677 65.6445 43.2616 63.1542 42.4228L63.9445 34.2272H65.4614C67.1917 34.2272 68.8167 33.5606 70.0341 32.3548C71.2524 31.1561 71.9262 29.5624 71.934 27.8649C71.9501 24.3325 68.8693 21.4435 65.2924 21.4435H65.1774L65.3581 19.5679C65.8401 14.5664 64.1541 9.56624 60.7319 5.84938C57.3094 2.13196 52.4288 0 47.3418 0C42.2548 0 37.3741 2.13196 33.9517 5.84881C30.5294 9.56601 28.8431 14.5662 29.3255 19.5672L29.5062 21.443H29.2236C27.4955 21.443 25.8698 22.1085 24.6482 23.3154C23.4335 24.5109 22.7606 26.1019 22.7513 27.7991C22.7318 31.3348 25.811 34.2267 29.3912 34.2267H30.7391L31.5294 42.4222C29.0393 43.2615 27.2353 45.5668 27.1801 48.2938C26.2488 48.8139 25.406 49.4694 24.6772 50.2334C21.3377 50.5605 18.0711 51.3994 14.9652 52.7403C11.6867 54.1529 8.67904 56.0943 6.0092 58.5039C5.49009 58.5494 4.96925 58.6663 4.45579 58.8458C1.04106 60.0419 -0.751583 63.7588 0.459839 67.1311C0.528839 67.3219 0.607729 67.507 0.692254 67.6876C-0.429571 72.9798 -0.185195 78.4496 1.40548 83.6144C0.99896 83.9642 0.667185 84.3969 0.436265 84.8969C0.0103048 85.8203 0.00857813 86.8808 0.352313 87.8371L1.43377 90.8484C0.849575 92.4014 0.83313 94.0901 1.39927 95.6687C2.03936 97.45 3.34423 98.879 5.07386 99.6929L6.35844 97.0299C5.34897 96.5551 4.58732 95.7214 4.21427 94.6826C3.90607 93.8251 3.89767 92.9111 4.17402 92.0568L14.2327 88.5332C14.992 89.025 15.5684 89.7393 15.8766 90.5974C16.2497 91.6355 16.1903 92.7571 15.7094 93.754L18.4056 95.0227C19.2296 93.3146 19.3312 91.3926 18.6913 89.6113C18.1245 88.0332 17.0337 86.7336 15.5902 85.8915L14.468 82.7676C13.8915 81.1627 12.3224 80.1825 10.6826 80.2572C10.4201 79.327 10.2131 78.3791 10.073 77.4222L10.062 77.3427C9.7379 75.0368 9.78241 72.7154 10.1859 70.4309C12.0201 69.2752 13.1428 67.2921 13.2175 65.1799C15.7207 63.0688 18.6521 61.5203 21.8011 60.6393V89.6962C21.8011 92.4581 23.7774 94.7704 26.406 95.3321C26.0515 106.208 27.5392 116.958 30.8407 127.34C27.7127 127.875 25.3254 130.572 25.3254 133.812V136.285H41.7907L41.1476 132.966C40.5894 130.084 39.9475 127.218 39.1495 124.392C36.5355 115.135 36.2234 104.851 38.315 95.4652H56.3698C58.462 104.855 58.1487 115.144 55.5321 124.403C54.7352 127.224 54.0948 130.085 53.5375 132.96L52.8927 136.286H69.358V133.812C69.358 130.573 66.9713 127.876 63.8439 127.34C67.1454 116.959 68.6334 106.208 68.2786 95.3321C70.9063 94.7699 72.882 92.4578 72.882 89.6966V60.666C75.996 61.5507 78.8958 63.0894 81.3748 65.1801C81.4496 67.2923 82.5725 69.2756 84.4067 70.4313C84.8098 72.7168 84.8547 75.0381 84.5303 77.3429L84.5165 77.4452C84.377 78.3935 84.1709 79.3337 83.9102 80.2564C82.2711 80.1769 80.7015 81.1627 80.1248 82.7669L79.003 85.8896C75.8502 87.7332 74.5817 91.693 76.1871 95.0217L78.8832 93.7534C77.9759 91.8719 78.6455 89.6476 80.3604 88.5326L90.4189 92.0559C90.6949 92.91 90.6865 93.8233 90.3786 94.6817C90.0056 95.7208 89.2439 96.5541 88.2345 97.029L89.519 99.692C91.2487 98.8777 92.5536 97.4491 93.1936 95.6678C93.7605 94.0888 93.7441 92.4001 93.1591 90.8475L94.2398 87.8383C94.5833 86.882 94.582 85.8201 94.1558 84.8962C93.9262 84.3965 93.5938 83.9648 93.1873 83.6148ZM87.5029 77.7937V77.6472C87.7855 75.5786 87.8058 73.4988 87.5708 71.437C87.6923 71.4439 87.8139 71.4484 87.9349 71.4484C89.1531 71.4484 90.3365 71.1088 91.3583 70.4944C91.8836 74.4705 91.5736 78.5089 90.4425 82.369L86.7766 81.085C87.0732 80.0401 87.3077 78.9754 87.4674 77.9013L87.5029 77.7937ZM91.3182 66.1456C90.998 67.0371 90.3457 67.7512 89.4816 68.158C88.617 68.5646 87.6448 68.6145 86.7422 68.2988C84.8797 67.6458 83.9015 65.6191 84.5622 63.7796C84.8823 62.888 85.5346 62.1741 86.3987 61.7673C87.2634 61.3607 88.2356 61.3107 89.1382 61.6265C91.001 62.2784 91.9788 64.3062 91.3182 66.1456ZM65.4614 24.3932C67.3837 24.3932 68.9472 25.9374 68.9472 27.8355C68.9472 28.7542 68.5843 29.6174 67.9219 30.2689C67.2657 30.9197 66.3918 31.2775 65.4614 31.2775H64.2291L64.893 24.393L65.4614 24.3932ZM58.5223 7.83404C61.3797 10.9377 62.7877 15.1126 62.3851 19.2884L60.1871 42.0802H58.1585L58.8723 21.8751C58.9528 19.5777 58.1068 17.4014 56.4892 15.7482C54.8722 14.0952 52.6999 13.1846 50.3727 13.1846H48.8354V3.02577C52.5333 3.39033 56.0015 5.09618 58.5223 7.83404ZM39.297 42.0802L38.8096 28.3312H43.9364V25.3815H38.7051L38.5772 21.7732C38.5255 20.2831 39.0743 18.8714 40.1241 17.7982C41.1735 16.725 42.5824 16.1343 44.0916 16.1343H50.3727C51.8828 16.1343 53.2917 16.7249 54.3409 17.7974C55.3904 18.8707 55.9394 20.2825 55.8871 21.7728L55.7596 25.3815H50.7487V28.3312H55.6551L55.1694 42.0802H39.297ZM36.1612 7.83404C38.682 5.09652 42.1502 3.39079 45.8484 3.02588V13.1847H44.0913C41.7647 13.1847 39.5927 14.0956 37.9754 15.7488C36.3578 17.4028 35.5113 19.5784 35.592 21.8759L36.3084 42.0803H34.4967L32.2987 19.2884C31.8958 15.1126 33.3038 10.9376 36.1612 7.83404ZM29.2236 31.2777C27.3014 31.2777 25.7378 29.7336 25.7378 27.8355C25.7378 26.9144 26.0995 26.0518 26.7583 25.4035C27.4179 24.7516 28.2935 24.3928 29.2236 24.3928H29.7908L30.4547 31.2772L29.2236 31.2777ZM30.502 46.9468C31.0584 45.8134 32.2358 45.0298 33.5944 45.0298H61.0888C62.4481 45.0298 63.6249 45.8135 64.1816 46.9468H62.3203H32.3633H30.502ZM5.45431 61.6265C5.84911 61.4879 6.25241 61.422 6.64931 61.422C8.12446 61.422 9.51 62.3295 10.0306 63.7785C10.6913 65.618 9.71307 67.6452 7.85058 68.2978C6.94829 68.6135 5.9758 68.5635 5.11114 68.1569C4.2468 67.7504 3.59477 67.036 3.2746 66.1446C2.61393 64.3052 3.59177 62.2789 5.45431 61.6265ZM7.09404 77.6757L7.1009 77.8642L7.13196 77.9437C7.29146 79.0045 7.52376 80.0557 7.81655 81.0868L4.15062 82.3711C3.0196 78.5107 2.70953 74.4723 3.23488 70.4967C4.25631 71.11 5.4397 71.4507 6.65798 71.4507C6.77896 71.4507 6.90052 71.4422 7.02207 71.4394C6.78609 73.5097 6.80861 75.5975 7.09404 77.6757ZM11.6539 83.7543L12.4683 86.0223L3.94207 89.0091L3.12695 86.7409C3.0522 86.5319 3.0637 86.307 3.1603 86.1071C3.2569 85.9073 3.42641 85.7562 3.63824 85.6824L10.5815 83.2498C10.6747 83.2157 10.7685 83.2044 10.8616 83.2044C11.2072 83.2044 11.5314 83.4147 11.6539 83.7543ZM12.4872 61.981C11.8611 60.7841 10.8911 59.8434 9.74176 59.2391C11.7178 57.7061 13.8667 56.4327 16.1603 55.4447C18.2262 54.5531 20.3695 53.9082 22.5578 53.5079C22.0716 54.7054 21.801 56.0107 21.801 57.3775V57.5888C18.4308 58.4144 15.2609 59.9121 12.4872 61.981ZM35.0866 120.141L32.0957 120.828C31.7746 119.544 31.481 118.256 31.216 116.963L34.4874 116.399C34.6496 117.655 34.85 118.903 35.0866 120.141ZM30.6071 113.716C30.3879 112.41 30.1998 111.099 30.0373 109.786L33.9723 109.48C33.9976 110.741 34.062 112.002 34.1613 113.258L30.6071 113.716ZM33.9863 106.339L29.689 106.485C29.5731 105.156 29.4838 103.823 29.4255 102.488L34.2025 102.602C34.0932 103.842 34.0224 105.088 33.9863 106.339ZM28.344 133.337C28.5812 131.565 30.1206 130.192 31.9789 130.192H37.7164L38.2561 133.337H28.344ZM33.9475 127.243C33.5974 126.174 33.2614 125.103 32.9511 124.027L35.7586 123.224C36.0922 124.583 36.4709 125.925 36.8966 127.243L33.9475 127.243ZM34.5535 99.5275L29.3438 99.1209C29.3351 97.9045 29.3506 96.686 29.3898 95.466H35.2623C34.9797 96.8049 34.7438 98.1604 34.5535 99.5275ZM65.2951 95.4661C65.3342 96.6859 65.3503 97.904 65.3411 99.1205L60.131 99.5271C59.9408 98.1602 59.7045 96.8052 59.4223 95.4663L65.2951 95.4661ZM60.1976 116.398L63.4687 116.963C63.2035 118.256 62.9099 119.545 62.5888 120.829L59.5982 120.142C59.8351 118.904 60.0351 117.655 60.1976 116.398ZM60.5241 113.258C60.623 112.001 60.6877 110.74 60.7132 109.478L64.6482 109.785C64.4857 111.099 64.2972 112.409 64.078 113.715L60.5241 113.258ZM60.6986 106.337C60.6629 105.087 60.5916 103.839 60.4817 102.598L65.259 102.484C65.2015 103.819 65.1118 105.151 64.9958 106.479L60.6986 106.337ZM58.9259 123.225L61.7335 124.028C61.4232 125.103 61.0874 126.175 60.7373 127.243H57.7882C58.2139 125.925 58.5923 124.584 58.9259 123.225ZM66.3396 133.337H56.4275L56.9672 130.192H62.7047C64.5631 130.192 66.1025 131.564 66.3396 133.337ZM69.8956 89.6972C69.8956 91.2517 68.6152 92.5162 67.0412 92.5162H27.6426C26.0686 92.5162 24.7882 91.2517 24.7882 89.6972V57.3775C24.7882 53.2525 28.1865 49.8967 32.3631 49.8967H62.3204C66.497 49.8967 69.8953 53.2525 69.8953 57.3775L69.8956 89.6972ZM72.133 53.5264C74.2873 53.9273 76.398 54.5656 78.4341 55.4449C80.7273 56.433 82.8757 57.7064 84.8514 59.2391C83.7021 59.8433 82.7317 60.7841 82.1057 61.981C79.3567 59.9311 76.2188 58.4426 72.8824 57.6126V57.3775C72.8824 56.0174 72.6144 54.7187 72.133 53.5264ZM82.9393 83.7546C83.0943 83.3231 83.5764 83.097 84.0112 83.2504L90.9554 85.6829C91.1665 85.7624 91.3359 85.9078 91.4326 86.1077C91.5292 86.3076 91.5407 86.5325 91.466 86.7414L90.6515 89.0095L82.125 86.0226L82.9393 83.7546ZM41.36 73.7533C41.7513 73.7533 42.1366 73.5943 42.414 73.3195C42.6921 73.0446 42.8501 72.6675 42.8501 72.278C42.8501 71.8884 42.6921 71.508 42.414 71.2343C42.1363 70.9606 41.7509 70.8038 41.36 70.8038C40.9658 70.8038 40.5805 70.9606 40.3027 71.2343C40.0247 71.5091 39.8667 71.8896 39.8667 72.278C39.8667 72.6675 40.0247 73.0446 40.3027 73.3195C40.5802 73.5943 40.9655 73.7533 41.36 73.7533ZM56.4344 57.1728H38.2494C37.0051 57.1728 35.9929 58.1722 35.9929 59.4013V86.209C35.9929 87.4379 37.0051 88.4375 38.2494 88.4375H56.4347C57.679 88.4375 58.6912 87.4381 58.6912 86.209V59.4013C58.6909 58.1728 57.6787 57.1728 56.4344 57.1728ZM55.7041 85.4878H38.9796V60.1224H55.7041V85.4878ZM40.7711 31.8668V39.5358H53.9127V31.8668H40.7711ZM50.926 36.5862H43.7578V34.8165H50.926V36.5862Z" fill="black"/>
<path d="M110.664 69.1217V72.9889H105.085V78.2858H100.703V62.5826H111.835V66.4498H105.085V69.1217H110.664ZM123.273 70.7623C123.039 70.6373 122.789 70.5436 122.523 70.4811C122.273 70.403 121.976 70.3639 121.632 70.3639C121.085 70.3639 120.601 70.528 120.179 70.8561C119.757 71.1842 119.414 71.6139 119.148 72.1451V78.2858H115.117V66.3326H119.148V68.4655C119.523 67.8248 119.937 67.2701 120.39 66.8014C120.859 66.3326 121.468 66.0983 122.218 66.0983C122.625 66.0983 122.976 66.1686 123.273 66.3092V70.7623ZM130.914 65.9811C132.039 65.9811 133.039 66.2311 133.914 66.7311C134.789 67.2311 135.468 67.9342 135.953 68.8405C136.453 69.7311 136.703 70.7936 136.703 72.028V73.4108H128.57C128.742 73.9889 129.085 74.4186 129.601 74.6998C130.117 74.9811 130.71 75.1217 131.382 75.1217C132.289 75.1217 133.07 74.9967 133.726 74.7467C134.398 74.4811 134.898 74.2545 135.226 74.067V77.5123C134.82 77.7623 134.257 78.0123 133.539 78.2623C132.835 78.5123 132.039 78.6373 131.148 78.6373C130.304 78.6373 129.484 78.4967 128.687 78.2155C127.906 77.9342 127.203 77.528 126.578 76.9967C125.953 76.4655 125.46 75.8248 125.101 75.0748C124.742 74.3092 124.562 73.4498 124.562 72.4967C124.562 71.3092 124.835 70.2233 125.382 69.2389C125.945 68.2545 126.703 67.4655 127.656 66.8717C128.625 66.278 129.71 65.9811 130.914 65.9811ZM130.796 69.3092C130.281 69.3092 129.835 69.4498 129.46 69.7311C129.085 69.9967 128.812 70.4108 128.64 70.9733H132.882C132.882 70.4108 132.664 69.9967 132.226 69.7311C131.804 69.4498 131.328 69.3092 130.796 69.3092ZM150.859 61.4108V78.2858H146.828V76.2936C146.531 76.9498 146.078 77.5045 145.468 77.9576C144.859 78.4108 144.125 78.6373 143.265 78.6373C142.375 78.6373 141.539 78.4108 140.757 77.9576C139.976 77.5045 139.335 76.8092 138.835 75.8717C138.351 74.9186 138.109 73.7233 138.109 72.2858C138.109 70.942 138.351 69.8014 138.835 68.8639C139.335 67.9264 139.992 67.2155 140.804 66.7311C141.632 66.2311 142.531 65.9811 143.5 65.9811C144.125 65.9811 144.734 66.1217 145.328 66.403C145.937 66.6686 146.437 67.0123 146.828 67.4342V61.4108H150.859ZM144.343 69.9186C143.765 69.9186 143.281 70.153 142.89 70.6217C142.515 71.0905 142.328 71.6451 142.328 72.2858C142.328 72.9264 142.523 73.4655 142.914 73.903C143.304 74.3405 143.82 74.5592 144.46 74.5592C144.804 74.5592 145.156 74.4733 145.515 74.3014C145.875 74.1139 146.179 73.8405 146.429 73.4811C146.695 73.1061 146.828 72.6295 146.828 72.0514V70.903C146.484 70.6217 146.093 70.3873 145.656 70.1998C145.234 70.0123 144.796 69.9186 144.343 69.9186ZM162.296 70.7623C162.062 70.6373 161.812 70.5436 161.546 70.4811C161.296 70.403 161 70.3639 160.656 70.3639C160.109 70.3639 159.625 70.528 159.203 70.8561C158.781 71.1842 158.437 71.6139 158.171 72.1451V78.2858H154.14V66.3326H158.171V68.4655C158.546 67.8248 158.96 67.2701 159.414 66.8014C159.882 66.3326 160.492 66.0983 161.242 66.0983C161.648 66.0983 162 66.1686 162.296 66.3092V70.7623ZM167.523 59.6295C167.976 59.6295 168.39 59.7389 168.765 59.9576C169.156 60.1764 169.468 60.4733 169.703 60.8483C169.937 61.2076 170.054 61.6139 170.054 62.067C170.054 62.5045 169.937 62.9108 169.703 63.2858C169.468 63.6608 169.156 63.9576 168.765 64.1764C168.39 64.3951 167.976 64.5045 167.523 64.5045C166.851 64.5045 166.265 64.2701 165.765 63.8014C165.265 63.317 165.015 62.7389 165.015 62.067C165.015 61.3795 165.265 60.8014 165.765 60.3326C166.265 59.8639 166.851 59.6295 167.523 59.6295ZM169.796 66.3326V78.2858H165.765V69.6139H163.82V66.3326H169.796ZM178.585 65.9811C179.507 65.9811 180.21 66.1295 180.695 66.4264C181.195 66.7076 181.648 67.0045 182.054 67.317V70.8326C181.695 70.567 181.281 70.3561 180.812 70.1998C180.359 70.0436 179.796 69.9655 179.125 69.9655C178.765 69.9655 178.39 70.0592 178 70.2467C177.609 70.4342 177.281 70.7076 177.015 71.067C176.75 71.4108 176.617 71.8483 176.617 72.3795C176.617 73.1608 176.867 73.7545 177.367 74.1608C177.867 74.567 178.453 74.7701 179.125 74.7701C179.796 74.7701 180.359 74.692 180.812 74.5358C181.281 74.3639 181.695 74.153 182.054 73.903V77.4186C181.648 77.7311 181.195 78.0123 180.695 78.2623C180.21 78.5123 179.507 78.6373 178.585 78.6373C177.695 78.6373 176.867 78.4733 176.101 78.1451C175.335 77.8014 174.664 77.3405 174.085 76.7623C173.523 76.1686 173.078 75.4967 172.75 74.7467C172.437 73.9967 172.281 73.2076 172.281 72.3795C172.281 71.5514 172.437 70.7545 172.75 69.9889C173.078 69.2233 173.523 68.5436 174.085 67.9498C174.664 67.3405 175.335 66.8639 176.101 66.5201C176.867 66.1608 177.695 65.9811 178.585 65.9811ZM188.195 61.4108V71.1373L192.015 66.3326H196.89L192.062 71.4889L197.101 78.2858H192.015L189.484 74.2545L188.195 75.6139V78.2858H184.164V61.4108H188.195ZM117.203 91.3483V107.286H112.82V99.5514L109.609 103.184H108.296L105.085 99.5514V107.286H100.703V91.3483H102.25L108.953 98.1451L115.656 91.3483H117.203ZM138.507 95.3326L134.406 107.286H131.289L128.968 100.231L126.648 107.286H123.484L119.429 95.3326H123.601L125.359 101.145L127.375 95.3326H130.562L132.578 101.145L134.335 95.3326H138.507ZM145.796 94.9811C146.921 94.9811 147.921 95.2311 148.796 95.7311C149.671 96.2311 150.351 96.9342 150.835 97.8405C151.335 98.7311 151.585 99.7936 151.585 101.028V102.411H143.453C143.625 102.989 143.968 103.419 144.484 103.7C145 103.981 145.593 104.122 146.265 104.122C147.171 104.122 147.953 103.997 148.609 103.747C149.281 103.481 149.781 103.255 150.109 103.067V106.512C149.703 106.762 149.14 107.012 148.421 107.262C147.718 107.512 146.921 107.637 146.031 107.637C145.187 107.637 144.367 107.497 143.57 107.215C142.789 106.934 142.085 106.528 141.46 105.997C140.835 105.465 140.343 104.825 139.984 104.075C139.625 103.309 139.445 102.45 139.445 101.497C139.445 100.309 139.718 99.2233 140.265 98.2389C140.828 97.2545 141.585 96.4655 142.539 95.8717C143.507 95.278 144.593 94.9811 145.796 94.9811ZM145.679 98.3092C145.164 98.3092 144.718 98.4498 144.343 98.7311C143.968 98.9967 143.695 99.4108 143.523 99.9733H147.765C147.765 99.4108 147.546 98.9967 147.109 98.7311C146.687 98.4498 146.21 98.3092 145.679 98.3092ZM161.406 94.9811C162.296 94.9811 163.132 95.2076 163.914 95.6608C164.71 96.1139 165.351 96.8092 165.835 97.7467C166.32 98.6842 166.562 99.8795 166.562 101.333C166.562 102.676 166.312 103.817 165.812 104.755C165.328 105.692 164.671 106.411 163.843 106.911C163.031 107.395 162.14 107.637 161.171 107.637C160.546 107.637 159.929 107.505 159.32 107.239C158.726 106.958 158.234 106.606 157.843 106.184V112.911H153.812V95.3326H157.843V97.3248C158.14 96.6686 158.593 96.1139 159.203 95.6608C159.812 95.2076 160.546 94.9811 161.406 94.9811ZM160.21 99.0592C159.882 99.0592 159.531 99.153 159.156 99.3405C158.796 99.5123 158.484 99.7858 158.218 100.161C157.968 100.52 157.843 100.989 157.843 101.567V102.715C158.203 102.997 158.593 103.231 159.015 103.419C159.453 103.606 159.89 103.7 160.328 103.7C160.921 103.7 161.406 103.465 161.781 102.997C162.156 102.512 162.343 101.958 162.343 101.333C162.343 100.692 162.148 100.153 161.757 99.7155C161.367 99.278 160.851 99.0592 160.21 99.0592ZM180.343 95.3326V102.505C180.343 103.583 180.093 104.505 179.593 105.27C179.109 106.036 178.437 106.622 177.578 107.028C176.718 107.434 175.734 107.637 174.625 107.637C173.515 107.637 172.531 107.434 171.671 107.028C170.812 106.622 170.132 106.036 169.632 105.27C169.148 104.505 168.906 103.583 168.906 102.505V95.3326H172.937L172.96 101.426C172.96 102.239 173.085 102.833 173.335 103.208C173.601 103.583 174.031 103.77 174.625 103.77C175.218 103.77 175.64 103.583 175.89 103.208C176.156 102.833 176.289 102.239 176.289 101.426L176.312 95.3326H180.343ZM184.82 103.512C185.398 103.512 185.89 103.715 186.296 104.122C186.718 104.528 186.929 105.028 186.929 105.622C186.929 106.2 186.718 106.7 186.296 107.122C185.89 107.528 185.398 107.731 184.82 107.731C184.242 107.731 183.742 107.528 183.32 107.122C182.914 106.7 182.71 106.2 182.71 105.622C182.71 105.028 182.914 104.528 183.32 104.122C183.742 103.715 184.242 103.512 184.82 103.512Z" fill="black"/>
</svg>
