<svg width="500" height="500" viewBox="0 0 500 500" fill="none" xmlns="http://www.w3.org/2000/svg">
<path d="M424.57 219.77C426.1 178.35 411.22 136.43 378.42 116.48C362.23 106.63 343.3 100.86 324.36 101.71C304.04 102.62 284.91 110.89 265.75 117.71C246.59 124.53 225.84 129.98 206.09 125.14C191.8 121.64 179.23 112.99 165.09 109.05C109.38 93.54 60.87 156.75 88.13 207C94.82 219.32 105.13 229.2 113.8 240.23C122.47 251.26 129.74 264.58 128.57 278.55C127.57 290.12 121.01 300.42 118.28 311.7C113.06 333.31 123.42 357.08 141.33 370.25C159.24 383.42 183.4 386.49 205 381.07C226.6 375.65 245.6 362.39 260.57 345.97C268.57 337.17 276.41 326.89 287.92 323.9C298.97 321.04 310.36 325.7 321.57 327.84C331.934 329.757 342.58 329.54 352.857 327.201C363.134 324.863 372.826 320.452 381.34 314.24C408.39 294.23 423.19 257.2 424.57 219.77Z" fill="#FDC713"/>
<path opacity="0.7" d="M424.57 219.77C426.1 178.35 411.22 136.43 378.42 116.48C362.23 106.63 343.3 100.86 324.36 101.71C304.04 102.62 284.91 110.89 265.75 117.71C246.59 124.53 225.84 129.98 206.09 125.14C191.8 121.64 179.23 112.99 165.09 109.05C109.38 93.54 60.87 156.75 88.13 207C94.82 219.32 105.13 229.2 113.8 240.23C122.47 251.26 129.74 264.58 128.57 278.55C127.57 290.12 121.01 300.42 118.28 311.7C113.06 333.31 123.42 357.08 141.33 370.25C159.24 383.42 183.4 386.49 205 381.07C226.6 375.65 245.6 362.39 260.57 345.97C268.57 337.17 276.41 326.89 287.92 323.9C298.97 321.04 310.36 325.7 321.57 327.84C331.934 329.757 342.58 329.54 352.857 327.201C363.134 324.863 372.826 320.452 381.34 314.24C408.39 294.23 423.19 257.2 424.57 219.77Z" fill="white"/>
<path d="M246.39 449.2C321.064 449.2 381.6 437.094 381.6 422.16C381.6 407.226 321.064 395.12 246.39 395.12C171.716 395.12 111.18 407.226 111.18 422.16C111.18 437.094 171.716 449.2 246.39 449.2Z" fill="#FDC713"/>
<path opacity="0.5" d="M246.39 449.2C321.064 449.2 381.6 437.094 381.6 422.16C381.6 407.226 321.064 395.12 246.39 395.12C171.716 395.12 111.18 407.226 111.18 422.16C111.18 437.094 171.716 449.2 246.39 449.2Z" fill="white"/>
<path d="M389.93 62.4501H292.44C289.11 62.4501 286.41 65.1498 286.41 68.4801V175.95C286.41 179.28 289.11 181.98 292.44 181.98H389.93C393.26 181.98 395.96 179.28 395.96 175.95V68.4801C395.96 65.1498 393.26 62.4501 389.93 62.4501Z" fill="white" stroke="#263238" stroke-linecap="round" stroke-linejoin="round"/>
<path d="M292.44 62.45H389.92C391.511 62.45 393.037 63.0822 394.163 64.2074C395.288 65.3326 395.92 66.8587 395.92 68.45V74.71H286.41V68.48C286.406 67.687 286.559 66.9011 286.861 66.1678C287.163 65.4344 287.607 64.768 288.167 64.2073C288.728 63.6466 289.394 63.2026 290.128 62.9009C290.861 62.5993 291.647 62.4461 292.44 62.45Z" fill="#263238" stroke="#263238" stroke-linecap="round" stroke-linejoin="round"/>
<path d="M292.38 126.27H336.46" stroke="#263238" stroke-linecap="round" stroke-linejoin="round"/>
<path d="M292.38 131.96H336.46" stroke="#263238" stroke-linecap="round" stroke-linejoin="round"/>
<path d="M292.38 137.65H336.46" stroke="#263238" stroke-linecap="round" stroke-linejoin="round"/>
<path d="M292.38 143.34H336.46" stroke="#263238" stroke-linecap="round" stroke-linejoin="round"/>
<path d="M292.38 149.03H336.46" stroke="#263238" stroke-linecap="round" stroke-linejoin="round"/>
<path d="M292.38 154.73H336.46" stroke="#263238" stroke-linecap="round" stroke-linejoin="round"/>
<path d="M292.38 160.42H336.46" stroke="#263238" stroke-linecap="round" stroke-linejoin="round"/>
<path d="M292.38 166.11H336.46" stroke="#263238" stroke-linecap="round" stroke-linejoin="round"/>
<path d="M292.38 171.8H336.46" stroke="#263238" stroke-linecap="round" stroke-linejoin="round"/>
<path d="M344.21 126.27H388.29" stroke="#263238" stroke-linecap="round" stroke-linejoin="round"/>
<path d="M344.21 131.96H388.29" stroke="#263238" stroke-linecap="round" stroke-linejoin="round"/>
<path d="M344.21 137.65H388.29" stroke="#263238" stroke-linecap="round" stroke-linejoin="round"/>
<path d="M344.21 143.34H388.29" stroke="#263238" stroke-linecap="round" stroke-linejoin="round"/>
<path d="M344.21 149.03H388.29" stroke="#263238" stroke-linecap="round" stroke-linejoin="round"/>
<path d="M344.21 154.73H388.29" stroke="#263238" stroke-linecap="round" stroke-linejoin="round"/>
<path d="M344.21 160.42H388.29" stroke="#263238" stroke-linecap="round" stroke-linejoin="round"/>
<path d="M344.21 166.11H388.29" stroke="#263238" stroke-linecap="round" stroke-linejoin="round"/>
<path d="M344.21 171.8H388.29" stroke="#263238" stroke-linecap="round" stroke-linejoin="round"/>
<path d="M321.86 90.24C322.077 89.5644 322.192 88.8598 322.2 88.15C322.2 85.56 319.57 85.41 316.99 85.41H316.34V84.8H327.6V85.41C324.67 85.41 323.6 87.28 322.69 90.05L316.69 107.96C316.24 109.29 315.86 110.28 314.45 110.28H314.33L309.05 93.17L304.14 108C303.68 109.33 303.3 110.32 301.89 110.32H301.78L294.1 85.41H291.4V84.8H301.28V85.41H298.47L304.17 105.03H304.4L308.7 92L306.7 85.46H304V84.8H313.89V85.41H311.08L316.78 105.03H317L321.86 90.24Z" fill="#FDC713"/>
<path d="M388.6 79.13H343.24V120.13H388.6V79.13Z" fill="#FDC713" stroke="#263238" stroke-width="2" stroke-linecap="round" stroke-linejoin="round"/>
<path d="M388.6 96.27C387.079 96.3567 385.567 96.5674 384.08 96.9C377.19 98.4 375.39 108.29 367.6 108.29C360.7 108.29 360.11 99 350.22 97.8C347.814 97.421 345.35 97.8575 343.22 99.04V120.13H388.6V96.27Z" fill="#263238" stroke="#263238" stroke-linecap="round" stroke-linejoin="round"/>
<path d="M358.31 88.5101C358.312 89.5196 358.014 90.507 357.455 91.3472C356.895 92.1874 356.099 92.8427 355.166 93.2299C354.234 93.6172 353.208 93.719 352.217 93.5225C351.227 93.3261 350.318 92.8401 349.604 92.1263C348.89 91.4124 348.404 90.5028 348.207 89.5126C348.011 88.5223 348.113 87.4961 348.5 86.5637C348.887 85.6314 349.543 84.835 350.383 84.2754C351.223 83.7158 352.21 83.4181 353.22 83.4201C354.57 83.4201 355.865 83.9563 356.819 84.9109C357.774 85.8654 358.31 87.1601 358.31 88.5101Z" fill="white" stroke="#263238" stroke-linecap="round" stroke-linejoin="round"/>
<path d="M390.67 66.04H289.7V69.93H390.67V66.04Z" fill="white" stroke="#263238" stroke-linecap="round" stroke-linejoin="round"/>
<path d="M384.37 205.83H340.66C338.941 205.83 337.293 206.513 336.078 207.728C334.863 208.943 334.18 210.591 334.18 212.31V235.69C334.18 237.409 334.863 239.057 336.078 240.272C337.293 241.487 338.941 242.17 340.66 242.17H342C340.64 245.17 338 249.77 333.83 252.5C333.83 252.5 342.7 251.88 351.94 242.17H384.35C386.069 242.17 387.717 241.487 388.932 240.272C390.147 239.057 390.83 237.409 390.83 235.69V212.31C390.83 210.595 390.15 208.95 388.939 207.735C387.728 206.52 386.085 205.835 384.37 205.83Z" fill="#263238" stroke="#263238" stroke-linecap="round" stroke-linejoin="round"/>
<path d="M355 223.17C355.002 222.509 354.807 221.861 354.441 221.311C354.075 220.76 353.553 220.33 352.943 220.076C352.332 219.822 351.66 219.755 351.011 219.884C350.362 220.012 349.766 220.331 349.298 220.798C348.831 221.266 348.512 221.862 348.384 222.511C348.255 223.16 348.322 223.832 348.576 224.443C348.83 225.054 349.26 225.575 349.811 225.941C350.361 226.308 351.009 226.502 351.67 226.5C352.552 226.497 353.398 226.146 354.022 225.522C354.646 224.898 354.997 224.052 355 223.17Z" fill="#FDC713" stroke="#263238" stroke-linecap="round" stroke-linejoin="round"/>
<path d="M366.33 223.17C366.33 222.511 366.135 221.868 365.769 221.32C365.403 220.772 364.883 220.346 364.274 220.094C363.666 219.842 362.996 219.776 362.35 219.904C361.704 220.033 361.111 220.35 360.645 220.815C360.18 221.281 359.862 221.874 359.734 222.52C359.605 223.166 359.671 223.836 359.923 224.444C360.175 225.053 360.602 225.573 361.15 225.939C361.698 226.305 362.341 226.5 363 226.5C363.882 226.497 364.728 226.146 365.352 225.522C365.976 224.898 366.327 224.052 366.33 223.17Z" fill="#FDC713" stroke="#263238" stroke-linecap="round" stroke-linejoin="round"/>
<path d="M377.67 223.17C377.672 222.509 377.478 221.862 377.112 221.312C376.746 220.761 376.225 220.332 375.615 220.077C375.005 219.823 374.333 219.755 373.685 219.883C373.036 220.011 372.44 220.328 371.972 220.795C371.504 221.261 371.185 221.857 371.055 222.505C370.925 223.153 370.991 223.825 371.243 224.436C371.496 225.047 371.924 225.569 372.473 225.936C373.023 226.304 373.669 226.5 374.33 226.5C375.213 226.497 376.06 226.146 376.685 225.522C377.311 224.899 377.665 224.053 377.67 223.17Z" fill="#FDC713" stroke="#263238" stroke-linecap="round" stroke-linejoin="round"/>
<path d="M144 76.63H216C217.713 76.63 219.356 77.3106 220.568 78.5221C221.779 79.7336 222.46 81.3767 222.46 83.09V133H137.57V83.09C137.57 81.3819 138.246 79.7433 139.451 78.5327C140.656 77.322 142.292 76.6379 144 76.63Z" fill="#FDC713" stroke="#263238" stroke-linecap="round" stroke-linejoin="round"/>
<path d="M222.42 124.95H137.57V132.97H222.42V124.95Z" fill="#263238" stroke="#263238" stroke-linecap="round" stroke-linejoin="round"/>
<path d="M218.54 127.69H141.46V130.23H218.54V127.69Z" fill="white" stroke="#263238" stroke-linecap="round" stroke-linejoin="round"/>
<path d="M180 113.93C186.473 113.93 191.72 108.683 191.72 102.21C191.72 95.7372 186.473 90.49 180 90.49C173.527 90.49 168.28 95.7372 168.28 102.21C168.28 108.683 173.527 113.93 180 113.93Z" fill="#263238" stroke="#263238" stroke-linecap="round" stroke-linejoin="round"/>
<path d="M174.71 94.92L187.36 102.22L174.71 109.52V94.92Z" fill="white" stroke="#263238" stroke-linecap="round" stroke-linejoin="round"/>
<path d="M185.72 153.5H105.19C103.633 153.5 102.37 154.763 102.37 156.32V187.01C102.37 188.567 103.633 189.83 105.19 189.83H185.72C187.277 189.83 188.54 188.567 188.54 187.01V156.32C188.54 154.763 187.277 153.5 185.72 153.5Z" fill="#263238" stroke="#263238" stroke-linecap="round" stroke-linejoin="round"/>
<path d="M112.63 158.45L113.05 159.15C111.15 160.21 109.38 162.07 109.38 164.25C109.356 164.624 109.406 165 109.529 165.355C109.652 165.709 109.844 166.036 110.094 166.315C110.345 166.595 110.649 166.821 110.988 166.982C111.327 167.142 111.695 167.233 112.07 167.25C112.35 167.25 112.54 167.11 112.54 166.83C112.54 166.55 112.4 166.46 112.12 166.41C111.742 166.308 111.413 166.075 111.192 165.752C110.97 165.43 110.87 165.039 110.91 164.65C110.917 164.339 110.988 164.034 111.117 163.751C111.246 163.469 111.431 163.216 111.661 163.007C111.891 162.798 112.162 162.639 112.455 162.538C112.749 162.437 113.06 162.397 113.37 162.42C113.707 162.421 114.04 162.49 114.35 162.622C114.66 162.754 114.94 162.947 115.174 163.19C115.408 163.432 115.591 163.719 115.713 164.033C115.834 164.348 115.891 164.683 115.88 165.02C115.875 165.443 115.785 165.861 115.615 166.249C115.445 166.636 115.199 166.986 114.891 167.276C114.583 167.566 114.219 167.791 113.822 167.938C113.425 168.085 113.003 168.15 112.58 168.13C112.054 168.164 111.528 168.087 111.034 167.905C110.539 167.722 110.089 167.438 109.712 167.07C109.335 166.702 109.039 166.259 108.844 165.77C108.649 165.281 108.559 164.756 108.58 164.23C108.55 161.7 110.5 159.66 112.63 158.45ZM121.22 158.45L121.64 159.15C119.73 160.21 117.97 162.07 117.97 164.25C117.944 164.625 117.994 165.001 118.116 165.356C118.238 165.711 118.43 166.038 118.681 166.318C118.932 166.598 119.236 166.824 119.576 166.984C119.916 167.145 120.285 167.235 120.66 167.25C120.94 167.25 121.13 167.11 121.13 166.83C121.13 166.55 120.99 166.46 120.71 166.41C120.332 166.308 120.003 166.075 119.782 165.752C119.56 165.43 119.46 165.039 119.5 164.65C119.506 164.339 119.575 164.033 119.704 163.749C119.833 163.466 120.018 163.212 120.248 163.004C120.479 162.795 120.749 162.635 121.044 162.535C121.338 162.434 121.65 162.395 121.96 162.42C122.297 162.421 122.63 162.49 122.94 162.622C123.25 162.754 123.53 162.947 123.764 163.19C123.998 163.432 124.181 163.719 124.303 164.033C124.424 164.348 124.481 164.683 124.47 165.02C124.464 165.443 124.373 165.86 124.202 166.247C124.032 166.634 123.785 166.983 123.478 167.273C123.17 167.563 122.807 167.788 122.411 167.935C122.014 168.083 121.592 168.149 121.17 168.13C120.645 168.162 120.119 168.085 119.625 167.901C119.132 167.718 118.682 167.434 118.306 167.066C117.929 166.699 117.633 166.257 117.438 165.768C117.242 165.28 117.151 164.756 117.17 164.23C117.13 161.7 119.08 159.66 121.22 158.45Z" fill="#FDC713"/>
<path d="M129.44 165.85H178.48" stroke="white" stroke-linecap="round" stroke-linejoin="round"/>
<path d="M129.44 170.06H178.48" stroke="white" stroke-linecap="round" stroke-linejoin="round"/>
<path d="M129.44 174.27H178.48" stroke="white" stroke-linecap="round" stroke-linejoin="round"/>
<path d="M129.44 178.49H178.48" stroke="white" stroke-linecap="round" stroke-linejoin="round"/>
<path d="M169.803 246.16C179.925 244.507 186.791 234.963 185.139 224.841C183.487 214.719 173.942 207.852 163.82 209.505C153.698 211.157 146.832 220.701 148.484 230.823C150.136 240.945 159.681 247.812 169.803 246.16Z" fill="#263238" stroke="#263238" stroke-linecap="round" stroke-linejoin="round"/>
<path d="M178.59 238.193C184.301 231.691 183.659 221.79 177.157 216.079C170.654 210.368 160.753 211.01 155.042 217.513C149.332 224.016 149.974 233.917 156.476 239.627C162.979 245.338 172.88 244.696 178.59 238.193Z" fill="white" stroke="#263238" stroke-linecap="round" stroke-linejoin="round"/>
<path d="M166.82 216.5V227.83H174.48" stroke="#263238" stroke-width="2" stroke-linecap="round" stroke-linejoin="round"/>
<path d="M283 227.87C283 227.87 293.65 250.6 293.65 251.8C293.65 253 284.2 258.14 282.4 259.22C281.004 260.015 279.565 260.733 278.09 261.37L279.17 271.9C279.17 271.9 295.44 268.19 302.26 264.48C309.08 260.77 308.84 256.58 307.26 250.36C305.68 244.14 295.17 220.1 295.17 220.1L283 227.87Z" fill="white"/>
<mask id="mask0_239_1873" style="mask-type:luminance" maskUnits="userSpaceOnUse" x="278" y="220" width="31" height="52">
<path d="M283 227.87C283 227.87 293.65 250.6 293.65 251.8C293.65 253 284.2 258.14 282.4 259.22C281.004 260.015 279.565 260.733 278.09 261.37L279.17 271.9C279.17 271.9 295.44 268.19 302.26 264.48C309.08 260.77 308.84 256.58 307.26 250.36C305.68 244.14 295.17 220.1 295.17 220.1L283 227.87Z" fill="white"/>
</mask>
<g mask="url(#mask0_239_1873)">
<g style="mix-blend-mode:multiply" opacity="0.5">
<path d="M302.23 264.48C309.05 260.77 308.81 256.58 307.23 250.36C305.65 244.14 295.14 220.1 295.14 220.1L293.44 221.18L292.9 222.18C292.9 222.18 302.71 246.26 303.3 254.28C303.7 259.67 292.85 266.39 285.68 270.23C291 268.82 298.24 266.65 302.23 264.48Z" fill="#FDC713"/>
</g>
</g>
<path d="M283 227.87C283 227.87 293.65 250.6 293.65 251.8C293.65 253 284.2 258.14 282.4 259.22C281.004 260.015 279.565 260.733 278.09 261.37L279.17 271.9C279.17 271.9 295.44 268.19 302.26 264.48C309.08 260.77 308.84 256.58 307.26 250.36C305.68 244.14 295.17 220.1 295.17 220.1L283 227.87Z" stroke="#263238" stroke-linecap="round" stroke-linejoin="round"/>
<path d="M206.16 222.85C206.16 222.85 198.39 251.32 198.16 256.35C197.93 261.38 213.59 271.3 214.16 271.9C214.73 272.5 213.27 254.6 213.27 254.6L218.58 228.6L206.16 222.85Z" fill="white"/>
<mask id="mask1_239_1873" style="mask-type:luminance" maskUnits="userSpaceOnUse" x="198" y="222" width="21" height="50">
<path d="M206.16 222.85C206.16 222.85 198.39 251.32 198.16 256.35C197.93 261.38 213.59 271.3 214.16 271.9C214.73 272.5 213.27 254.6 213.27 254.6L218.58 228.6L206.16 222.85Z" fill="white"/>
</mask>
<g mask="url(#mask1_239_1873)">
<g style="mix-blend-mode:multiply" opacity="0.5">
<path d="M209.72 225.18L209.55 224.41L206.16 222.85C206.16 222.85 198.39 251.32 198.16 256.35C197.93 261.38 213.59 271.3 214.16 271.9C214.39 272.14 214.3 269.46 214.11 266.15C209.45 262.2 202.76 256.64 201.98 254.3" fill="#FDC713"/>
</g>
</g>
<path d="M206.16 222.85C206.16 222.85 198.39 251.32 198.16 256.35C197.93 261.38 213.59 271.3 214.16 271.9C214.73 272.5 213.27 254.6 213.27 254.6L218.58 228.6L206.16 222.85Z" stroke="#263238" stroke-linecap="round" stroke-linejoin="round"/>
<path d="M242.65 194.25C242.65 194.25 239.65 196.41 233.8 196.65C227.95 196.89 227.67 192.65 220.4 192.65C211.59 192.65 200.54 220.52 200.54 220.52C200.54 220.52 206.04 225.91 211.43 228.18C214.412 229.486 217.547 230.41 220.76 230.93L221.6 249.24H280.94L281.65 230.93L300.2 218.9C300.2 218.9 291.1 202.63 286.68 196.53C282.26 190.43 274.83 192.7 272.56 194.25C270.29 195.8 263.56 196.17 261.08 195.81C257.845 195.094 254.647 194.216 251.5 193.18C251.5 193.18 247.68 190 242.65 194.25Z" fill="#FDC713" stroke="#263238" stroke-linecap="round" stroke-linejoin="round"/>
<path d="M221.36 200.71L221.12 231.1" stroke="#263238" stroke-width="0.5" stroke-linecap="round" stroke-linejoin="round"/>
<path d="M223.51 203.47C223.51 203.47 224.35 218.3 227.51 226.56" stroke="#263238" stroke-width="0.5" stroke-linecap="round" stroke-linejoin="round"/>
<path d="M228.06 227.75C228.743 229.766 229.582 231.725 230.57 233.61" stroke="#263238" stroke-width="0.5" stroke-linecap="round" stroke-linejoin="round"/>
<path d="M225.42 201.79C226.555 207.182 228.158 212.466 230.21 217.58" stroke="#263238" stroke-width="0.5" stroke-linecap="round" stroke-linejoin="round"/>
<path d="M277 204.42C277 204.42 274.13 216.15 271.61 221.42" stroke="#263238" stroke-width="0.5" stroke-linecap="round" stroke-linejoin="round"/>
<path d="M281.65 230.98L281.53 207.29" stroke="#263238" stroke-width="0.5" stroke-linecap="round" stroke-linejoin="round"/>
<path d="M280.34 207.77C280.34 207.77 278.18 222.77 272.92 230.62" stroke="#263238" stroke-width="0.5" stroke-linecap="round" stroke-linejoin="round"/>
<path d="M277.71 227.63C277.71 227.63 275.31 232.18 273.64 234.57" stroke="#263238" stroke-width="0.5" stroke-linecap="round" stroke-linejoin="round"/>
<path d="M239.3 196.05C239.3 196.05 240.98 206.34 243.37 211.6C245.76 216.86 249.95 217.94 253.54 216.39C257.13 214.84 259.76 207.17 259.54 197.39" stroke="#263238" stroke-width="0.5" stroke-linecap="round" stroke-linejoin="round"/>
<path d="M230.81 174.51C230.81 174.51 228.53 170.57 226.74 172.6C224.95 174.63 228.18 179.3 229.97 180.85C231.76 182.4 233.08 181.45 232.97 179.78C232.86 178.11 230.81 174.51 230.81 174.51Z" fill="#FDC713" stroke="#263238" stroke-linecap="round" stroke-linejoin="round"/>
<path opacity="0.5" d="M230.81 174.51C230.81 174.51 228.53 170.57 226.74 172.6C224.95 174.63 228.18 179.3 229.97 180.85C231.76 182.4 233.08 181.45 232.97 179.78C232.86 178.11 230.81 174.51 230.81 174.51Z" fill="white"/>
<path d="M230.81 174.51C230.81 174.51 228.53 170.57 226.74 172.6C224.95 174.63 228.18 179.3 229.97 180.85C231.76 182.4 233.08 181.45 232.97 179.78C232.86 178.11 230.81 174.51 230.81 174.51Z" stroke="#263238" stroke-linecap="round" stroke-linejoin="round"/>
<path d="M267 174.51C267 174.51 269.27 170.57 271.07 172.6C272.87 174.63 269.63 179.3 267.84 180.85C266.05 182.4 264.72 181.45 264.84 179.78C264.96 178.11 267 174.51 267 174.51Z" fill="#FDC713" stroke="#263238" stroke-linecap="round" stroke-linejoin="round"/>
<path opacity="0.5" d="M267 174.51C267 174.51 269.27 170.57 271.07 172.6C272.87 174.63 269.63 179.3 267.84 180.85C266.05 182.4 264.72 181.45 264.84 179.78C264.96 178.11 267 174.51 267 174.51Z" fill="white"/>
<path d="M267 174.51C267 174.51 269.27 170.57 271.07 172.6C272.87 174.63 269.63 179.3 267.84 180.85C266.05 182.4 264.72 181.45 264.84 179.78C264.96 178.11 267 174.51 267 174.51Z" stroke="#263238" stroke-linecap="round" stroke-linejoin="round"/>
<path d="M241.57 193.42C242.7 198.526 244.139 203.559 245.88 208.49C248.04 213.87 252.1 213.87 253.78 210.4C255.46 206.93 256.53 194 256.53 194C256.53 194 245.28 195.57 241.57 193.42Z" fill="white" stroke="#263238" stroke-linecap="round" stroke-linejoin="round"/>
<path d="M231.05 175.83C231.05 175.83 234.16 186.83 240.05 193.3C245.94 199.77 248.05 201.3 251.18 200.83C254.31 200.36 257.64 196.29 262.3 187.83C266.96 179.37 267.3 172.88 267.69 172.28C268.08 171.68 266.69 159.72 260.03 154.57C253.37 149.42 245.91 147.16 239.45 152.78C232.99 158.4 228.89 167.57 231.05 175.83Z" fill="white"/>
<mask id="mask2_239_1873" style="mask-type:luminance" maskUnits="userSpaceOnUse" x="230" y="149" width="38" height="52">
<path d="M231.05 175.83C231.05 175.83 234.16 186.83 240.05 193.3C245.94 199.77 248.05 201.3 251.18 200.83C254.31 200.36 257.64 196.29 262.3 187.83C266.96 179.37 267.3 172.88 267.69 172.28C268.08 171.68 266.69 159.72 260.03 154.57C253.37 149.42 245.91 147.16 239.45 152.78C232.99 158.4 228.89 167.57 231.05 175.83Z" fill="white"/>
</mask>
<g mask="url(#mask2_239_1873)">
<g style="mix-blend-mode:multiply" opacity="0.5">
<path d="M260 154.53C253.3 149.39 245.88 147.12 239.42 152.74C232.96 158.36 228.89 167.57 231.05 175.83C231.05 175.83 231.64 177.95 232.81 180.83C232.807 180.461 232.857 180.094 232.96 179.74C234.39 175.21 238.61 166.44 252.81 170.46C264.09 173.64 262.71 183.56 261.66 188.85L262.27 187.75C266.94 179.26 267.27 172.8 267.66 172.2C268.05 171.6 266.7 159.68 260 154.53Z" fill="#FDC713"/>
</g>
</g>
<path d="M231.05 175.83C231.05 175.83 234.16 186.83 240.05 193.3C245.94 199.77 248.05 201.3 251.18 200.83C254.31 200.36 257.64 196.29 262.3 187.83C266.96 179.37 267.3 172.88 267.69 172.28C268.08 171.68 266.69 159.72 260.03 154.57C253.37 149.42 245.91 147.16 239.45 152.78C232.99 158.4 228.89 167.57 231.05 175.83Z" stroke="#263238" stroke-linecap="round" stroke-linejoin="round"/>
<path d="M251.15 181.57C250.779 183.906 250.579 186.265 250.55 188.63C250.67 191.02 251.39 191.74 250.31 191.98C249.23 192.22 248.04 190.54 248.04 190.54" stroke="#263238" stroke-linecap="round" stroke-linejoin="round"/>
<path d="M239.18 183.49C239.873 183.991 240.702 184.27 241.556 184.291C242.411 184.313 243.253 184.075 243.97 183.61" stroke="#263238" stroke-linecap="round" stroke-linejoin="round"/>
<path d="M254.38 183.49C255.072 183.99 255.898 184.269 256.751 184.29C257.604 184.312 258.444 184.074 259.16 183.61" stroke="#263238" stroke-linecap="round" stroke-linejoin="round"/>
<path d="M246.82 179.46C246.82 179.46 244.54 173.83 237.01 176.46" stroke="#263238" stroke-linecap="round" stroke-linejoin="round"/>
<path d="M253.09 178.77C253.09 178.77 255 173.26 261.82 176.49" stroke="#263238" stroke-linecap="round" stroke-linejoin="round"/>
<path d="M248.27 183.9C248.27 186.98 244.74 189.47 240.38 189.47C236.02 189.47 232.48 186.98 232.48 183.9C232.48 180.82 235.78 179.54 240.14 179.54C244.5 179.54 248.27 180.83 248.27 183.9Z" stroke="#263238" stroke-linecap="round" stroke-linejoin="round"/>
<path d="M266.46 183.9C266.46 186.98 262.92 189.47 258.56 189.47C254.2 189.47 250.67 186.98 250.67 183.9C250.67 180.82 253.96 179.54 258.32 179.54C262.68 179.54 266.46 180.83 266.46 183.9Z" stroke="#263238" stroke-linecap="round" stroke-linejoin="round"/>
<path d="M165.63 279.83L165.14 401.06C165.14 401.442 165.292 401.808 165.562 402.078C165.832 402.348 166.198 402.5 166.58 402.5C166.952 402.5 167.31 402.355 167.577 402.095C167.844 401.836 168 401.482 168.01 401.11L171.47 280L165.63 279.83Z" fill="white" stroke="#263238" stroke-linecap="round" stroke-linejoin="round"/>
<path d="M157.47 308.17L157 433.5C156.999 433.69 157.035 433.877 157.107 434.053C157.179 434.228 157.285 434.387 157.419 434.521C157.553 434.655 157.712 434.761 157.887 434.833C158.063 434.905 158.251 434.941 158.44 434.94C158.812 434.94 159.169 434.797 159.438 434.54C159.706 434.282 159.865 433.931 159.88 433.56L163.33 308.33L157.47 308.17Z" fill="white" stroke="#263238" stroke-linecap="round" stroke-linejoin="round"/>
<path d="M333.23 279.83L333.72 401.06C333.721 401.249 333.685 401.436 333.614 401.61C333.543 401.785 333.438 401.944 333.305 402.078C333.172 402.211 333.014 402.318 332.84 402.39C332.665 402.463 332.479 402.5 332.29 402.5C331.917 402.5 331.558 402.355 331.289 402.096C331.02 401.837 330.863 401.483 330.85 401.11L327.4 280L333.23 279.83Z" fill="white" stroke="#263238" stroke-linecap="round" stroke-linejoin="round"/>
<path d="M341.4 308.17L341.89 433.5C341.891 433.69 341.855 433.877 341.783 434.053C341.711 434.228 341.605 434.387 341.471 434.521C341.337 434.655 341.178 434.761 341.003 434.833C340.827 434.905 340.64 434.941 340.45 434.94C340.079 434.94 339.723 434.796 339.456 434.539C339.189 434.282 339.033 433.931 339.02 433.56L335.56 308.33L341.4 308.17Z" fill="white" stroke="#263238" stroke-linecap="round" stroke-linejoin="round"/>
<path d="M214.29 313.38L214 424.62C213.968 424.898 214.045 425.177 214.215 425.398C214.385 425.62 214.634 425.768 214.91 425.81C215.18 425.773 215.425 425.634 215.596 425.422C215.767 425.21 215.85 424.941 215.83 424.67L218 313.51L214.29 313.38Z" fill="white" stroke="#263238" stroke-linecap="round" stroke-linejoin="round"/>
<path d="M284.7 309.8L284.97 406.88C284.993 407.115 284.925 407.35 284.78 407.536C284.635 407.722 284.424 407.845 284.19 407.88C283.957 407.845 283.747 407.722 283.604 407.535C283.46 407.349 283.394 407.114 283.42 406.88L281.57 309.88L284.7 309.8Z" fill="white" stroke="#263238" stroke-linecap="round" stroke-linejoin="round"/>
<path d="M213.2 309.8L213.47 406.88C213.493 407.115 213.425 407.35 213.28 407.536C213.135 407.722 212.924 407.845 212.69 407.88C212.457 407.845 212.247 407.722 212.104 407.535C211.96 407.349 211.894 407.114 211.92 406.88L210.07 309.88L213.2 309.8Z" fill="white" stroke="#263238" stroke-linecap="round" stroke-linejoin="round"/>
<path d="M282.69 313.38L283 424.62C283.032 424.898 282.955 425.177 282.785 425.398C282.615 425.62 282.366 425.768 282.09 425.81C281.821 425.77 281.578 425.631 281.407 425.42C281.237 425.209 281.152 424.941 281.17 424.67L279 313.51L282.69 313.38Z" fill="white" stroke="#263238" stroke-linecap="round" stroke-linejoin="round"/>
<path d="M248 321.17C272.577 321.17 292.5 316.617 292.5 311C292.5 305.383 272.577 300.83 248 300.83C223.423 300.83 203.5 305.383 203.5 311C203.5 316.617 223.423 321.17 248 321.17Z" fill="white" stroke="#263238" stroke-linecap="round" stroke-linejoin="round"/>
<path d="M226.33 397.33C226.33 397.33 224 400.67 225.67 402.33C227.34 403.99 229 403.33 228.83 405C228.66 406.67 226 412.33 223.67 418.33C221.34 424.33 226.17 430.33 230.67 428.67C235.17 427.01 234.67 410.33 235.33 407.33C235.99 404.33 236.5 403.83 236.33 401C236.16 398.17 236 395.17 233.83 394.83C231.66 394.49 227.33 396.17 226.33 397.33Z" fill="white" stroke="#263238" stroke-linecap="round" stroke-linejoin="round"/>
<path d="M233.48 424.07C230.48 422.93 225.88 423.16 223.29 423.42C224.16 427.19 227.49 429.84 230.67 428.67C232 428.18 232.87 426.4 233.48 424.07Z" fill="#FDC713" stroke="#263238" stroke-linecap="round" stroke-linejoin="round"/>
<path d="M221.17 390C221.17 390 226 398.17 227.33 400.33C228.66 402.49 233.17 401.83 233.67 398.83C234.17 395.83 231.83 387.5 231.83 387.5L221.83 390H221.17Z" fill="white" stroke="#263238" stroke-linecap="round" stroke-linejoin="round"/>
<path d="M209.67 377C209.67 377 208.33 379.17 209 380.67C209.67 382.17 211.5 386.5 212.67 388.67C213.84 390.84 219.17 392.17 225.33 391.17C231.49 390.17 235 387.33 235.17 384.83C235.34 382.33 234.17 379 233.33 375C232.49 371 230.33 371.17 227.33 371.17C224.33 371.17 212.17 374.67 209.67 377Z" fill="#FDC713" stroke="#263238" stroke-linecap="round" stroke-linejoin="round"/>
<path d="M227.67 328C227.76 323.9 230.13 321.88 230.31 319.07C230.592 315.355 230.285 311.619 229.4 308L224.84 301.77C211.72 301.94 202.32 302.16 202.17 302.21C201.67 302.37 201.33 305.21 201 307.54C201 307.54 195.43 308.25 196.43 323.75C196.57 325.91 202.19 350.9 202.6 353.75C205.1 371.16 210.67 379.88 210.67 379.88C210.67 379.88 211.17 382.05 217.67 381.55C224.17 381.05 230.67 376.72 230.67 376.72C230.67 376.72 227.33 342.83 227.67 328Z" fill="#263238" stroke="#263238" stroke-linecap="round" stroke-linejoin="round"/>
<path d="M200.1 305C200.1 305 193.21 306 188.99 310.82C184.77 315.64 188.35 318.82 196.55 317.96C204.75 317.1 214.21 308.71 214.61 308.26C215.01 307.81 206.06 302.11 200.1 305Z" fill="white" stroke="#263238" stroke-linecap="round" stroke-linejoin="round"/>
<path d="M212.33 308C216.72 308.226 221.075 308.896 225.33 310C231 311.67 241 315 243.33 315C245.66 315 245 306.33 245 304.67C245 303.01 215 302 211.33 302C207.66 302 212.33 308 212.33 308Z" fill="white" stroke="#263238" stroke-linecap="round" stroke-linejoin="round"/>
<path d="M245 304.67C245 304.67 242.33 306 241.33 311C240.33 316 239 318.67 241 320C243 321.33 251.67 322.33 253 321C254.33 319.67 258 313 258.67 308.67C259.34 304.34 245 304.67 245 304.67Z" fill="#FDC713" stroke="#263238" stroke-linecap="round" stroke-linejoin="round"/>
<path d="M256.33 306.33C254.78 308.109 253.542 310.138 252.67 312.33C251.963 314.625 251.405 316.963 251 319.33C254.19 320.205 257.309 321.321 260.33 322.67C265.67 325 274.67 326.67 283.33 328.67C291.99 330.67 294.33 332.67 297.33 332.67C300.33 332.67 304 330.33 308.67 324.67C313.34 319.01 309.33 307 304.67 303.33C300.01 299.66 275 296.67 271.67 297.67C268.34 298.67 256.33 306.33 256.33 306.33Z" fill="#263238" stroke="#263238" stroke-linecap="round" stroke-linejoin="round"/>
<path d="M193.79 318.05C193.131 315.058 191.797 312.257 189.89 309.86C189.58 310.15 189.28 310.45 188.99 310.78C185.28 315 187.6 318 193.79 318.05Z" fill="#FDC713" stroke="#263238" stroke-linecap="round" stroke-linejoin="round"/>
<path d="M227.16 320.69C227.16 320.69 223.72 357.5 216.7 363.23" stroke="white" stroke-width="0.5" stroke-linecap="round" stroke-linejoin="round"/>
<path d="M224.73 355.63C224.73 355.63 222 367.63 214.84 372.4" stroke="white" stroke-width="0.5" stroke-linecap="round" stroke-linejoin="round"/>
<path d="M269 314C269 314 258.33 314.67 265.33 319.33C272.33 323.99 285 327 285 327" stroke="white" stroke-width="0.5" stroke-linecap="round" stroke-linejoin="round"/>
<path d="M346.46 301.39L342.86 298.15L334.54 280.15C334.145 279.331 333.526 278.641 332.754 278.162C331.982 277.682 331.089 277.431 330.18 277.44H168.58C167.669 277.43 166.775 277.679 166.001 278.159C165.227 278.639 164.605 279.33 164.21 280.15L153.84 302.57L152.13 301.94V307.07L152.21 307.01C152.312 307.694 152.659 308.318 153.187 308.766C153.715 309.213 154.388 309.452 155.08 309.44H343.67C344.399 309.457 345.105 309.19 345.641 308.695C346.176 308.201 346.499 307.518 346.54 306.79L346.46 301.39Z" fill="#263238" stroke="#263238" stroke-linecap="round" stroke-linejoin="round"/>
<path d="M343.67 304.75H155.08C154.613 304.769 154.149 304.668 153.731 304.458C153.314 304.249 152.956 303.936 152.692 303.55C152.428 303.164 152.267 302.718 152.223 302.253C152.179 301.787 152.253 301.319 152.44 300.89L164.21 275.46C164.603 274.638 165.224 273.946 165.999 273.466C166.773 272.985 167.669 272.737 168.58 272.75H330.18C331.089 272.739 331.983 272.988 332.756 273.468C333.528 273.949 334.147 274.64 334.54 275.46L346.31 300.89C346.497 301.319 346.571 301.787 346.527 302.253C346.483 302.718 346.322 303.164 346.058 303.55C345.794 303.936 345.436 304.249 345.019 304.458C344.601 304.668 344.137 304.769 343.67 304.75Z" fill="white" stroke="#263238" stroke-linecap="round" stroke-linejoin="round"/>
<g style="mix-blend-mode:multiply" opacity="0.5">
<path d="M164.63 287.67C164.63 287.67 160.36 290.6 163.03 291.67C165.7 292.74 196.39 291.94 200.13 290.87C203.87 289.8 208.13 279.93 208.13 278.33C208.13 276.73 202.75 275.58 200.77 275.49C198.79 275.4 172.63 276.99 172.63 276.99L164.63 287.67Z" fill="#FDC713"/>
</g>
<g style="mix-blend-mode:multiply" opacity="0.5">
<path d="M317.29 292.74C323.332 292.74 328.23 290.707 328.23 288.2C328.23 285.693 323.332 283.66 317.29 283.66C311.248 283.66 306.35 285.693 306.35 288.2C306.35 290.707 311.248 292.74 317.29 292.74Z" fill="#FDC713"/>
</g>
<g style="mix-blend-mode:multiply" opacity="0.5">
<path d="M247.64 298.35C269.306 298.35 286.87 295.064 286.87 291.01C286.87 286.956 269.306 283.67 247.64 283.67C225.974 283.67 208.41 286.956 208.41 291.01C208.41 295.064 225.974 298.35 247.64 298.35Z" fill="#FDC713"/>
</g>
<path d="M309.29 270.34C309.29 270.34 308.57 267.47 306.18 268.43C303.79 269.39 304.03 275.73 304.5 279.32C304.97 282.91 308.21 281.23 308.21 281.23V279.08C308.21 279.08 307.02 280.03 306.42 278.72C305.82 277.41 305.94 270.82 306.54 270.94C307.14 271.06 308.33 273.09 308.33 273.09C308.33 273.09 308.69 272.86 309.29 270.34Z" fill="#FDC713" stroke="#263238" stroke-linecap="round" stroke-linejoin="round"/>
<path d="M307.57 270.82V286.54C307.57 288.39 311.82 289.89 317.07 289.89C322.32 289.89 326.56 288.39 326.56 286.54V270.82H307.57Z" fill="#FDC713" stroke="#263238" stroke-linecap="round" stroke-linejoin="round"/>
<path d="M326.56 270.82C326.56 272.42 322.31 273.71 317.07 273.71C311.83 273.71 307.57 272.42 307.57 270.82C307.57 269.22 311.82 267.93 317.07 267.93C322.32 267.93 326.56 269.23 326.56 270.82Z" fill="white" stroke="#263238" stroke-linecap="round" stroke-linejoin="round"/>
<path d="M325.32 270.82C325.32 272.21 321.62 273.33 317.07 273.33C312.52 273.33 308.81 272.21 308.81 270.82C308.81 269.43 312.51 268.31 317.07 268.31C321.63 268.31 325.32 269.43 325.32 270.82Z" fill="white" stroke="#263238" stroke-linecap="round" stroke-linejoin="round"/>
<path d="M310.7 272.42C314.857 273.633 319.273 273.633 323.43 272.42C319.273 271.207 314.857 271.207 310.7 272.42Z" fill="#263238" stroke="#263238" stroke-linecap="round" stroke-linejoin="round"/>
<path d="M163.45 278L163.57 283.38L199.82 283.74V277.52L163.45 278Z" fill="white" stroke="#263238" stroke-linecap="round" stroke-linejoin="round"/>
<path d="M199.82 283.74L205.09 272.38V269.03L199.58 278.6L199.82 283.74Z" fill="white" stroke="#263238" stroke-linecap="round" stroke-linejoin="round"/>
<path d="M163.45 282.9L163.57 288.29L199.82 288.65V282.43L163.45 282.9Z" fill="white" stroke="#263238" stroke-linecap="round" stroke-linejoin="round"/>
<path d="M199.82 288.65L205.09 277.28V273.93L199.58 283.5L199.82 288.65Z" fill="white" stroke="#263238" stroke-linecap="round" stroke-linejoin="round"/>
<path d="M177.45 264.36C177.45 264.36 178.29 262.69 177.09 261.97C175.89 261.25 174.58 262.97 173.86 263.52C173.14 264.07 158.07 274.05 157.59 275.61C157.11 277.17 157.59 280.61 160.82 280.99C164.05 281.37 166.92 279.2 168.36 278.84C169.8 278.48 170.36 278.36 170.36 278.36L180.29 264.96L177.45 264.36Z" fill="white" stroke="#263238" stroke-linecap="round" stroke-linejoin="round"/>
<path d="M160.82 281C164.05 281.36 166.92 279.21 168.36 278.85C169.8 278.49 170.36 278.37 170.36 278.37L170.72 277.88L161.39 275.98C160.883 275.502 160.231 275.207 159.537 275.142C158.843 275.077 158.147 275.245 157.56 275.62C157.11 277.16 157.59 280.63 160.82 281Z" fill="white" stroke="#263238" stroke-linecap="round" stroke-linejoin="round"/>
<path d="M161.42 276H189.42C198.16 276 200.79 275.52 200.79 275.52L206.17 264.39C206.17 264.39 189.17 265.47 183.92 265.11C181.751 265.047 179.59 264.807 177.46 264.39L161.42 276Z" fill="white" stroke="#263238" stroke-linecap="round" stroke-linejoin="round"/>
<path d="M161.42 276L161.9 278.15C161.9 278.15 184.63 278.27 190.61 278.27C196.59 278.27 201.14 278.51 201.14 278.51L200.78 275.51L161.42 276Z" fill="white" stroke="#263238" stroke-linecap="round" stroke-linejoin="round"/>
<path d="M201.14 278.48L206.16 266.99V264.36L200.78 275.49L201.14 278.48Z" fill="white" stroke="#263238" stroke-linecap="round" stroke-linejoin="round"/>
<path d="M281.9 291.92H213.35C213.198 291.921 213.047 291.893 212.907 291.835C212.766 291.778 212.638 291.694 212.53 291.587C212.422 291.48 212.337 291.353 212.278 291.212C212.22 291.072 212.19 290.922 212.19 290.77C212.19 290.618 212.22 290.468 212.278 290.328C212.337 290.187 212.422 290.06 212.53 289.953C212.638 289.846 212.766 289.762 212.907 289.705C213.047 289.647 213.198 289.619 213.35 289.62H281.9C282.051 289.619 282.201 289.648 282.342 289.705C282.482 289.762 282.609 289.847 282.716 289.954C282.823 290.061 282.908 290.188 282.965 290.328C283.022 290.469 283.051 290.619 283.05 290.77C283.051 290.921 283.022 291.072 282.965 291.212C282.908 291.352 282.823 291.479 282.716 291.586C282.609 291.693 282.482 291.778 282.342 291.835C282.201 291.893 282.051 291.921 281.9 291.92Z" fill="white" stroke="#263238" stroke-linecap="round" stroke-linejoin="round"/>
<path d="M282.48 289.6H212.76C212.505 289.6 212.259 289.503 212.073 289.329C211.887 289.154 211.775 288.915 211.76 288.66L207.97 243.11C207.953 242.969 207.966 242.826 208.009 242.69C208.051 242.555 208.122 242.43 208.217 242.324C208.311 242.218 208.428 242.133 208.557 242.076C208.687 242.018 208.828 241.989 208.97 241.99H286.28C286.422 241.989 286.563 242.018 286.693 242.076C286.822 242.133 286.939 242.218 287.033 242.324C287.128 242.43 287.199 242.555 287.241 242.69C287.284 242.826 287.297 242.969 287.28 243.11L283.49 288.66C283.475 288.916 283.361 289.157 283.173 289.332C282.985 289.507 282.737 289.603 282.48 289.6Z" fill="white" stroke="#263238" stroke-linecap="round" stroke-linejoin="round"/>
<path d="M254.2 266.58C254.2 269.3 251.25 271.5 247.62 271.5C243.99 271.5 241.03 269.3 241.03 266.58C241.03 263.86 243.98 261.67 247.62 261.67C251.26 261.67 254.2 263.87 254.2 266.58Z" fill="white" stroke="#263238" stroke-linecap="round" stroke-linejoin="round"/>
<path d="M322.33 231C323.399 230.166 324.151 228.991 324.46 227.67C324.685 226.68 324.661 225.649 324.39 224.67" stroke="#263238" stroke-linecap="round" stroke-linejoin="round"/>
<path d="M314.35 266.66C314.35 266.66 321 262.66 318.83 258.09C316.66 253.52 309.32 250.49 309.32 243.37C309.32 237.23 315.85 234.96 320.11 232.5" stroke="#263238" stroke-linecap="round" stroke-linejoin="round"/>
<path d="M320.49 266.53C320.49 266.53 324.2 264.06 324.2 260.14C324.2 257.51 321.39 255.79 317.68 251.56" stroke="#263238" stroke-linecap="round" stroke-linejoin="round"/>
<path d="M315.63 249C315.63 249 313.2 247.09 314.99 243.5" stroke="#263238" stroke-linecap="round" stroke-linejoin="round"/>
<path d="M259.33 144.25C260.52 144 263.07 143.02 264.79 139.03C264.816 138.97 264.831 138.905 264.832 138.839C264.833 138.773 264.821 138.707 264.797 138.646C264.773 138.585 264.737 138.529 264.691 138.481C264.645 138.434 264.591 138.396 264.53 138.37C264.408 138.319 264.271 138.318 264.147 138.366C264.024 138.415 263.925 138.509 263.87 138.63C262.29 142.29 260.03 143.1 259.09 143.28C260.772 141.244 261.701 138.691 261.72 136.05C261.72 129.11 255.29 123.49 247.36 123.49C239.43 123.49 233 129.11 233 136.05C233.005 138.584 233.849 141.046 235.4 143.05C233.89 142.97 231.34 143.61 228.11 147.38C228.018 147.475 227.966 147.602 227.966 147.735C227.966 147.868 228.018 147.995 228.11 148.09C228.203 148.167 228.319 148.209 228.44 148.21C228.513 148.21 228.585 148.194 228.65 148.163C228.716 148.132 228.774 148.086 228.82 148.03C232.95 143.22 235.68 144.03 236.23 144.25C235.296 144.764 234.421 145.377 233.62 146.08C229.01 150.23 226.2 158.08 226.56 164.62C226.965 168.958 228.537 173.105 231.11 176.62C234.458 174.224 237.235 171.116 239.24 167.52C240.734 164.879 242.07 162.15 243.24 159.35C243.24 162.28 243.62 165.82 245.16 168.35C246.271 170.348 247.898 172.012 249.872 173.166C251.846 174.32 254.094 174.922 256.38 174.91C257.169 174.921 257.958 174.844 258.73 174.68C258.798 174.663 258.861 174.632 258.917 174.589C258.972 174.546 259.017 174.492 259.05 174.43C262.91 175.25 266.75 175.18 267.34 174.36C268.29 173.05 269.64 168.96 270.09 163.96C270.91 155.48 265.57 148.12 259.33 144.25ZM246.09 167.74C244.15 164.57 244.21 159.4 244.44 156.43L244.57 156.09C244.662 159.145 245.441 162.139 246.848 164.852C248.256 167.565 250.256 169.926 252.7 171.76C254.05 172.693 255.548 173.393 257.13 173.83C254.68 174 249.64 173.53 246.09 167.74Z" fill="#263238"/>
<path d="M246.26 152C246.26 152 245.44 158.06 253.14 164C260.84 169.94 268.14 167.6 268.14 167.6" stroke="white" stroke-width="0.5" stroke-linecap="round" stroke-linejoin="round"/>
<path d="M247.39 150C247.39 150 255.5 161.81 266.7 158.73" stroke="white" stroke-width="0.5" stroke-linecap="round" stroke-linejoin="round"/>
<path d="M243.38 146.07C242.101 145.421 240.668 145.135 239.238 145.244C237.808 145.354 236.435 145.854 235.27 146.69C230.96 149.56 228.8 156.34 228.8 156.34" stroke="white" stroke-width="0.5" stroke-linecap="round" stroke-linejoin="round"/>
<path d="M243.59 149.36C243.59 149.36 240.1 148.43 237.94 150.59C236.887 151.544 235.987 152.653 235.27 153.88" stroke="white" stroke-width="0.5" stroke-linecap="round" stroke-linejoin="round"/>
</svg>
