<svg width="430" height="357" viewBox="0 0 430 357" fill="none" xmlns="http://www.w3.org/2000/svg">
<g clip-path="url(#clip0_239_1002)">
<path d="M62.84 323.41C146.63 367.18 282.47 367.19 366.26 323.41C450.05 279.63 450.04 208.67 366.26 164.9C282.48 121.13 146.63 121.13 62.84 164.9C-20.95 208.67 -20.94 279.65 62.84 323.41Z" fill="#F0F0F0"/>
<path d="M384.05 237.7C384.05 237.7 385.1 232.42 393.62 228.34C401.91 224.34 406.69 225.27 412.38 222.98C418.07 220.69 413.98 209.93 398.38 214.71C384.09 219.09 382.64 231.46 382.64 231.46L384.05 237.7Z" fill="#FDC713"/>
<path opacity="0.2" d="M384.05 237.7C384.05 237.7 385.1 232.42 393.62 228.34C401.91 224.34 406.69 225.27 412.38 222.98C418.07 220.69 413.98 209.93 398.38 214.71C384.09 219.09 382.64 231.46 382.64 231.46L384.05 237.7Z" fill="black"/>
<path d="M382.55 235.72C382.494 235.73 382.436 235.73 382.38 235.72C382.312 235.696 382.249 235.66 382.195 235.612C382.141 235.564 382.097 235.506 382.065 235.441C382.033 235.376 382.015 235.305 382.011 235.233C382.006 235.161 382.016 235.088 382.04 235.02C384.04 229.3 389.04 224.02 395.56 220.8C403.92 216.71 409.87 218.01 410.12 218.07C410.261 218.102 410.383 218.188 410.46 218.31C410.537 218.432 410.562 218.58 410.53 218.72C410.498 218.861 410.412 218.983 410.29 219.06C410.168 219.137 410.021 219.162 409.88 219.13C409.82 219.13 404.03 217.87 396.04 221.78C389.79 224.84 384.94 229.92 383.04 235.38C382.999 235.477 382.931 235.561 382.844 235.621C382.757 235.681 382.655 235.715 382.55 235.72Z" fill="#FAFAFA"/>
<path d="M382.82 231.12C382.82 231.12 383.82 228.12 387.67 222.25C394.31 212.07 405.14 207.62 409.88 201.8C414.98 195.52 406.16 191.64 398.23 193.8C393.69 195.06 389.55 199.2 387.38 201.99C382.783 208.057 380.148 215.384 379.83 222.99L382.82 231.12Z" fill="#FDC713"/>
<path d="M381.33 231.36C381.186 231.355 381.05 231.293 380.95 231.188C380.851 231.084 380.797 230.944 380.8 230.8C381.264 224.194 383.143 217.766 386.31 211.95C392.31 201.18 401.21 197.35 401.59 197.19C401.717 197.16 401.85 197.177 401.965 197.236C402.081 197.295 402.172 197.393 402.223 197.513C402.273 197.632 402.279 197.766 402.24 197.89C402.201 198.014 402.12 198.12 402.01 198.19C395.746 201.326 390.597 206.311 387.26 212.47C384.174 218.131 382.343 224.389 381.89 230.82C381.889 230.892 381.873 230.964 381.844 231.03C381.816 231.096 381.774 231.156 381.722 231.206C381.67 231.256 381.609 231.296 381.541 231.322C381.474 231.348 381.402 231.361 381.33 231.36Z" fill="#FAFAFA"/>
<path d="M90.55 240.12C83.36 235.29 83.04 222.29 84.08 214.12C85.73 201.12 79.08 198.12 75.69 203.86C74.05 206.65 71.99 212.71 72.22 219.77C72.59 230.83 77.38 244.06 88.98 248.86L90.55 240.12Z" fill="#FDC713"/>
<path opacity="0.2" d="M90.55 240.12C83.36 235.29 83.04 222.29 84.08 214.12C85.73 201.12 79.08 198.12 75.69 203.86C74.05 206.65 71.99 212.71 72.22 219.77C72.59 230.83 77.38 244.06 88.98 248.86L90.55 240.12Z" fill="black"/>
<path d="M89.07 248.12C88.9524 248.12 88.8388 248.077 88.75 248C76.58 237.59 74.67 219 78.05 206.11C78.0664 206.044 78.0956 205.983 78.1359 205.928C78.1762 205.874 78.2268 205.828 78.2848 205.793C78.3429 205.758 78.4072 205.735 78.4741 205.725C78.5411 205.715 78.6093 205.719 78.675 205.735C78.7407 205.752 78.8024 205.781 78.8568 205.821C78.9112 205.861 78.9571 205.912 78.9919 205.97C79.0268 206.028 79.0498 206.092 79.0598 206.159C79.0697 206.226 79.0664 206.294 79.05 206.36C75.75 218.95 77.58 237.11 89.43 247.24C89.48 247.282 89.521 247.334 89.5506 247.392C89.5803 247.451 89.5979 247.514 89.6026 247.58C89.6073 247.645 89.5988 247.71 89.5778 247.772C89.5567 247.834 89.5235 247.891 89.48 247.94C89.4314 248.001 89.3687 248.049 89.2973 248.081C89.2258 248.112 89.1478 248.126 89.07 248.12Z" fill="#FAFAFA"/>
<path d="M101.36 264.12C95.1 268.62 80.71 272.51 76.03 264.8C71.68 257.63 74.59 254.5 65.76 255.74C56.93 256.98 54.9 250.12 56.99 244.32C59.08 238.52 50.38 230.13 56.73 223.59C63.08 217.05 66.73 230.65 70.41 232.12C74.09 233.59 76.34 230.42 80.58 232.73C84.82 235.04 85.23 244.49 89.36 244.67C96.12 244.98 107.5 244.93 108.36 250.96C109.22 256.99 101.36 264.12 101.36 264.12Z" fill="#FDC713"/>
<path d="M103.95 261.48H103.9C71.15 258.06 58.48 229.48 57.7 225.32C57.6882 225.254 57.6894 225.187 57.7036 225.122C57.7178 225.057 57.7447 224.995 57.7828 224.94C57.8209 224.885 57.8694 224.839 57.9255 224.803C57.9816 224.767 58.0443 224.742 58.11 224.73C58.1756 224.718 58.243 224.719 58.3082 224.734C58.3734 224.748 58.4351 224.775 58.4899 224.813C58.5447 224.851 58.5914 224.899 58.6275 224.956C58.6635 225.012 58.6882 225.074 58.7 225.14C59.46 229.23 71.87 257.14 104.02 260.49C104.086 260.496 104.15 260.516 104.208 260.547C104.266 260.578 104.318 260.62 104.36 260.671C104.402 260.722 104.433 260.781 104.452 260.845C104.471 260.908 104.477 260.974 104.47 261.04C104.453 261.165 104.39 261.278 104.294 261.36C104.198 261.441 104.076 261.484 103.95 261.48Z" fill="#FAFAFA"/>
<path d="M68.14 248.68C66.0732 248.68 64.0098 248.513 61.97 248.18C61.8403 248.156 61.7254 248.081 61.6505 247.972C61.5755 247.864 61.5466 247.73 61.57 247.6C61.5808 247.535 61.6045 247.473 61.6397 247.418C61.675 247.362 61.721 247.314 61.7752 247.277C61.8293 247.24 61.8904 247.214 61.9547 247.2C62.0191 247.187 62.0855 247.187 62.15 247.2C65.8848 247.815 69.6951 247.815 73.43 247.2C73.5612 247.173 73.6976 247.199 73.8099 247.272C73.9221 247.345 74.0012 247.459 74.03 247.59C74.0431 247.654 74.0435 247.721 74.031 247.785C74.0185 247.85 73.9934 247.911 73.9572 247.966C73.921 248.021 73.8743 248.068 73.8199 248.104C73.7655 248.141 73.7043 248.167 73.64 248.18C71.8287 248.535 69.9856 248.703 68.14 248.68Z" fill="#FAFAFA"/>
<path d="M77.91 251.67H77.8C77.6719 251.641 77.5602 251.563 77.4891 251.453C77.418 251.343 77.3932 251.209 77.42 251.08C78.43 246.627 78.6702 242.034 78.13 237.5C78.1088 237.367 78.1411 237.232 78.2199 237.123C78.2986 237.014 78.4174 236.941 78.55 236.92C78.6826 236.899 78.8182 236.931 78.927 237.01C79.0357 237.089 79.1088 237.207 79.13 237.34C79.7095 242.013 79.4658 246.751 78.41 251.34C78.3735 251.442 78.305 251.529 78.2149 251.588C78.1248 251.648 78.0178 251.676 77.91 251.67Z" fill="#FAFAFA"/>
<path d="M16.62 212.54L32.32 203.48C33.0755 203.1 33.9094 202.902 34.755 202.902C35.6006 202.902 36.4345 203.1 37.19 203.48L39.19 204.63C39.9008 205.091 40.4924 205.714 40.9164 206.447C41.3405 207.181 41.585 208.004 41.63 208.85V226.97C41.5834 227.816 41.3383 228.639 40.9143 229.372C40.4904 230.105 39.8997 230.728 39.19 231.19L23.5 240.25C22.7445 240.63 21.9106 240.828 21.065 240.828C20.2194 240.828 19.3855 240.63 18.63 240.25L16.63 239.1C15.9211 238.638 15.3315 238.015 14.9092 237.281C14.4869 236.548 14.2439 235.725 14.2 234.88V216.76C14.2451 215.916 14.4876 215.095 14.9079 214.362C15.3282 213.629 15.9146 213.005 16.62 212.54Z" fill="#FDC713"/>
<path opacity="0.5" d="M16.62 212.54L32.32 203.48C33.0755 203.1 33.9094 202.902 34.755 202.902C35.6006 202.902 36.4345 203.1 37.19 203.48L39.19 204.63C39.9008 205.091 40.4924 205.714 40.9164 206.447C41.3405 207.181 41.585 208.004 41.63 208.85V226.97C41.5834 227.816 41.3383 228.639 40.9143 229.372C40.4904 230.105 39.8997 230.728 39.19 231.19L23.5 240.25C22.7445 240.63 21.9106 240.828 21.065 240.828C20.2194 240.828 19.3855 240.63 18.63 240.25L16.63 239.1C15.9211 238.638 15.3315 238.015 14.9092 237.281C14.4869 236.548 14.2439 235.725 14.2 234.88V216.76C14.2451 215.916 14.4876 215.095 14.9079 214.362C15.3282 213.629 15.9146 213.005 16.62 212.54Z" fill="#FAFAFA"/>
<path d="M41.61 208.85C41.61 207.29 40.52 206.66 39.17 207.44L23.48 216.5C22.7704 216.962 22.1796 217.585 21.7557 218.318C21.3318 219.052 21.0866 219.874 21.04 220.72V238.84C21.04 240.39 22.13 241.02 23.48 240.25L39.17 231.19C39.8797 230.728 40.4704 230.105 40.8943 229.372C41.3182 228.638 41.5634 227.816 41.61 226.97V208.85Z" fill="#FDC713"/>
<path d="M14.19 234.88C14.2308 235.729 14.4723 236.555 14.8947 237.293C15.3172 238.03 15.9084 238.656 16.62 239.12L18.62 240.27C19.3062 240.615 20.0576 240.81 20.8246 240.842C21.5917 240.875 22.357 240.745 23.07 240.46C21.92 240.9 21.07 240.25 21.07 238.86V220.72C21.0966 219.871 21.3448 219.044 21.79 218.32L14.93 214.32C14.4937 215.047 14.2494 215.873 14.22 216.72L14.19 234.88Z" fill="#FDC713"/>
<path opacity="0.1" d="M14.19 234.88C14.2308 235.729 14.4723 236.555 14.8947 237.293C15.3172 238.03 15.9084 238.656 16.62 239.12L18.62 240.27C19.3062 240.615 20.0576 240.81 20.8246 240.842C21.5917 240.875 22.357 240.745 23.07 240.46C21.92 240.9 21.07 240.25 21.07 238.86V220.72C21.0966 219.871 21.3448 219.044 21.79 218.32L14.93 214.32C14.4937 215.047 14.2494 215.873 14.22 216.72L14.19 234.88Z" fill="black"/>
<path d="M24.68 221.96L38.03 214.23C38.38 214.02 38.67 214.23 38.67 214.6V223.6C38.6585 223.825 38.5947 224.045 38.4836 224.241C38.3725 224.437 38.2172 224.604 38.03 224.73L24.68 232.52C24.32 232.73 24.03 232.52 24.03 232.14V223.14C24.0348 222.905 24.0964 222.676 24.2096 222.47C24.3229 222.264 24.4843 222.09 24.68 221.96Z" fill="#FAFAFA"/>
<path d="M24.03 222.34L32 224.93L38.67 213.85L32.22 225.86L24.03 222.34Z" fill="#E0E0E0"/>
<path d="M16.62 166.81L32.32 157.75C33.0741 157.366 33.9085 157.165 34.755 157.165C35.6015 157.165 36.4359 157.366 37.19 157.75L39.19 158.9C39.8976 159.363 40.4857 159.986 40.9063 160.72C41.3269 161.453 41.568 162.276 41.61 163.12V181.24C41.5651 182.085 41.3205 182.907 40.8963 183.639C40.4722 184.37 39.8806 184.991 39.17 185.45L23.48 194.51C22.7259 194.895 21.8915 195.095 21.045 195.095C20.1985 195.095 19.3641 194.895 18.61 194.51L16.61 193.37C15.9007 192.902 15.3118 192.273 14.8913 191.535C14.4708 190.796 14.2305 189.969 14.19 189.12V171.03C14.2362 170.186 14.4802 169.364 14.9023 168.631C15.3244 167.898 15.9128 167.274 16.62 166.81Z" fill="#FDC713"/>
<path opacity="0.5" d="M16.62 166.81L32.32 157.75C33.0741 157.366 33.9085 157.165 34.755 157.165C35.6015 157.165 36.4359 157.366 37.19 157.75L39.19 158.9C39.8976 159.363 40.4857 159.986 40.9063 160.72C41.3269 161.453 41.568 162.276 41.61 163.12V181.24C41.5651 182.085 41.3205 182.907 40.8963 183.639C40.4722 184.37 39.8806 184.991 39.17 185.45L23.48 194.51C22.7259 194.895 21.8915 195.095 21.045 195.095C20.1985 195.095 19.3641 194.895 18.61 194.51L16.61 193.37C15.9007 192.902 15.3118 192.273 14.8913 191.535C14.4708 190.796 14.2305 189.969 14.19 189.12V171.03C14.2362 170.186 14.4802 169.364 14.9023 168.631C15.3244 167.898 15.9128 167.274 16.62 166.81Z" fill="#FAFAFA"/>
<path d="M41.61 163.12C41.61 161.56 40.52 160.93 39.17 161.71L23.48 170.77C22.7692 171.231 22.1777 171.854 21.7536 172.587C21.3295 173.321 21.085 174.144 21.04 174.99V193.12C21.04 194.67 22.13 195.3 23.48 194.52L39.17 185.46C39.8806 185.001 40.4722 184.38 40.8963 183.649C41.3205 182.917 41.5651 182.095 41.61 181.25V163.12Z" fill="#FDC713"/>
<path d="M14.19 189.12C14.2362 189.965 14.4802 190.787 14.9023 191.52C15.3244 192.253 15.9128 192.876 16.62 193.34L18.62 194.48C19.3046 194.829 20.0559 195.027 20.8234 195.061C21.5909 195.096 22.3569 194.966 23.07 194.68C21.92 195.11 21.07 194.47 21.07 193.08V174.99C21.0966 174.141 21.3448 173.314 21.79 172.59L14.93 168.59C14.4937 169.317 14.2494 170.143 14.22 170.99L14.19 189.12Z" fill="#FDC713"/>
<path opacity="0.1" d="M14.19 189.12C14.2362 189.965 14.4802 190.787 14.9023 191.52C15.3244 192.253 15.9128 192.876 16.62 193.34L18.62 194.48C19.3046 194.829 20.0559 195.027 20.8234 195.061C21.5909 195.096 22.3569 194.966 23.07 194.68C21.92 195.11 21.07 194.47 21.07 193.08V174.99C21.0966 174.141 21.3448 173.314 21.79 172.59L14.93 168.59C14.4937 169.317 14.2494 170.143 14.22 170.99L14.19 189.12Z" fill="black"/>
<path d="M31.17 185.12L29.55 184.94C27.35 184.76 24.73 183.94 24.73 180.75C24.7934 179.592 25.1288 178.465 25.7091 177.461C26.2894 176.457 27.0983 175.603 28.07 174.97C29.51 174.14 30.73 174.48 31.2 175.68C31.6739 173.9 32.7885 172.358 34.33 171.35C36.18 170.29 37.67 171.15 37.67 173.28C37.67 176.36 35.07 180.28 32.88 182.99L31.17 185.12Z" fill="#FAFAFA"/>
<path d="M16.62 121.12L32.32 112.06C33.0741 111.676 33.9085 111.475 34.755 111.475C35.6015 111.475 36.4359 111.676 37.19 112.06L39.19 113.21C39.9006 113.669 40.4922 114.29 40.9163 115.022C41.3405 115.753 41.5851 116.575 41.63 117.42V135.54C41.5858 136.386 41.3416 137.21 40.9175 137.944C40.4934 138.677 39.9013 139.3 39.19 139.76L23.5 148.82C22.7459 149.205 21.9115 149.405 21.065 149.405C20.2185 149.405 19.3841 149.205 18.63 148.82L16.63 147.68C15.9228 147.216 15.3344 146.593 14.9123 145.86C14.4902 145.127 14.2463 144.305 14.2 143.46V125.31C14.2497 124.472 14.4943 123.656 14.9144 122.929C15.3346 122.202 15.9185 121.582 16.62 121.12Z" fill="#FDC713"/>
<path opacity="0.5" d="M16.62 121.12L32.32 112.06C33.0741 111.676 33.9085 111.475 34.755 111.475C35.6015 111.475 36.4359 111.676 37.19 112.06L39.19 113.21C39.9006 113.669 40.4922 114.29 40.9163 115.022C41.3405 115.753 41.5851 116.575 41.63 117.42V135.54C41.5858 136.386 41.3416 137.21 40.9175 137.944C40.4934 138.677 39.9013 139.3 39.19 139.76L23.5 148.82C22.7459 149.205 21.9115 149.405 21.065 149.405C20.2185 149.405 19.3841 149.205 18.63 148.82L16.63 147.68C15.9228 147.216 15.3344 146.593 14.9123 145.86C14.4902 145.127 14.2463 144.305 14.2 143.46V125.31C14.2497 124.472 14.4943 123.656 14.9144 122.929C15.3346 122.202 15.9185 121.582 16.62 121.12Z" fill="#FAFAFA"/>
<path d="M23.48 148.79C22.13 149.57 21.04 148.94 21.04 147.39V129.27C21.0842 128.424 21.3284 127.6 21.7525 126.867C22.1767 126.133 22.7687 125.511 23.48 125.05L39.17 115.99C40.52 115.21 41.61 115.84 41.61 117.39V135.51C41.5658 136.356 41.3216 137.18 40.8975 137.914C40.4733 138.647 39.8813 139.27 39.17 139.73" fill="#FDC713"/>
<path d="M14.19 143.43C14.2362 144.275 14.4802 145.097 14.9023 145.83C15.3244 146.563 15.9128 147.186 16.62 147.65L18.62 148.79C19.3046 149.139 20.0559 149.337 20.8234 149.371C21.5909 149.406 22.3569 149.276 23.07 148.99C21.92 149.42 21.07 148.78 21.07 147.39V129.27C21.0966 128.421 21.3448 127.594 21.79 126.87L14.93 122.87C14.4937 123.597 14.2494 124.423 14.22 125.27L14.19 143.43Z" fill="#FDC713"/>
<path opacity="0.1" d="M14.19 143.43C14.2362 144.275 14.4802 145.097 14.9023 145.83C15.3244 146.563 15.9128 147.186 16.62 147.65L18.62 148.79C19.3046 149.139 20.0559 149.337 20.8234 149.371C21.5909 149.406 22.3569 149.276 23.07 148.99C21.92 149.42 21.07 148.78 21.07 147.39V129.27C21.0966 128.421 21.3448 127.594 21.79 126.87L14.93 122.87C14.4937 123.597 14.2494 124.423 14.22 125.27L14.19 143.43Z" fill="black"/>
<path d="M28.46 132.12C28.46 132.12 30.29 127.9 30.46 127.29C30.5509 126.245 30.5509 125.195 30.46 124.15C30.46 123.75 32.13 122.62 32.67 123.78C33.1895 125.014 33.2879 126.385 32.95 127.68L37.02 125.31C37.88 124.81 38.23 125.51 38.24 126.07C38.2121 126.709 37.9809 127.322 37.58 127.82C37.58 127.82 38.4 127.58 38.4 128.67C38.3756 129.053 38.2746 129.428 38.1028 129.771C37.931 130.115 37.6921 130.421 37.4 130.67C37.4 130.67 37.66 130.87 37.67 131.67C37.5495 132.454 37.1435 133.167 36.53 133.67C36.6652 133.985 36.7267 134.327 36.71 134.67C36.6597 135.149 36.4989 135.609 36.2404 136.015C35.9818 136.421 35.6325 136.762 35.22 137.01L28.55 140.92L28.46 132.12Z" fill="#FAFAFA"/>
<path d="M24.6 144.38L27.53 142.67L27.49 132.47L24.55 134.18L24.6 144.38Z" fill="#FAFAFA"/>
<path d="M8.03001 67.5801L32.09 53.6901C33.2458 53.1033 34.5238 52.7975 35.82 52.7975C37.1162 52.7975 38.3942 53.1033 39.55 53.6901L42.55 55.4401C43.6392 56.1475 44.5457 57.1023 45.1957 58.2267C45.8456 59.3511 46.2206 60.6132 46.29 61.91V89.6901C46.2152 90.9802 45.8377 92.2346 45.1879 93.3517C44.5382 94.4688 43.6345 95.4172 42.55 96.1201L18.55 110.04C17.3924 110.627 16.1128 110.933 14.815 110.933C13.5172 110.933 12.2376 110.627 11.08 110.04L8.08001 108.29C6.99381 107.58 6.09008 106.625 5.44204 105.501C4.794 104.377 4.41988 103.116 4.35001 101.82V74.0401C4.41427 72.7502 4.78079 71.4936 5.42002 70.3714C6.05926 69.2493 6.95329 68.2931 8.03001 67.5801Z" fill="#FDC713"/>
<path opacity="0.1" d="M8.03001 67.5801L32.09 53.6901C33.2458 53.1033 34.5238 52.7975 35.82 52.7975C37.1162 52.7975 38.3942 53.1033 39.55 53.6901L42.55 55.4401C43.6392 56.1475 44.5457 57.1023 45.1957 58.2267C45.8456 59.3511 46.2206 60.6132 46.29 61.91V89.6901C46.2152 90.9802 45.8377 92.2346 45.1879 93.3517C44.5382 94.4688 43.6345 95.4172 42.55 96.1201L18.55 110.04C17.3924 110.627 16.1128 110.933 14.815 110.933C13.5172 110.933 12.2376 110.627 11.08 110.04L8.08001 108.29C6.99381 107.58 6.09008 106.625 5.44204 105.501C4.794 104.377 4.41988 103.116 4.35001 101.82V74.0401C4.41427 72.7502 4.78079 71.4936 5.42002 70.3714C6.05926 69.2493 6.95329 68.2931 8.03001 67.5801Z" fill="black"/>
<path d="M46.33 61.7401C46.33 60.3501 45.65 56.8901 42.08 59.0801C38.51 61.2701 20.97 71.1801 18.55 72.6201C16.8707 73.5414 15.5447 74.994 14.78 76.7501L16.69 78.6701L46.33 61.7401Z" fill="#FDC713"/>
<path opacity="0.2" d="M46.33 61.7401C46.33 60.3501 45.65 56.8901 42.08 59.0801C38.51 61.2701 20.97 71.1801 18.55 72.6201C16.8707 73.5414 15.5447 74.994 14.78 76.7501L16.69 78.6701L46.33 61.7401Z" fill="black"/>
<path d="M18.55 110.04C16.48 111.23 14.81 110.27 14.81 107.89V80.1201C14.8779 78.8215 15.2521 77.5574 15.9021 76.4311C16.5522 75.3049 17.4595 74.3485 18.55 73.6401L42.55 59.7501C44.62 58.5601 46.29 59.5301 46.29 61.9101V89.6901C46.2152 90.9802 45.8377 92.2346 45.1879 93.3517C44.5381 94.4688 43.6345 95.4172 42.55 96.1201" fill="#FDC713"/>
<path opacity="0.1" d="M18.55 110.04C16.48 111.23 14.81 110.27 14.81 107.89V80.1201C14.8779 78.8215 15.2521 77.5574 15.9021 76.4311C16.5522 75.3049 17.4595 74.3485 18.55 73.6401L42.55 59.7501C44.62 58.5601 46.29 59.5301 46.29 61.9101V89.6901C46.2152 90.9802 45.8377 92.2346 45.1879 93.3517C44.5381 94.4688 43.6345 95.4172 42.55 96.1201" fill="black"/>
<path d="M4.30001 101.82C4.36989 103.116 4.744 104.377 5.39204 105.501C6.04008 106.625 6.94381 107.58 8.03001 108.29L11.03 110.04C12.0825 110.57 13.2354 110.871 14.4128 110.923C15.5902 110.975 16.7651 110.776 17.86 110.34C16.1 111.01 14.76 110.02 14.76 107.89V80.1201C14.8055 78.8195 15.1843 77.5524 15.86 76.4401L5.35001 70.3701C4.677 71.483 4.30163 72.7502 4.26001 74.0501L4.30001 101.82Z" fill="#FDC713"/>
<path opacity="0.2" d="M4.30001 101.82C4.36989 103.116 4.744 104.377 5.39204 105.501C6.04008 106.625 6.94381 107.58 8.03001 108.29L11.03 110.04C12.0825 110.57 13.2354 110.871 14.4128 110.923C15.5902 110.975 16.7651 110.776 17.86 110.34C16.1 111.01 14.76 110.02 14.76 107.89V80.1201C14.8055 78.8195 15.1843 77.5524 15.86 76.4401L5.35001 70.3701C4.677 71.483 4.30163 72.7502 4.26001 74.0501L4.30001 101.82Z" fill="black"/>
<path d="M31.29 70.4L34.41 75.9L41.41 73.04C42.07 72.77 42.34 73.55 41.86 74.37L36.81 82.97L38 90.31C38.11 91.01 37.42 91.98 36.83 91.97L30.55 91.78L24.3 99.18C23.71 99.88 23.02 99.7 23.13 98.87L24.34 90.12L19.34 87.35C18.86 87.09 19.13 86 19.79 85.51L26.79 80.31L29.91 71.2C30.14 70.37 30.99 69.88 31.29 70.4Z" fill="#FAFAFA"/>
<path d="M369.55 197.3C357.55 203.01 338.15 203.01 326.17 197.3C314.19 191.59 314.17 182.3 326.17 176.63C338.17 170.96 357.57 170.92 369.55 176.63C381.53 182.34 381.49 191.59 369.55 197.3Z" fill="#E0E0E0"/>
<path d="M96.75 263.59C96.8569 265.044 97.3045 266.453 98.0567 267.702C98.809 268.951 99.8446 270.005 101.08 270.78L222.41 340.78C223.752 341.461 225.235 341.816 226.74 341.816C228.245 341.816 229.728 341.461 231.07 340.78L397.07 244.93C398.378 244.239 399.474 243.205 400.238 241.938C401.001 240.671 401.405 239.219 401.405 237.74C401.405 236.261 401.001 234.809 400.238 233.542C399.474 232.275 398.378 231.241 397.07 230.55L275.75 160.55C274.408 159.869 272.925 159.514 271.42 159.514C269.915 159.514 268.432 159.869 267.09 160.55L101.09 256.4C99.8528 257.173 98.8151 258.227 98.0611 259.477C97.3071 260.726 96.858 262.135 96.75 263.59Z" fill="#37474F"/>
<path d="M146.81 230L101.08 256.4C99.7716 257.091 98.6764 258.125 97.9125 259.392C97.1485 260.659 96.7448 262.111 96.7448 263.59C96.7448 265.069 97.1485 266.521 97.9125 267.788C98.6764 269.055 99.7716 270.089 101.08 270.78L222.41 340.78C223.744 341.477 225.235 341.821 226.74 341.78V230H146.81Z" fill="#263238"/>
<path d="M92.69 256.55C91.4828 255.733 90.4857 254.642 89.7802 253.367C89.0746 252.091 88.6805 250.667 88.63 249.21V104.42C88.7097 102.917 89.1435 101.454 89.896 100.151C90.6485 98.8476 91.6984 97.7405 92.96 96.92L258.96 1.12C260.213 0.334042 261.657 -0.0956413 263.135 -0.122886C264.614 -0.150131 266.073 0.226096 267.354 0.965363C268.635 1.70463 269.69 2.779 270.407 4.07303C271.123 5.36706 271.473 6.83185 271.42 8.31V153.05C271.339 154.553 270.905 156.015 270.153 157.318C269.401 158.622 268.351 159.729 267.09 160.55L101.09 256.4C99.8006 257.085 98.3677 257.455 96.908 257.481C95.4483 257.507 94.003 257.188 92.69 256.55Z" fill="#455A64"/>
<path d="M108.94 111.12L89.94 100.12C89.1638 101.409 88.7301 102.876 88.68 104.38V249.21C88.6278 250.687 88.9784 252.15 89.6944 253.442C90.4103 254.735 91.4646 255.808 92.7441 256.547C94.0236 257.286 95.4801 257.662 96.9574 257.637C98.4347 257.611 99.8772 257.183 101.13 256.4L120.06 245.47L108.94 111.12Z" fill="#263238"/>
<path d="M96.75 109.12V253.9C96.75 256.66 98.69 257.78 101.08 256.4L267.08 160.55C268.341 159.729 269.391 158.622 270.143 157.318C270.895 156.015 271.329 154.553 271.41 153.05V8.27003C271.41 5.51003 269.47 4.39003 267.08 5.77003L101.08 101.61C99.8193 102.434 98.7703 103.543 98.018 104.848C97.2657 106.153 96.8313 107.616 96.75 109.12Z" fill="#37474F"/>
<path d="M101.08 261.4L222.41 331.45C223.752 332.131 225.235 332.486 226.74 332.486C228.245 332.486 229.728 332.131 231.07 331.45L397.07 235.6C399.47 234.22 399.47 231.98 397.07 230.6L275.75 160.55C274.408 159.869 272.925 159.514 271.42 159.514C269.915 159.514 268.432 159.869 267.09 160.55L101.09 256.4C98.69 257.78 98.69 260.02 101.08 261.4Z" fill="#455A64"/>
<path d="M103.41 109.65L264.76 16.5C266.19 15.67 267.36 16.34 267.36 18V143.33C267.31 144.231 267.048 145.108 266.596 145.89C266.145 146.672 265.516 147.336 264.76 147.83L103.41 240.98C101.97 241.81 100.81 241.14 100.81 239.48V114.12C100.863 113.223 101.125 112.352 101.577 111.575C102.029 110.799 102.657 110.139 103.41 109.65Z" fill="#FAFAFA"/>
<path d="M115.16 257.65L269.25 168.65C269.921 168.31 270.663 168.133 271.415 168.133C272.167 168.133 272.909 168.31 273.58 168.65L281.47 173.2C281.731 173.289 281.958 173.457 282.119 173.681C282.279 173.905 282.366 174.174 282.366 174.45C282.366 174.726 282.279 174.995 282.119 175.219C281.958 175.443 281.731 175.611 281.47 175.7L127.35 264.69C126.679 265.03 125.937 265.207 125.185 265.207C124.433 265.207 123.691 265.03 123.02 264.69L115.16 260.12C114.909 260.025 114.693 259.856 114.54 259.636C114.388 259.415 114.306 259.153 114.306 258.885C114.306 258.617 114.388 258.355 114.54 258.134C114.693 257.914 114.909 257.745 115.16 257.65Z" fill="#263238"/>
<path d="M135.47 269.38L289.56 180.38C290.231 180.04 290.973 179.863 291.725 179.863C292.477 179.863 293.219 180.04 293.89 180.38L342.37 208.38C342.631 208.469 342.858 208.637 343.019 208.861C343.179 209.085 343.266 209.354 343.266 209.63C343.266 209.906 343.179 210.175 343.019 210.399C342.858 210.623 342.631 210.791 342.37 210.88L188.46 299.74C187.787 300.08 187.044 300.257 186.29 300.257C185.536 300.257 184.793 300.08 184.12 299.74L135.48 271.86C135.221 271.773 134.995 271.607 134.835 271.385C134.675 271.163 134.589 270.897 134.587 270.624C134.586 270.35 134.671 270.083 134.829 269.86C134.987 269.637 135.211 269.469 135.47 269.38Z" fill="#263238"/>
<path d="M273.6 220.44L278.43 217.65C278.63 217.53 278.62 217.33 278.43 217.21L272.85 213.99C272.731 213.929 272.599 213.897 272.465 213.897C272.331 213.897 272.199 213.929 272.08 213.99L267.26 216.78C267.05 216.89 267.06 217.09 267.26 217.22L272.84 220.44C272.958 220.5 273.088 220.531 273.22 220.531C273.352 220.531 273.482 220.5 273.6 220.44ZM264.08 209.37L259.26 212.12C259.05 212.24 259.06 212.44 259.26 212.57L264.84 215.79C264.96 215.849 265.091 215.88 265.225 215.88C265.358 215.88 265.49 215.849 265.61 215.79L270.44 213C270.64 212.88 270.63 212.68 270.44 212.56L264.86 209.33C264.736 209.275 264.601 209.251 264.465 209.258C264.33 209.264 264.198 209.303 264.08 209.37ZM248.49 218.37L240.33 223.12C240.12 223.24 240.14 223.44 240.33 223.57L245.91 226.79C246.03 226.849 246.161 226.88 246.295 226.88C246.428 226.88 246.56 226.849 246.68 226.79L254.84 222.08C255.04 221.96 255.03 221.76 254.84 221.64L249.26 218.41C249.143 218.345 249.013 218.307 248.88 218.3C248.746 218.293 248.613 218.317 248.49 218.37ZM257.03 213.44L252.2 216.23C252 216.34 252.01 216.54 252.2 216.67L257.78 219.89C257.899 219.951 258.031 219.983 258.165 219.983C258.299 219.983 258.431 219.951 258.55 219.89L263.37 217.1C263.58 216.98 263.57 216.78 263.37 216.66L257.79 213.44C257.672 213.38 257.542 213.349 257.41 213.349C257.278 213.349 257.148 213.38 257.03 213.44ZM238.1 224.37L233.28 227.12C233.07 227.24 233.09 227.44 233.28 227.57L238.86 230.79C238.979 230.851 239.111 230.883 239.245 230.883C239.379 230.883 239.511 230.851 239.63 230.79L244.46 228.01C244.66 227.89 244.65 227.69 244.46 227.57L238.88 224.34C238.757 224.284 238.622 224.257 238.486 224.263C238.351 224.268 238.219 224.305 238.1 224.37ZM231.05 228.44L226.23 231.22C226.02 231.34 226.03 231.54 226.23 231.67L231.81 234.89C231.93 234.949 232.061 234.98 232.195 234.98C232.328 234.98 232.46 234.949 232.58 234.89L237.41 232.1C237.61 231.98 237.6 231.78 237.41 231.66L231.83 228.43C231.708 228.371 231.574 228.341 231.439 228.343C231.303 228.344 231.17 228.378 231.05 228.44ZM253 241.54L257.82 238.75C258.02 238.63 258.01 238.43 257.82 238.31L252.21 235.12C252.091 235.059 251.959 235.027 251.825 235.027C251.691 235.027 251.559 235.059 251.44 235.12L246.62 237.91C246.41 238.02 246.43 238.22 246.62 238.35L252.2 241.57C252.325 241.632 252.464 241.662 252.604 241.656C252.743 241.651 252.88 241.611 253 241.54ZM245.94 245.61L250.77 242.82C250.97 242.7 250.96 242.51 250.77 242.38L245.16 239.12C245.041 239.059 244.909 239.027 244.775 239.027C244.641 239.027 244.509 239.059 244.39 239.12L239.55 241.93C239.34 242.04 239.36 242.24 239.55 242.37L245.13 245.59C245.252 245.661 245.391 245.701 245.532 245.704C245.674 245.708 245.814 245.675 245.94 245.61ZM238.89 249.68L243.72 246.89C243.92 246.78 243.91 246.58 243.72 246.45L238.14 243.23C238.021 243.169 237.889 243.137 237.755 243.137C237.621 243.137 237.489 243.169 237.37 243.23L232.55 246C232.34 246.12 232.35 246.32 232.55 246.44L238.13 249.66C238.246 249.723 238.376 249.757 238.508 249.761C238.64 249.764 238.771 249.737 238.89 249.68ZM231.89 253.75L236.72 250.96C236.92 250.85 236.91 250.65 236.72 250.52L231.14 247.3C231.021 247.239 230.889 247.207 230.755 247.207C230.621 247.207 230.489 247.239 230.37 247.3L225.47 250.12C225.26 250.24 225.27 250.44 225.47 250.56L231.05 253.78C231.174 253.84 231.311 253.869 231.449 253.864C231.586 253.858 231.721 253.819 231.84 253.75H231.89ZM266.55 224.51L271.37 221.72C271.58 221.6 271.57 221.41 271.37 221.28L265.79 218.06C265.671 217.999 265.539 217.967 265.405 217.967C265.271 217.967 265.139 217.999 265.02 218.06L260.2 220.85C259.99 220.97 260 221.16 260.2 221.29L265.78 224.51C265.899 224.571 266.031 224.603 266.165 224.603C266.299 224.603 266.431 224.571 266.55 224.51ZM260.05 237.51L270.81 231.29C271.01 231.17 271 230.97 270.81 230.85L257.26 223.03C257.141 222.969 257.009 222.937 256.875 222.937C256.741 222.937 256.609 222.969 256.49 223.03L250.93 226.24C250.72 226.36 250.73 226.56 250.93 226.69L258.11 230.83C258.33 230.96 258.34 231.16 258.11 231.27L253.66 233.85C253.46 233.96 253.47 234.16 253.66 234.29L259.24 237.51C259.368 237.57 259.509 237.597 259.65 237.59C259.791 237.583 259.928 237.542 260.05 237.47V237.51ZM224 232.51L219.18 235.3C218.97 235.41 218.98 235.61 219.18 235.74L224.76 238.96C224.88 239.019 225.011 239.05 225.145 239.05C225.278 239.05 225.41 239.019 225.53 238.96L230.36 236.17C230.56 236.05 230.55 235.85 230.36 235.73L224.78 232.51C224.66 232.447 224.526 232.414 224.39 232.414C224.254 232.414 224.12 232.447 224 232.51ZM217 236.58L212.17 239.37C211.97 239.49 211.98 239.68 212.17 239.81L217.75 243.03C217.869 243.091 218.001 243.123 218.135 243.123C218.269 243.123 218.401 243.091 218.52 243.03L223.34 240.24C223.55 240.12 223.54 239.92 223.34 239.8L217.76 236.58C217.636 236.512 217.497 236.476 217.355 236.476C217.213 236.476 217.074 236.512 216.95 236.58H217ZM181.76 282.23C181.879 282.291 182.011 282.323 182.145 282.323C182.279 282.323 182.411 282.291 182.53 282.23L187.36 279.44C187.56 279.32 187.55 279.12 187.36 279L181.78 275.78C181.661 275.719 181.529 275.687 181.395 275.687C181.261 275.687 181.129 275.719 181.01 275.78L176.19 278.57C175.98 278.69 175.99 278.88 176.19 279.01L181.76 282.23ZM160.55 269.12L155.72 271.91C155.52 272.02 155.53 272.22 155.72 272.35L161.3 275.57C161.42 275.629 161.551 275.66 161.685 275.66C161.818 275.66 161.95 275.629 162.07 275.57L166.89 272.78C167.1 272.66 167.09 272.46 166.89 272.34L161.31 269.12C161.192 269.06 161.062 269.029 160.93 269.029C160.798 269.029 160.668 269.06 160.55 269.12ZM171.9 278.67C172.019 278.731 172.151 278.763 172.285 278.763C172.419 278.763 172.551 278.731 172.67 278.67L177.49 275.88C177.7 275.76 177.68 275.57 177.49 275.44L171.92 272.22C171.801 272.159 171.669 272.127 171.535 272.127C171.401 272.127 171.269 272.159 171.15 272.22L166.32 275.01C166.12 275.13 166.13 275.32 166.32 275.45L171.9 278.67ZM194.17 284.67L199 281.88C199.2 281.76 199.19 281.56 199 281.44L193.42 278.21C193.3 278.151 193.168 278.12 193.035 278.12C192.901 278.12 192.77 278.151 192.65 278.21L187.83 281C187.62 281.11 187.63 281.31 187.83 281.44L193.41 284.66C193.523 284.726 193.649 284.765 193.779 284.774C193.909 284.782 194.04 284.76 194.16 284.71L194.17 284.67ZM186.35 288.72C186.469 288.781 186.601 288.813 186.735 288.813C186.869 288.813 187.001 288.781 187.12 288.72L191.95 285.93C192.15 285.81 192.14 285.61 191.95 285.49L186.37 282.27C186.251 282.209 186.119 282.177 185.985 282.177C185.851 282.177 185.719 282.209 185.6 282.27L180.74 285.12C180.53 285.23 180.54 285.43 180.74 285.56L186.35 288.72ZM167.55 265.12L162.72 267.9C162.52 268.02 162.53 268.22 162.72 268.35L168.3 271.57C168.42 271.629 168.551 271.66 168.685 271.66C168.818 271.66 168.95 271.629 169.07 271.57L173.89 268.78C174.1 268.66 174.09 268.46 173.89 268.34L168.36 265.12C168.235 265.054 168.096 265.02 167.955 265.02C167.814 265.02 167.675 265.054 167.55 265.12ZM202.85 244.72L198.02 247.51C197.82 247.63 197.83 247.83 198.02 247.95L203.6 251.17C203.719 251.231 203.851 251.263 203.985 251.263C204.119 251.263 204.251 251.231 204.37 251.17L209.19 248.38C209.4 248.27 209.38 248.07 209.19 247.94L203.62 244.72C203.5 244.661 203.368 244.63 203.235 244.63C203.101 244.63 202.97 244.661 202.85 244.72ZM174.64 261.01L169.82 263.79C169.61 263.91 169.62 264.11 169.82 264.24L175.4 267.46C175.52 267.519 175.651 267.55 175.785 267.55C175.918 267.55 176.05 267.519 176.17 267.46L181 264.68C181.2 264.56 181.19 264.36 181 264.23L175.42 261.01C175.299 260.949 175.165 260.918 175.03 260.918C174.895 260.918 174.761 260.949 174.64 261.01ZM209.9 240.65L205.07 243.44C204.87 243.56 204.88 243.75 205.07 243.88L210.65 247.1C210.769 247.161 210.901 247.193 211.035 247.193C211.169 247.193 211.301 247.161 211.42 247.1L216.24 244.31C216.45 244.19 216.44 244 216.24 243.87L210.66 240.65C210.542 240.59 210.412 240.559 210.28 240.559C210.148 240.559 210.018 240.59 209.9 240.65ZM195.79 248.79L190.97 251.58C190.76 251.7 190.78 251.9 190.97 252.02L196.55 255.25C196.67 255.309 196.801 255.34 196.935 255.34C197.068 255.34 197.2 255.309 197.32 255.25L202.14 252.47C202.35 252.35 202.33 252.15 202.14 252.02L196.55 248.81C196.433 248.749 196.304 248.716 196.172 248.713C196.041 248.709 195.91 248.736 195.79 248.79ZM188.74 252.87L183.92 255.65C183.71 255.77 183.73 255.97 183.92 256.09L189.55 259.32C189.668 259.379 189.798 259.41 189.93 259.41C190.062 259.41 190.192 259.379 190.31 259.32L195.14 256.54C195.34 256.42 195.33 256.22 195.14 256.09L189.55 252.88C189.427 252.81 189.288 252.773 189.146 252.771C189.005 252.769 188.865 252.803 188.74 252.87ZM181.69 256.94L176.87 259.72C176.66 259.84 176.68 260.04 176.87 260.17L182.45 263.39C182.57 263.449 182.701 263.48 182.835 263.48C182.968 263.48 183.1 263.449 183.22 263.39L188.05 260.61C188.25 260.49 188.24 260.29 188.05 260.16L182.47 256.94C182.349 256.879 182.215 256.848 182.08 256.848C181.945 256.848 181.811 256.879 181.69 256.94ZM217.74 261.89L222.55 259.12C222.76 259 222.75 258.8 222.55 258.67L216.97 255.45C216.851 255.389 216.719 255.357 216.585 255.357C216.451 255.357 216.319 255.389 216.2 255.45L211.37 258.23C211.17 258.35 211.18 258.55 211.37 258.68L216.95 261.9C217.073 261.961 217.209 261.992 217.346 261.99C217.483 261.988 217.618 261.954 217.74 261.89ZM279.67 200.37L274.84 203.12C274.64 203.23 274.65 203.43 274.84 203.56L280.42 206.78C280.54 206.839 280.671 206.87 280.805 206.87C280.939 206.87 281.07 206.839 281.19 206.78L286.01 203.99C286.22 203.87 286.21 203.67 286.01 203.55L280.43 200.33C280.309 200.276 280.177 200.252 280.045 200.259C279.913 200.266 279.785 200.304 279.67 200.37ZM271.13 205.3L266.31 208.12C266.1 208.24 266.11 208.44 266.31 208.57L271.88 211.79C271.999 211.851 272.131 211.883 272.265 211.883C272.399 211.883 272.531 211.851 272.65 211.79L277.48 209.01C277.68 208.89 277.67 208.69 277.48 208.57L271.9 205.34C271.783 205.275 271.653 205.237 271.52 205.23C271.386 205.223 271.253 205.247 271.13 205.3ZM286.72 196.3L281.89 199.12C281.69 199.24 281.7 199.44 281.89 199.57L287.47 202.79C287.59 202.849 287.721 202.88 287.855 202.88C287.988 202.88 288.12 202.849 288.24 202.79L293.06 200C293.27 199.88 293.26 199.68 293.06 199.56L287.48 196.33C287.364 196.268 287.235 196.233 287.103 196.228C286.972 196.222 286.841 196.247 286.72 196.3ZM250.22 233.94L255.05 231.12C255.25 231 255.24 230.8 255.05 230.68L249.47 227.46C249.351 227.399 249.219 227.367 249.085 227.367C248.951 227.367 248.819 227.399 248.7 227.46L243.87 230.24C243.67 230.36 243.68 230.56 243.87 230.69L249.45 233.91C249.567 233.974 249.698 234.01 249.831 234.015C249.965 234.02 250.098 233.994 250.22 233.94ZM294.55 192.24C294.43 192.181 294.298 192.15 294.165 192.15C294.031 192.15 293.9 192.181 293.78 192.24L288.96 195.02C288.75 195.14 288.76 195.34 288.96 195.47L294.54 198.69C294.659 198.751 294.791 198.783 294.925 198.783C295.059 198.783 295.191 198.751 295.31 198.69L300.14 195.91C300.34 195.79 300.33 195.59 300.14 195.46L294.55 192.24ZM224.79 257.82L229.61 255.04C229.82 254.92 229.81 254.72 229.61 254.59L224.03 251.37C223.91 251.311 223.778 251.28 223.645 251.28C223.511 251.28 223.38 251.311 223.26 251.37L218.41 254.12C218.21 254.24 218.22 254.44 218.41 254.56L223.99 257.79C224.111 257.859 224.247 257.897 224.386 257.902C224.526 257.908 224.664 257.879 224.79 257.82ZM311.26 207.9L316.09 205.11C316.29 204.99 316.28 204.79 316.09 204.67L310.51 201.45C310.391 201.389 310.259 201.357 310.125 201.357C309.991 201.357 309.859 201.389 309.74 201.45L304.91 204.24C304.71 204.35 304.72 204.55 304.91 204.68L310.49 207.9C310.609 207.961 310.741 207.993 310.875 207.993C311.009 207.993 311.141 207.961 311.26 207.9ZM296.26 207.37L301.08 204.58C301.29 204.46 301.28 204.26 301.08 204.14L295.5 200.92C295.381 200.859 295.249 200.827 295.115 200.827C294.981 200.827 294.849 200.859 294.73 200.92L289.9 203.71C289.7 203.82 289.71 204.02 289.9 204.15L295.48 207.37C295.598 207.43 295.728 207.461 295.86 207.461C295.992 207.461 296.122 207.43 296.24 207.37H296.26ZM302.55 196.84C302.43 196.781 302.298 196.75 302.165 196.75C302.031 196.75 301.9 196.781 301.78 196.84L296.96 199.63C296.75 199.74 296.76 199.94 296.96 200.07L302.54 203.29C302.66 203.349 302.791 203.38 302.925 203.38C303.058 203.38 303.19 203.349 303.31 203.29L308.14 200.5C308.34 200.38 308.33 200.18 308.14 200.06L302.55 196.84ZM304.03 195.99L317.55 203.81C317.67 203.869 317.801 203.9 317.935 203.9C318.069 203.9 318.2 203.869 318.32 203.81L323.15 201.02C323.35 200.9 323.34 200.7 323.15 200.58L309.55 192.77C309.43 192.711 309.298 192.68 309.165 192.68C309.031 192.68 308.9 192.711 308.78 192.77L303.96 195.55C303.76 195.66 303.77 195.86 303.99 195.99H304.03ZM287.68 204.99L282.85 207.78C282.65 207.89 282.66 208.09 282.85 208.22L288.43 211.44C288.549 211.501 288.681 211.533 288.815 211.533C288.949 211.533 289.081 211.501 289.2 211.44L294.02 208.65C294.23 208.53 294.22 208.33 294.02 208.21L288.44 204.99C288.319 204.92 288.182 204.882 288.042 204.879C287.903 204.875 287.764 204.907 287.64 204.97L287.68 204.99ZM234.55 235.61L229.72 238.4C229.52 238.52 229.53 238.71 229.72 238.84L235.3 242.06C235.419 242.121 235.551 242.153 235.685 242.153C235.819 242.153 235.951 242.121 236.07 242.06L240.89 239.27C241.1 239.15 241.09 238.96 240.89 238.83L235.31 235.61C235.192 235.55 235.062 235.519 234.93 235.519C234.798 235.519 234.668 235.55 234.55 235.61ZM303.42 211.95C303.539 212.011 303.671 212.043 303.805 212.043C303.939 212.043 304.071 212.011 304.19 211.95L309.01 209.16C309.22 209.04 309.21 208.85 309.01 208.72L303.43 205.5C303.311 205.439 303.179 205.407 303.045 205.407C302.911 205.407 302.779 205.439 302.66 205.5L297.83 208.29C297.63 208.41 297.64 208.6 297.83 208.73L303.42 211.95ZM241.6 231.54L236.77 234.33C236.57 234.44 236.58 234.64 236.77 234.77L242.35 237.99C242.469 238.051 242.601 238.083 242.735 238.083C242.869 238.083 243.001 238.051 243.12 237.99L247.94 235.2C248.15 235.08 248.14 234.88 247.94 234.76L242.36 231.54C242.245 231.483 242.118 231.454 241.99 231.454C241.862 231.454 241.735 231.483 241.62 231.54H241.6ZM188.76 278.12C188.88 278.179 189.011 278.21 189.145 278.21C189.278 278.21 189.41 278.179 189.53 278.12L194.36 275.33C194.56 275.21 194.55 275.01 194.36 274.89L188.78 271.67C188.661 271.609 188.529 271.577 188.395 271.577C188.261 271.577 188.129 271.609 188.01 271.67L183.19 274.46C182.98 274.57 182.99 274.77 183.19 274.9L188.76 278.12ZM178.16 268.12L173.33 270.91C173.13 271.02 173.14 271.22 173.33 271.35L178.91 274.57C179.03 274.629 179.161 274.66 179.295 274.66C179.428 274.66 179.56 274.629 179.68 274.57L184.5 271.78C184.71 271.66 184.7 271.46 184.5 271.34L178.92 268.12C178.798 268.069 178.665 268.048 178.533 268.059C178.401 268.069 178.273 268.111 178.16 268.18V268.12ZM196.55 274.12L201.38 271.33C201.58 271.21 201.57 271.01 201.38 270.89L195.8 267.67C195.681 267.609 195.549 267.577 195.415 267.577C195.281 267.577 195.149 267.609 195.03 267.67L190.21 270.45C190 270.57 190.02 270.77 190.21 270.9L195.79 274.12C195.908 274.179 196.038 274.21 196.17 274.21C196.302 274.21 196.432 274.179 196.55 274.12ZM203.61 270.05L208.43 267.26C208.64 267.14 208.62 266.94 208.43 266.81L202.85 263.59C202.73 263.531 202.598 263.5 202.465 263.5C202.331 263.5 202.2 263.531 202.08 263.59L197.26 266.37C197.06 266.49 197.07 266.69 197.26 266.82L202.84 270.04C202.964 270.104 203.101 270.137 203.24 270.137C203.379 270.137 203.516 270.104 203.64 270.04L203.61 270.05ZM210.61 265.97L215.43 263.19C215.64 263.07 215.62 262.87 215.43 262.74L209.86 259.52C209.74 259.461 209.608 259.43 209.475 259.43C209.341 259.43 209.21 259.461 209.09 259.52L204.26 262.3C204.06 262.42 204.07 262.62 204.26 262.75L209.84 265.97C209.971 266.041 210.117 266.078 210.266 266.076C210.415 266.074 210.561 266.034 210.69 265.96L210.61 265.97ZM185.21 264.12L180.38 266.9C180.18 267.02 180.19 267.22 180.38 267.35L185.96 270.57C186.08 270.629 186.211 270.66 186.345 270.66C186.478 270.66 186.61 270.629 186.73 270.57L191.55 267.78C191.76 267.66 191.75 267.46 191.55 267.34L185.98 264.12C185.86 264.061 185.728 264.03 185.595 264.03C185.461 264.03 185.33 264.061 185.21 264.12ZM192.26 260.05L187.43 262.83C187.23 262.95 187.24 263.15 187.43 263.28L193.01 266.5C193.129 266.561 193.261 266.593 193.395 266.593C193.529 266.593 193.661 266.561 193.78 266.5L198.61 263.72C198.81 263.6 198.8 263.4 198.61 263.27L193.03 260.05C192.911 259.989 192.78 259.957 192.646 259.955C192.513 259.953 192.38 259.982 192.26 260.04V260.05ZM220.47 243.76L215.64 246.55C215.43 246.67 215.45 246.87 215.64 246.99L221.22 250.21C221.339 250.271 221.471 250.303 221.605 250.303C221.739 250.303 221.871 250.271 221.99 250.21L226.81 247.42C227.02 247.31 227 247.11 226.81 246.98L221.23 243.76C221.113 243.699 220.983 243.667 220.851 243.665C220.719 243.664 220.589 243.693 220.47 243.75V243.76ZM213.41 247.84L208.55 250.61C208.34 250.73 208.36 250.93 208.55 251.05L214.12 254.28C214.24 254.339 214.371 254.37 214.505 254.37C214.638 254.37 214.77 254.339 214.89 254.28L219.72 251.5C219.92 251.38 219.91 251.18 219.72 251.05L214.14 247.83C214.026 247.775 213.901 247.747 213.775 247.747C213.649 247.747 213.524 247.775 213.41 247.83V247.84ZM227.55 239.68L222.72 242.47C222.52 242.59 222.53 242.79 222.72 242.91L228.3 246.13C228.419 246.191 228.551 246.223 228.685 246.223C228.819 246.223 228.951 246.191 229.07 246.13L233.89 243.34C234.1 243.23 234.08 243.03 233.89 242.9L228.32 239.68C228.201 239.619 228.069 239.587 227.935 239.587C227.801 239.587 227.669 239.619 227.55 239.68ZM199.34 255.97L194.52 258.75C194.31 258.87 194.32 259.07 194.52 259.2L200.1 262.42C200.22 262.479 200.351 262.51 200.485 262.51C200.618 262.51 200.75 262.479 200.87 262.42L205.7 259.64C205.9 259.52 205.89 259.32 205.7 259.19L200.12 255.97C199.995 255.904 199.856 255.87 199.715 255.87C199.574 255.87 199.435 255.904 199.31 255.97H199.34ZM206.39 251.9L201.55 254.68C201.34 254.8 201.35 255 201.55 255.13L207.13 258.35C207.25 258.409 207.381 258.44 207.515 258.44C207.648 258.44 207.78 258.409 207.9 258.35L212.73 255.57C212.93 255.45 212.92 255.25 212.73 255.12L207.15 251.9C207.028 251.835 206.893 251.801 206.755 251.801C206.617 251.801 206.482 251.835 206.36 251.9H206.39ZM201.24 280.64L206.07 277.85C206.27 277.73 206.26 277.53 206.07 277.41L200.49 274.18C200.37 274.121 200.238 274.09 200.105 274.09C199.971 274.09 199.84 274.121 199.72 274.18L194.9 276.96C194.69 277.08 194.71 277.28 194.9 277.41L200.47 280.63C200.585 280.686 200.711 280.716 200.839 280.718C200.967 280.719 201.093 280.693 201.21 280.64H201.24ZM159.87 276.46L154.29 273.24C154.171 273.179 154.039 273.147 153.905 273.147C153.771 273.147 153.639 273.179 153.52 273.24L148.69 276.03C148.49 276.14 148.5 276.34 148.69 276.47L154.27 279.69C154.389 279.751 154.521 279.783 154.655 279.783C154.789 279.783 154.921 279.751 155.04 279.69L159.86 276.9C160.07 276.78 160.05 276.58 159.84 276.46H159.87ZM170.43 279.56L164.85 276.34C164.731 276.279 164.599 276.247 164.465 276.247C164.331 276.247 164.199 276.279 164.08 276.34L156.66 280.63C156.46 280.75 156.47 280.94 156.66 281.07L162.24 284.29C162.359 284.351 162.491 284.383 162.625 284.383C162.759 284.383 162.891 284.351 163.01 284.29L170.43 280C170.64 279.88 170.62 279.69 170.4 279.56H170.43ZM151.31 270.23L145.73 267.01C145.611 266.949 145.479 266.917 145.345 266.917C145.211 266.917 145.079 266.949 144.96 267.01L139.02 270.44C138.81 270.56 138.83 270.76 139.02 270.89L144.6 274.11C144.72 274.169 144.851 274.2 144.985 274.2C145.118 274.2 145.25 274.169 145.37 274.11L151.3 270.68C151.55 270.56 151.55 270.36 151.28 270.23H151.31ZM155.86 267.6C155.979 267.661 156.111 267.693 156.245 267.693C156.379 267.693 156.511 267.661 156.63 267.6L161.45 264.81C161.66 264.69 161.65 264.5 161.45 264.37L155.87 261.15C155.751 261.089 155.619 261.057 155.485 261.057C155.351 261.057 155.219 261.089 155.1 261.15L150.27 263.94C150.07 264.06 150.08 264.25 150.27 264.38L155.86 267.6ZM180.23 283.12L174.65 279.9C174.531 279.839 174.399 279.807 174.265 279.807C174.131 279.807 173.999 279.839 173.88 279.9L164.6 285.26C164.4 285.38 164.41 285.58 164.6 285.7L170.18 288.92C170.299 288.981 170.431 289.013 170.565 289.013C170.699 289.013 170.831 288.981 170.95 288.92L180.23 283.56C180.46 283.41 180.45 283.22 180.23 283.12ZM184.86 289.65L179.28 286.43C179.161 286.369 179.029 286.337 178.895 286.337C178.761 286.337 178.629 286.369 178.51 286.43L172.55 289.81C172.35 289.93 172.36 290.13 172.55 290.25L178.13 293.48C178.25 293.539 178.381 293.57 178.515 293.57C178.648 293.57 178.78 293.539 178.9 293.48L184.84 290.05C185.09 289.94 185.08 289.75 184.86 289.62V289.65ZM208.26 237.36C208.377 237.421 208.508 237.453 208.64 237.453C208.772 237.453 208.903 237.421 209.02 237.36L213.85 234.57C214.05 234.46 214.04 234.26 213.85 234.13L208.27 230.91C208.151 230.849 208.019 230.817 207.885 230.817C207.751 230.817 207.619 230.849 207.5 230.91L202.68 233.7C202.47 233.82 202.49 234.02 202.68 234.14L208.26 237.36ZM194.15 245.51C194.27 245.569 194.401 245.6 194.535 245.6C194.668 245.6 194.8 245.569 194.92 245.51L199.75 242.72C199.95 242.61 199.94 242.41 199.75 242.28L194.17 239.06C194.05 239.001 193.918 238.97 193.785 238.97C193.651 238.97 193.52 239.001 193.4 239.06L188.55 241.81C188.34 241.93 188.35 242.13 188.55 242.25L194.15 245.51ZM162.88 263.56C163 263.619 163.131 263.65 163.265 263.65C163.398 263.65 163.53 263.619 163.65 263.56L168.47 260.77C168.68 260.65 168.67 260.45 168.47 260.33L162.87 257.12C162.751 257.059 162.619 257.027 162.485 257.027C162.351 257.027 162.219 257.059 162.1 257.12L157.27 259.91C157.07 260.02 157.08 260.22 157.27 260.35L162.88 263.56ZM201.2 241.43C201.319 241.491 201.451 241.523 201.585 241.523C201.719 241.523 201.851 241.491 201.97 241.43L206.8 238.64C207 238.53 206.99 238.33 206.8 238.2L201.22 234.98C201.101 234.919 200.969 234.887 200.835 234.887C200.701 234.887 200.569 234.919 200.45 234.98L195.63 237.77C195.42 237.89 195.44 238.09 195.63 238.21L201.2 241.43ZM187.1 249.58C187.22 249.639 187.351 249.67 187.485 249.67C187.618 249.67 187.75 249.639 187.87 249.58L192.7 246.8C192.9 246.68 192.89 246.48 192.7 246.35L187.09 243.12C186.971 243.059 186.839 243.027 186.705 243.027C186.571 243.027 186.439 243.059 186.32 243.12L181.55 245.88C181.34 246 181.35 246.2 181.55 246.33L187.1 249.58ZM188.73 290.12C188.611 290.059 188.479 290.027 188.345 290.027C188.211 290.027 188.079 290.059 187.96 290.12L180.55 294.41C180.35 294.53 180.36 294.73 180.55 294.86L186.15 298.12C186.27 298.179 186.401 298.21 186.535 298.21C186.668 298.21 186.8 298.179 186.92 298.12L194.34 293.84C194.54 293.72 194.53 293.52 194.34 293.39L188.73 290.12ZM176.98 255.37C177.099 255.431 177.231 255.463 177.365 255.463C177.499 255.463 177.631 255.431 177.75 255.37L182.55 252.62C182.75 252.5 182.74 252.3 182.55 252.17L176.97 248.95C176.85 248.891 176.718 248.86 176.585 248.86C176.451 248.86 176.32 248.891 176.2 248.95L171.38 251.73C171.17 251.85 171.18 252.05 171.38 252.18L176.98 255.37ZM169.93 259.44C170.05 259.499 170.181 259.53 170.315 259.53C170.448 259.53 170.58 259.499 170.7 259.44L175.53 256.65C175.73 256.53 175.72 256.33 175.53 256.21L169.95 252.99C169.831 252.929 169.699 252.897 169.565 252.897C169.431 252.897 169.299 252.929 169.18 252.99L164.35 255.77C164.15 255.89 164.16 256.09 164.35 256.22L169.93 259.44ZM319.37 214.72C319.25 214.661 319.118 214.63 318.985 214.63C318.851 214.63 318.72 214.661 318.6 214.72L306.72 221.58C306.52 221.7 306.53 221.9 306.72 222.02L312.3 225.25C312.42 225.309 312.551 225.34 312.685 225.34C312.819 225.34 312.95 225.309 313.07 225.25L324.94 218.39C325.15 218.28 325.14 218.08 324.94 217.95L319.37 214.72ZM303.78 223.72C303.661 223.659 303.529 223.627 303.395 223.627C303.261 223.627 303.129 223.659 303.01 223.72L298.19 226.51C297.98 226.63 297.99 226.83 298.19 226.95L303.77 230.17C303.889 230.231 304.021 230.263 304.155 230.263C304.289 230.263 304.421 230.231 304.54 230.17L309.37 227.38C309.57 227.27 309.56 227.07 309.37 226.94L303.78 223.72ZM208.27 276.56L213.09 273.78C213.29 273.66 213.28 273.46 213.09 273.33L207.48 270.12C207.36 270.061 207.228 270.03 207.095 270.03C206.961 270.03 206.83 270.061 206.71 270.12L201.89 272.9C201.68 273.02 201.7 273.22 201.89 273.35L207.47 276.57C207.594 276.635 207.732 276.668 207.871 276.666C208.011 276.665 208.148 276.628 208.27 276.56ZM289.68 231.86C289.561 231.799 289.429 231.767 289.295 231.767C289.161 231.767 289.029 231.799 288.91 231.86L284.08 234.64C283.88 234.76 283.89 234.96 284.08 235.09L289.66 238.31C289.78 238.369 289.911 238.4 290.045 238.4C290.178 238.4 290.31 238.369 290.43 238.31L295.25 235.53C295.46 235.41 295.45 235.21 295.25 235.08L289.68 231.86ZM326.42 210.65C326.301 210.589 326.169 210.557 326.035 210.557C325.901 210.557 325.769 210.589 325.65 210.65L320.82 213.44C320.62 213.56 320.63 213.76 320.82 213.88L326.4 217.1C326.519 217.161 326.651 217.193 326.785 217.193C326.919 217.193 327.051 217.161 327.17 217.1L331.99 214.31C332.2 214.2 332.19 214 331.99 213.87L326.42 210.65ZM339.05 209.8L325.55 201.98C325.431 201.919 325.299 201.887 325.165 201.887C325.031 201.887 324.899 201.919 324.78 201.98L319.96 204.77C319.75 204.88 319.76 205.08 319.96 205.21L333.51 213.03C333.629 213.091 333.761 213.123 333.895 213.123C334.029 213.123 334.161 213.091 334.28 213.03L339.11 210.24C339.28 210.12 339.27 209.93 339.05 209.8ZM263.33 247.12C263.21 247.061 263.078 247.03 262.945 247.03C262.811 247.03 262.68 247.061 262.56 247.12L256.62 250.55C256.42 250.66 256.43 250.86 256.62 250.99L262.2 254.21C262.319 254.271 262.451 254.303 262.585 254.303C262.719 254.303 262.851 254.271 262.97 254.21L268.9 250.78C269.11 250.66 269.1 250.46 268.9 250.33L263.33 247.12ZM281.14 236.84C281.02 236.781 280.888 236.75 280.755 236.75C280.621 236.75 280.49 236.781 280.37 236.84L272.95 241.13C272.75 241.25 272.76 241.45 272.95 241.57L278.55 244.72C278.669 244.781 278.801 244.813 278.935 244.813C279.069 244.813 279.201 244.781 279.32 244.72L286.74 240.43C286.94 240.32 286.93 240.12 286.74 239.99L281.14 236.84ZM247 256.55C246.881 256.489 246.749 256.457 246.615 256.457C246.481 256.457 246.349 256.489 246.23 256.55L206.55 279.41C206.34 279.53 206.36 279.73 206.55 279.86L212.13 283.08C212.25 283.139 212.381 283.17 212.515 283.17C212.648 283.17 212.78 283.139 212.9 283.08L252.6 260.16C252.81 260.04 252.8 259.84 252.6 259.71L247 256.55ZM205.06 280.76C204.94 280.701 204.808 280.67 204.675 280.67C204.541 280.67 204.41 280.701 204.29 280.76L198.35 284.12C198.15 284.24 198.16 284.43 198.35 284.56L203.93 287.78C204.049 287.841 204.181 287.873 204.315 287.873C204.449 287.873 204.581 287.841 204.7 287.78L210.64 284.35C210.84 284.23 210.83 284.03 210.64 283.91L205.06 280.76ZM255.16 251.84C255.041 251.779 254.909 251.747 254.775 251.747C254.641 251.747 254.509 251.779 254.39 251.84L248.46 255.27C248.25 255.39 248.26 255.59 248.46 255.72L254.04 258.94C254.16 258.999 254.291 259.03 254.425 259.03C254.558 259.03 254.69 258.999 254.81 258.94L260.75 255.51C260.95 255.39 260.94 255.2 260.75 255.07L255.16 251.84ZM196.9 285.48C196.781 285.419 196.649 285.387 196.515 285.387C196.381 285.387 196.249 285.419 196.13 285.48L190.19 288.91C189.98 289.03 190 289.23 190.19 289.36L195.77 292.58C195.89 292.639 196.021 292.67 196.155 292.67C196.288 292.67 196.42 292.639 196.54 292.58L202.55 289.12C202.76 289 202.75 288.81 202.55 288.68L196.9 285.48ZM271.49 242.41C271.37 242.351 271.238 242.32 271.105 242.32C270.971 242.32 270.84 242.351 270.72 242.41L264.78 245.84C264.58 245.96 264.59 246.16 264.78 246.29L270.36 249.51C270.479 249.571 270.611 249.603 270.745 249.603C270.879 249.603 271.011 249.571 271.13 249.51L277.07 246.09C277.27 245.97 277.26 245.77 277.07 245.64L271.49 242.41ZM296.73 227.84C296.61 227.781 296.479 227.75 296.345 227.75C296.211 227.75 296.08 227.781 295.96 227.84L291.13 230.63C290.93 230.75 290.94 230.95 291.13 231.07L296.71 234.3C296.83 234.359 296.961 234.39 297.095 234.39C297.229 234.39 297.36 234.359 297.48 234.3L302.31 231.52C302.51 231.4 302.5 231.2 302.31 231.07L296.73 227.84ZM312.18 216.62L317 213.83C317.21 213.71 317.2 213.52 317 213.39L311.4 210.12C311.281 210.059 311.149 210.027 311.015 210.027C310.881 210.027 310.749 210.059 310.63 210.12L305.8 212.91C305.6 213.03 305.61 213.23 305.8 213.35L311.38 216.57C311.503 216.637 311.64 216.671 311.78 216.671C311.92 216.671 312.057 216.637 312.18 216.57V216.62ZM280.65 216.42L285.48 213.63C285.68 213.51 285.67 213.31 285.48 213.19L279.9 209.97C279.781 209.909 279.649 209.877 279.515 209.877C279.381 209.877 279.249 209.909 279.13 209.97L274.31 212.76C274.1 212.87 274.11 213.07 274.31 213.2L279.89 216.42C280.012 216.47 280.144 216.491 280.276 216.483C280.407 216.474 280.535 216.435 280.65 216.37V216.42ZM264.65 244.05L278.75 235.9C278.95 235.79 278.94 235.59 278.75 235.46L273.17 232.24C273.051 232.179 272.919 232.147 272.785 232.147C272.651 232.147 272.519 232.179 272.4 232.24L258.3 240.38C258.09 240.5 258.11 240.7 258.3 240.83L263.88 244.05C264.008 244.106 264.147 244.131 264.286 244.123C264.425 244.114 264.56 244.072 264.68 244L264.65 244.05ZM304.33 220.67C304.449 220.731 304.581 220.763 304.715 220.763C304.849 220.763 304.981 220.731 305.1 220.67L309.92 217.89C310.13 217.77 310.11 217.57 309.92 217.44L304.34 214.22C304.22 214.161 304.088 214.13 303.955 214.13C303.821 214.13 303.69 214.161 303.57 214.22L298.74 217.01C298.54 217.13 298.55 217.33 298.74 217.45L304.33 220.67ZM297.13 216.09L301.95 213.3C302.16 213.19 302.15 212.99 301.95 212.86L296.37 209.64C296.251 209.579 296.119 209.547 295.985 209.547C295.851 209.547 295.719 209.579 295.6 209.64L290.77 212.43C290.57 212.55 290.58 212.75 290.77 212.87L296.35 216.09C296.478 216.151 296.62 216.178 296.761 216.169C296.903 216.161 297.04 216.116 297.16 216.04L297.13 216.09ZM257.59 248.09L262.42 245.3C262.62 245.18 262.61 244.98 262.42 244.86L256.84 241.64C256.721 241.579 256.589 241.547 256.455 241.547C256.321 241.547 256.189 241.579 256.07 241.64L251.25 244.43C251.04 244.54 251.06 244.74 251.25 244.87L256.82 248.09C256.941 248.159 257.077 248.197 257.216 248.202C257.356 248.208 257.494 248.179 257.62 248.12L257.59 248.09ZM288.74 229.64C288.859 229.701 288.991 229.733 289.125 229.733C289.259 229.733 289.391 229.701 289.51 229.64L294.34 226.85C294.54 226.74 294.53 226.54 294.34 226.41L288.76 223.19C288.641 223.129 288.509 223.097 288.375 223.097C288.241 223.097 288.109 223.129 287.99 223.19L283.17 225.98C282.96 226.1 282.97 226.3 283.17 226.42L288.74 229.64ZM222.34 268.44L227.16 265.66C227.37 265.54 227.35 265.34 227.16 265.21L221.55 261.97C221.43 261.911 221.298 261.88 221.165 261.88C221.031 261.88 220.9 261.911 220.78 261.97L215.95 264.76C215.75 264.88 215.76 265.08 215.95 265.21L221.53 268.43C221.659 268.499 221.804 268.535 221.951 268.533C222.098 268.531 222.242 268.492 222.37 268.42L222.34 268.44ZM229.39 264.37L234.21 261.59C234.42 261.47 234.41 261.27 234.21 261.14L228.63 257.92C228.51 257.861 228.378 257.83 228.245 257.83C228.111 257.83 227.98 257.861 227.86 257.92L223.03 260.71C222.83 260.83 222.84 261.03 223.03 261.15L228.61 264.37C228.736 264.435 228.876 264.468 229.018 264.464C229.159 264.461 229.298 264.421 229.42 264.35L229.39 264.37ZM215.29 272.51L220.11 269.73C220.32 269.61 220.3 269.41 220.11 269.28L214.55 266.04C214.431 265.979 214.299 265.947 214.165 265.947C214.031 265.947 213.899 265.979 213.78 266.04L208.95 268.82C208.75 268.94 208.76 269.14 208.95 269.27L214.53 272.49C214.652 272.552 214.788 272.585 214.925 272.585C215.062 272.585 215.198 272.552 215.32 272.49L215.29 272.51ZM243.55 256.21L248.38 253.42C248.58 253.3 248.57 253.11 248.38 252.98L242.8 249.76C242.681 249.699 242.549 249.667 242.415 249.667C242.281 249.667 242.149 249.699 242.03 249.76L237.21 252.55C237 252.67 237.01 252.86 237.21 252.99L242.79 256.21C242.908 256.27 243.038 256.301 243.17 256.301C243.302 256.301 243.432 256.27 243.55 256.21ZM236.5 260.28L241.33 257.49C241.53 257.38 241.52 257.18 241.33 257.05L235.75 253.83C235.631 253.769 235.499 253.737 235.365 253.737C235.231 253.737 235.099 253.769 234.98 253.83L230.15 256.62C229.95 256.74 229.96 256.94 230.15 257.06L235.73 260.28C235.845 260.336 235.972 260.366 236.1 260.366C236.228 260.366 236.355 260.336 236.47 260.28H236.5ZM250.55 252.12L255.38 249.33C255.58 249.21 255.57 249.02 255.38 248.89L249.8 245.67C249.681 245.609 249.549 245.577 249.415 245.577C249.281 245.577 249.149 245.609 249.03 245.67L244.21 248.46C244 248.58 244.02 248.77 244.21 248.9L249.79 252.12C249.908 252.18 250.038 252.211 250.17 252.211C250.302 252.211 250.432 252.18 250.55 252.12ZM282.81 191.89C282.929 191.951 283.061 191.983 283.195 191.983C283.329 191.983 283.461 191.951 283.58 191.89L288.41 189.1C288.61 188.98 288.6 188.79 288.41 188.66L286.92 187.8C286.801 187.739 286.669 187.707 286.535 187.707C286.401 187.707 286.269 187.739 286.15 187.8L281.33 190.58C281.13 190.7 281.14 190.9 281.33 191.03L282.81 191.89ZM248.12 214.29C248.24 214.349 248.371 214.38 248.505 214.38C248.638 214.38 248.77 214.349 248.89 214.29L253.71 211.51C253.92 211.39 253.91 211.19 253.71 211.06L248.13 207.84C248.011 207.779 247.879 207.747 247.745 207.747C247.611 207.747 247.479 207.779 247.36 207.84L242.55 210.64C242.35 210.76 242.36 210.96 242.55 211.09L248.12 214.29ZM262.22 206.14C262.339 206.201 262.471 206.233 262.605 206.233C262.739 206.233 262.871 206.201 262.99 206.14L267.82 203.36C268.02 203.24 268.01 203.04 267.82 202.91L262.24 199.69C262.12 199.631 261.988 199.6 261.855 199.6C261.721 199.6 261.59 199.631 261.47 199.69L256.64 202.48C256.44 202.6 256.45 202.8 256.64 202.92L262.22 206.14ZM239.55 219.28C239.669 219.341 239.801 219.373 239.935 219.373C240.069 219.373 240.201 219.341 240.32 219.28L245.14 216.5C245.35 216.38 245.34 216.18 245.14 216.05L239.55 212.84C239.43 212.781 239.298 212.75 239.165 212.75C239.031 212.75 238.9 212.781 238.78 212.84L233.95 215.62C233.75 215.74 233.76 215.94 233.95 216.07L239.55 219.28ZM255.21 210.28C255.33 210.339 255.461 210.37 255.595 210.37C255.729 210.37 255.86 210.339 255.98 210.28L260.8 207.5C261.01 207.38 261 207.18 260.8 207.05L255.22 203.83C255.101 203.769 254.969 203.737 254.835 203.737C254.701 203.737 254.569 203.769 254.45 203.83L249.55 206.57C249.35 206.69 249.36 206.89 249.55 207.01L255.21 210.28ZM225.43 227.42C225.55 227.479 225.681 227.51 225.815 227.51C225.949 227.51 226.08 227.479 226.2 227.42L231.02 224.63C231.22 224.51 231.21 224.31 231.02 224.19L225.44 220.97C225.321 220.909 225.189 220.877 225.055 220.877C224.921 220.877 224.789 220.909 224.67 220.97L219.85 223.75C219.64 223.87 219.66 224.07 219.85 224.2L225.43 227.42ZM232.48 223.35C232.599 223.411 232.731 223.443 232.865 223.443C232.999 223.443 233.131 223.411 233.25 223.35L238.07 220.57C238.28 220.45 238.26 220.25 238.07 220.12L232.5 216.9C232.38 216.841 232.248 216.81 232.115 216.81C231.981 216.81 231.85 216.841 231.73 216.9L226.9 219.68C226.7 219.8 226.71 220 226.9 220.13L232.48 223.35ZM268.73 200.05C268.849 200.111 268.981 200.143 269.115 200.143C269.249 200.143 269.381 200.111 269.5 200.05L274.32 197.27C274.53 197.15 274.52 196.95 274.32 196.82L272.83 195.96C272.71 195.901 272.578 195.87 272.445 195.87C272.311 195.87 272.18 195.901 272.06 195.96L267.24 198.74C267.03 198.86 267.04 199.06 267.24 199.19L268.73 200.05ZM289.88 187.84C289.999 187.901 290.131 187.933 290.265 187.933C290.399 187.933 290.531 187.901 290.65 187.84L295.48 185.05C295.68 184.93 295.67 184.73 295.48 184.61L294 183.75C293.88 183.691 293.749 183.66 293.615 183.66C293.481 183.66 293.35 183.691 293.23 183.75L288.4 186.54C288.2 186.66 288.21 186.86 288.4 186.98L289.88 187.84ZM301.6 194.61C301.72 194.669 301.851 194.7 301.985 194.7C302.118 194.7 302.25 194.669 302.37 194.61L307.2 191.83C307.4 191.71 307.39 191.51 307.2 191.38L301.55 188.17C301.43 188.111 301.298 188.08 301.165 188.08C301.031 188.08 300.9 188.111 300.78 188.17L295.96 190.95C295.75 191.07 295.76 191.27 295.96 191.4L301.6 194.61ZM319.23 212.5L324.05 209.71C324.26 209.59 324.25 209.4 324.05 209.27L318.47 206.05C318.351 205.989 318.219 205.957 318.085 205.957C317.951 205.957 317.819 205.989 317.7 206.05L312.87 208.84C312.67 208.96 312.68 209.15 312.87 209.28L318.45 212.5C318.57 212.563 318.704 212.596 318.84 212.596C318.976 212.596 319.11 212.563 319.23 212.5ZM275.78 195.98C275.899 196.041 276.031 196.073 276.165 196.073C276.299 196.073 276.431 196.041 276.55 195.98L281.38 193.19C281.58 193.08 281.57 192.88 281.38 192.75L279.89 191.89C279.77 191.831 279.638 191.8 279.505 191.8C279.371 191.8 279.24 191.831 279.12 191.89L274.3 194.67C274.09 194.79 274.11 194.99 274.3 195.12L275.78 195.98ZM218.37 231.49C218.49 231.549 218.621 231.58 218.755 231.58C218.888 231.58 219.02 231.549 219.14 231.49L223.97 228.7C224.17 228.58 224.16 228.38 223.97 228.26L218.39 225.04C218.271 224.979 218.139 224.947 218.005 224.947C217.871 224.947 217.739 224.979 217.62 225.04L212.8 227.83C212.59 227.94 212.61 228.14 212.8 228.27L218.37 231.49Z" fill="#E0E0E0"/>
<path d="M247.04 275.32L299.85 244.83L332.35 263.59L279.54 294.08L247.04 275.32Z" fill="#263238"/>
<path d="M140.97 94.51L298.32 3.65995C301.4 1.87995 303.92 3.33995 303.92 6.88995V128.77C303.867 129.671 303.605 130.547 303.153 131.328C302.702 132.109 302.074 132.774 301.32 133.27L139.97 226.42C138.54 227.24 137.37 226.57 137.37 224.92V100.74C137.442 99.4925 137.805 98.2793 138.43 97.1974C139.055 96.1155 139.925 95.1951 140.97 94.51Z" fill="#F5F5F5"/>
<path d="M303.92 9.80997V6.88996C303.92 3.33996 301.4 1.88996 298.32 3.65996L140.97 94.51C139.925 95.1951 139.055 96.1155 138.43 97.1974C137.805 98.2793 137.442 99.4925 137.37 100.74V105.97L303.92 9.80997Z" fill="#263238"/>
<path d="M280.45 16.46C279.895 16.8307 279.435 17.3256 279.105 17.9054C278.775 18.4852 278.585 19.1339 278.55 19.8C278.55 21.03 279.42 21.53 280.48 20.91C281.043 20.5477 281.511 20.0568 281.847 19.4778C282.182 18.8988 282.375 18.2483 282.41 17.58C282.38 16.35 281.55 15.85 280.45 16.46Z" fill="#E0E0E0"/>
<path d="M288.1 12.0499C287.537 12.4144 287.069 12.9071 286.733 13.4877C286.398 14.0684 286.205 14.7203 286.17 15.3899C286.17 16.6199 287.03 17.1099 288.1 16.4999C288.666 16.1298 289.137 15.6303 289.473 15.0426C289.808 14.455 289.999 13.796 290.03 13.1199C290.03 11.9299 289.16 11.4299 288.1 12.0499Z" fill="#E0E0E0"/>
<path d="M295.75 7.62991C295.188 7.99554 294.721 8.48858 294.385 9.06894C294.05 9.6493 293.856 10.3006 293.82 10.9699C293.82 12.1999 294.68 12.6999 295.75 12.0799C296.31 11.7153 296.775 11.2237 297.109 10.645C297.443 10.0663 297.635 9.41697 297.67 8.74991C297.67 7.51991 296.81 7.01991 295.75 7.62991Z" fill="#E0E0E0"/>
<path d="M137.37 105.97V129.42L303.91 33.2699V9.80994L137.37 105.97Z" fill="#FDC713"/>
<path opacity="0.1" d="M137.37 105.97V129.42L303.91 33.2699V9.80994L137.37 105.97Z" fill="black"/>
<path d="M148.28 117.2C147.72 117.374 147.125 117.405 146.55 117.29V105.8C146.545 105.582 146.594 105.366 146.69 105.17C146.809 104.982 146.974 104.827 147.17 104.72L148.03 104.23C148.25 104.1 148.41 104.06 148.51 104.12C148.61 104.18 148.66 104.33 148.66 104.58V108.36C148.979 107.865 149.362 107.414 149.8 107.02C150.265 106.598 150.774 106.229 151.32 105.92C152.58 105.19 153.55 105.02 154.24 105.43C154.93 105.84 155.24 106.77 155.24 108.21C155.257 109.826 154.843 111.417 154.04 112.82C153.185 114.266 151.959 115.457 150.49 116.27C149.8 116.681 149.056 116.994 148.28 117.2ZM152.46 112.51C152.93 111.582 153.161 110.55 153.13 109.51C153.13 108.51 152.95 107.91 152.6 107.66C152.25 107.41 151.66 107.51 150.83 107.99C150.238 108.338 149.724 108.804 149.32 109.36C148.905 109.877 148.673 110.517 148.66 111.18V115.12C148.924 115.148 149.192 115.114 149.44 115.02C149.787 114.907 150.122 114.759 150.44 114.58C151.296 114.096 151.997 113.378 152.46 112.51Z" fill="#FAFAFA"/>
<path d="M157.05 112.03C156.95 111.96 156.9 111.82 156.9 111.58V99.8199C156.894 99.6004 156.946 99.3831 157.05 99.1899C157.164 98.9971 157.33 98.8409 157.53 98.7399L158.42 98.2299C158.64 98.0999 158.8 98.0699 158.9 98.1199C159 98.1699 159.05 98.3299 159.05 98.5799V110.34C159.06 110.552 159.011 110.763 158.91 110.95C158.793 111.146 158.623 111.305 158.42 111.41L157.53 111.92C157.3 112.05 157.14 112.12 157.05 112.03Z" fill="#FAFAFA"/>
<path d="M161.88 108.37C161.09 107.94 160.7 106.97 160.7 105.44C160.696 103.926 161.104 102.44 161.88 101.14C162.696 99.7728 163.859 98.6449 165.25 97.87C166.7 97.03 167.83 96.87 168.62 97.25C169.41 97.63 169.81 98.65 169.81 100.18C169.816 101.695 169.404 103.183 168.62 104.48C167.804 105.85 166.642 106.982 165.25 107.76C163.79 108.6 162.67 108.8 161.88 108.37ZM167.06 104.09C167.487 103.262 167.7 102.341 167.68 101.41C167.68 100.41 167.47 99.76 167.06 99.47C166.65 99.18 166.06 99.27 165.25 99.73C164.487 100.159 163.86 100.793 163.44 101.56C163.007 102.379 162.791 103.294 162.81 104.22C162.81 105.233 163.02 105.9 163.44 106.22C163.86 106.52 164.44 106.44 165.25 105.99C166.019 105.551 166.646 104.903 167.06 104.12V104.09Z" fill="#FAFAFA"/>
<path d="M173.84 105.59C173.393 105.772 172.912 105.857 172.43 105.84C172.25 105.84 172.21 105.71 172.3 105.49L172.78 104.26C172.818 104.141 172.887 104.034 172.98 103.95C173.036 103.935 173.094 103.935 173.15 103.95C174.008 103.884 174.835 103.599 175.55 103.12C176.228 102.751 176.797 102.209 177.2 101.55C177.578 100.808 177.757 99.9814 177.72 99.15C177.424 99.6983 177.054 100.203 176.62 100.65C176.169 101.104 175.657 101.495 175.1 101.81C173.85 102.53 172.87 102.7 172.17 102.32C171.47 101.94 171.12 101.02 171.12 99.59C171.107 98.0119 171.54 96.4623 172.37 95.12C173.272 93.7003 174.517 92.5309 175.99 91.72C176.658 91.3234 177.378 91.0237 178.13 90.83C178.681 90.6662 179.262 90.6286 179.83 90.72V97.37C179.846 98.8499 179.503 100.312 178.83 101.63C178.121 102.951 177.044 104.038 175.73 104.76C175.125 105.091 174.493 105.369 173.84 105.59ZM177.13 98.19C177.512 97.6221 177.717 96.9541 177.72 96.27V92.82C177.441 92.8429 177.168 92.9105 176.91 93.02C176.564 93.1552 176.229 93.3191 175.91 93.51C175.073 93.9543 174.38 94.6273 173.91 95.4506C173.441 96.2738 173.216 97.2134 173.26 98.16C173.26 99.16 173.45 99.72 173.84 99.97C174.23 100.22 174.84 100.1 175.62 99.65C176.232 99.2905 176.75 98.7899 177.13 98.19Z" fill="#FAFAFA"/>
<path d="M165.8 123.38V205.81C165.8 206.36 166.09 206.64 166.44 206.43C166.643 206.26 166.805 206.047 166.916 205.807C167.027 205.566 167.083 205.305 167.08 205.04V122.61C167.08 122.06 166.79 121.79 166.44 122C166.236 122.167 166.073 122.378 165.962 122.617C165.851 122.856 165.796 123.117 165.8 123.38Z" fill="#FDC713"/>
<path d="M117.06 155.36L153.35 134.36C154.55 133.67 155.52 134.23 155.52 135.61V161.14C155.479 161.892 155.261 162.623 154.884 163.275C154.507 163.927 153.981 164.48 153.35 164.89L117.06 185.84C115.87 186.53 114.9 185.97 114.9 184.59V159.12C114.94 158.368 115.156 157.635 115.531 156.982C115.906 156.329 116.43 155.773 117.06 155.36Z" fill="#E0E0E0"/>
<path d="M155.55 135.65C155.55 134.27 154.55 133.71 153.38 134.4L117.09 155.4C116.461 155.812 115.939 156.366 115.563 157.018C115.188 157.669 114.971 158.399 114.93 159.15V161.32L155.55 137.83V135.65Z" fill="#FDC713"/>
<path d="M118.95 163.63L135.2 154.25V170.67L118.95 180.05V163.63Z" fill="#FAFAFA"/>
<path d="M118.96 177.66L125.05 166.84C125.098 166.731 125.174 166.636 125.27 166.565C125.366 166.495 125.479 166.451 125.598 166.438C125.716 166.424 125.836 166.443 125.945 166.49C126.054 166.538 126.149 166.614 126.22 166.71L128.35 169.05L132.02 160.58C132.24 160.07 132.67 160.02 133.02 160.48L135.24 163.63V170.63L118.99 180.01L118.96 177.66Z" fill="#FDC713"/>
<path d="M139.27 153.32C139.27 154.1 139.85 154.4 140.57 153.98L150.15 148.45C150.521 148.215 150.832 147.896 151.058 147.52C151.284 147.143 151.418 146.718 151.45 146.28C151.45 145.5 150.87 145.2 150.16 145.62L140.55 151.12C140.177 151.358 139.866 151.682 139.643 152.065C139.421 152.448 139.293 152.878 139.27 153.32Z" fill="#FAFAFA"/>
<path d="M139.27 160.12C139.27 160.9 139.85 161.2 140.57 160.79L150.15 155.25C150.522 155.016 150.834 154.698 151.06 154.321C151.286 153.944 151.42 153.518 151.45 153.08C151.45 152.3 150.87 152.01 150.16 152.42L140.55 157.9C140.176 158.142 139.865 158.469 139.642 158.855C139.42 159.241 139.292 159.675 139.27 160.12Z" fill="#FAFAFA"/>
<path d="M139.27 166.82C139.27 167.61 139.85 167.9 140.57 167.49L150.15 161.95C150.522 161.718 150.834 161.402 151.06 161.026C151.286 160.651 151.42 160.227 151.45 159.79C151.45 159.01 150.87 158.71 150.16 159.12L140.55 164.66C140.182 164.894 139.874 165.211 139.651 165.587C139.429 165.962 139.298 166.385 139.27 166.82Z" fill="#FAFAFA"/>
<path d="M117.06 194.88L153.35 173.93C154.55 173.24 155.52 173.8 155.52 175.18V200.71C155.479 201.462 155.261 202.193 154.884 202.845C154.507 203.497 153.981 204.05 153.35 204.46L117.06 225.46C115.87 226.15 114.9 225.59 114.9 224.21V198.63C114.941 197.879 115.158 197.149 115.533 196.498C115.909 195.846 116.431 195.292 117.06 194.88Z" fill="#E0E0E0"/>
<path d="M155.55 175.18C155.55 173.8 154.55 173.24 153.38 173.93L117.09 194.88C116.461 195.292 115.939 195.846 115.563 196.498C115.188 197.149 114.971 197.879 114.93 198.63V200.81L155.55 177.35V175.18Z" fill="#FDC713"/>
<path d="M118.95 203.15L135.2 193.77V210.19L118.95 219.57V203.15Z" fill="#FAFAFA"/>
<path d="M118.96 217.19L125.05 206.37C125.098 206.261 125.174 206.166 125.27 206.095C125.366 206.025 125.479 205.981 125.598 205.967C125.716 205.954 125.836 205.973 125.945 206.02C126.054 206.068 126.149 206.144 126.22 206.24L128.35 208.57L132.02 200.1C132.24 199.59 132.67 199.55 133.02 200L135.24 203.15V210.15L118.99 219.53L118.96 217.19Z" fill="#FDC713"/>
<path d="M139.27 192.84C139.27 193.62 139.85 193.92 140.57 193.51L150.15 187.97C150.522 187.738 150.834 187.422 151.06 187.046C151.286 186.671 151.42 186.247 151.45 185.81C151.45 185.02 150.87 184.73 150.16 185.14L140.55 190.68C140.182 190.914 139.874 191.231 139.651 191.607C139.429 191.982 139.298 192.405 139.27 192.84Z" fill="#FAFAFA"/>
<path d="M139.27 199.59C139.27 200.38 139.85 200.67 140.57 200.26L150.15 194.72C150.522 194.488 150.834 194.172 151.06 193.796C151.286 193.421 151.42 192.997 151.45 192.56C151.45 191.78 150.87 191.48 150.16 191.89L140.55 197.43C140.182 197.664 139.874 197.981 139.651 198.357C139.429 198.732 139.298 199.155 139.27 199.59Z" fill="#FAFAFA"/>
<path d="M139.27 206.35C139.27 207.13 139.85 207.43 140.57 207.01L150.15 201.48C150.521 201.245 150.832 200.926 151.058 200.549C151.284 200.173 151.418 199.748 151.45 199.31C151.45 198.53 150.87 198.23 150.16 198.65L140.55 204.18C140.183 204.417 139.875 204.737 139.653 205.113C139.431 205.49 139.3 205.914 139.27 206.35Z" fill="#FAFAFA"/>
<path d="M180.16 156.31L291.73 91.8999C292.92 91.2099 293.89 91.7699 293.89 93.1499V125.68C293.849 126.43 293.632 127.161 293.257 127.812C292.881 128.463 292.358 129.018 291.73 129.43L180.16 193.84C178.96 194.53 177.99 193.97 177.99 192.59V160.06C178.031 159.308 178.249 158.577 178.626 157.925C179.003 157.273 179.529 156.72 180.16 156.31Z" fill="#E0E0E0"/>
<path d="M293.89 93.12C293.89 91.74 292.89 91.18 291.73 91.87L180.16 156.31C179.529 156.72 179.003 157.273 178.626 157.925C178.249 158.577 178.031 159.308 177.99 160.06V162.23L293.89 95.32V93.12Z" fill="#FDC713"/>
<path d="M205.55 149.55L183.01 162.55C182.508 162.881 182.09 163.324 181.79 163.845C181.489 164.366 181.315 164.95 181.28 165.55V187.83C181.28 188.93 182.06 189.38 183.01 188.83L205.55 175.83C206.053 175.5 206.471 175.056 206.771 174.535C207.072 174.014 207.246 173.43 207.28 172.83V150.55C207.24 149.45 206.46 149 205.55 149.55Z" fill="#FAFAFA"/>
<path d="M189.19 169.12L181.24 186.12V187.88C181.24 188.98 182.02 189.43 182.97 188.88L205.51 175.88C206.013 175.55 206.431 175.106 206.731 174.585C207.032 174.064 207.206 173.48 207.24 172.88V165.12L202.98 157.12C202.46 156.12 201.69 156.17 201.26 157.19L194.55 172.94L191.29 168.88C191.181 168.68 191.016 168.518 190.814 168.413C190.613 168.308 190.385 168.266 190.159 168.292C189.933 168.318 189.721 168.41 189.548 168.558C189.375 168.705 189.251 168.901 189.19 169.12Z" fill="#FDC713"/>
<path d="M183.85 168.92C184.983 168.181 185.925 167.186 186.601 166.015C187.277 164.844 187.667 163.53 187.74 162.18C187.768 161.467 187.561 160.764 187.15 160.18L182.97 162.59C182.468 162.921 182.05 163.364 181.75 163.885C181.449 164.406 181.275 164.99 181.24 165.59V169.3C181.673 169.452 182.137 169.497 182.592 169.431C183.046 169.365 183.478 169.19 183.85 168.92Z" fill="#FDC713"/>
<path d="M217.42 144.65L287.08 104.44C288.08 103.88 288.81 104.26 288.81 105.28C288.764 105.856 288.584 106.413 288.283 106.906C287.983 107.399 287.571 107.815 287.08 108.12L217.42 148.34C216.42 148.89 215.69 148.51 215.69 147.49C215.736 146.914 215.916 146.357 216.217 145.864C216.517 145.371 216.929 144.955 217.42 144.65Z" fill="#FAFAFA"/>
<path d="M217.42 154.03L287.08 113.82C288.08 113.26 288.81 113.64 288.81 114.66C288.764 115.236 288.584 115.793 288.283 116.286C287.983 116.779 287.571 117.195 287.08 117.5L217.42 157.72C216.42 158.27 215.69 157.89 215.69 156.87C215.737 156.294 215.918 155.738 216.218 155.245C216.518 154.751 216.93 154.335 217.42 154.03Z" fill="#FAFAFA"/>
<path d="M217.42 163.41L287.08 123.2C288.08 122.64 288.81 123.02 288.81 124.04C288.763 124.617 288.582 125.175 288.282 125.67C287.982 126.164 287.57 126.582 287.08 126.89L217.42 167.12C216.42 167.67 215.69 167.29 215.69 166.27C215.734 165.691 215.913 165.13 216.214 164.633C216.514 164.137 216.927 163.717 217.42 163.41Z" fill="#FAFAFA"/>
<path d="M331.39 53.43L321.17 53.12C320.48 52.54 309.74 40.42 309.74 40.42C309.74 40.42 305.88 46.51 305.81 46.9C305.74 47.29 316.34 58.62 317.39 59.76C317.684 60.143 318.063 60.4532 318.497 60.6665C318.93 60.8798 319.407 60.9905 319.89 60.99C322.66 61.15 333.03 61.88 333.03 61.88L331.39 53.43Z" fill="#F28F8F"/>
<path d="M345.92 65.1801L330.16 64.0101L331.38 53.4301L347.65 53.7901L345.92 65.1801Z" fill="#FDC713"/>
<path opacity="0.2" d="M345.92 65.1801L330.16 64.0101L331.38 53.4301L347.65 53.7901L345.92 65.1801Z" fill="black"/>
<path d="M200.47 99.9799L312.04 35.5699C313.23 34.8799 314.2 35.4399 314.2 36.8199V69.36C314.158 70.1103 313.941 70.8404 313.566 71.4916C313.19 72.1428 312.668 72.6971 312.04 73.11L200.47 137.52C199.27 138.21 198.3 137.65 198.3 136.27V103.73C198.341 102.978 198.559 102.247 198.936 101.595C199.313 100.943 199.839 100.39 200.47 99.9799Z" fill="#E0E0E0"/>
<path d="M314.2 36.8199C314.2 35.4399 313.2 34.8799 312.04 35.5699L200.47 99.9799C199.839 100.39 199.313 100.943 198.936 101.595C198.559 102.247 198.341 102.978 198.3 103.73V105.9L314.2 38.99V36.8199Z" fill="#FDC713"/>
<path d="M225.82 93.2301L203.28 106.23C202.776 106.559 202.357 107.002 202.057 107.523C201.756 108.045 201.582 108.629 201.55 109.23V131.5C201.55 132.6 202.33 133.05 203.28 132.5L225.82 119.5C226.324 119.171 226.743 118.728 227.043 118.207C227.344 117.686 227.518 117.101 227.55 116.5V94.2301C227.55 93.1201 226.77 92.6801 225.82 93.2301Z" fill="#FAFAFA"/>
<path d="M209.55 112.8L201.55 129.75V131.51C201.55 132.61 202.33 133.06 203.28 132.51L225.82 119.51C226.324 119.181 226.743 118.738 227.043 118.217C227.344 117.695 227.518 117.111 227.55 116.51V108.82L223.29 100.82C222.77 99.82 222 99.88 221.57 100.89L214.86 116.67L211.6 112.6C211.487 112.418 211.325 112.272 211.133 112.178C210.941 112.083 210.726 112.044 210.513 112.065C210.3 112.086 210.097 112.165 209.927 112.295C209.757 112.425 209.626 112.6 209.55 112.8Z" fill="#FDC713"/>
<path d="M204.16 112.6C205.292 111.859 206.234 110.861 206.91 109.689C207.586 108.516 207.976 107.201 208.05 105.85C208.077 105.137 207.87 104.434 207.46 103.85L203.28 106.27C202.776 106.599 202.357 107.042 202.057 107.563C201.756 108.084 201.582 108.669 201.55 109.27V112.97C201.983 113.124 202.446 113.171 202.901 113.106C203.355 113.042 203.787 112.868 204.16 112.6Z" fill="#FDC713"/>
<path d="M237.73 88.3201L307.39 48.1201C308.39 47.5701 309.12 47.9401 309.12 48.9601C309.074 49.5371 308.894 50.0955 308.593 50.5903C308.293 51.0852 307.881 51.5029 307.39 51.8101L237.73 92.0201C236.78 92.5701 236 92.2001 236 91.1801C236.045 90.6014 236.225 90.0414 236.526 89.5448C236.826 89.0482 237.238 88.6288 237.73 88.3201Z" fill="#FAFAFA"/>
<path d="M237.73 97.7L307.39 57.49C308.39 56.94 309.12 57.32 309.12 58.33C309.074 58.9071 308.894 59.4654 308.593 59.9603C308.293 60.4551 307.881 60.8729 307.39 61.18L237.73 101.39C236.78 101.95 236 101.57 236 100.55C236.047 99.9731 236.228 99.4151 236.528 98.9203C236.828 98.4256 237.24 98.0077 237.73 97.7Z" fill="#FAFAFA"/>
<path d="M237.73 107.12L307.39 66.91C308.39 66.36 309.12 66.74 309.12 67.75C309.074 68.3271 308.894 68.8854 308.593 69.3803C308.293 69.8752 307.881 70.2929 307.39 70.6L237.73 110.81C236.78 111.37 236 110.99 236 109.97C236.047 109.393 236.228 108.835 236.528 108.34C236.828 107.846 237.24 107.428 237.73 107.12Z" fill="#FAFAFA"/>
<path d="M366.04 177.04H360.14V185.64H366.04V177.04Z" fill="#FFA8A7"/>
<path d="M345.289 166.376L339.393 166.579L339.688 175.174L345.585 174.971L345.289 166.376Z" fill="#FFA8A7"/>
<path d="M365.66 93.12C365.66 98.76 366.39 135.23 366.39 135.23C366.53 136.85 368.05 139.84 367.72 146.08C367.28 154.54 366.54 178.08 366.54 178.08C366.54 178.08 363.78 180.83 359.87 178.08C359.87 178.08 354.52 146.13 353.46 137.75C352.54 130.43 350.97 110.54 350.97 110.54L345.55 133.9C345.55 133.9 346.55 139.4 346.73 143.29C346.91 147.18 345.73 169.6 345.73 169.6C344.775 170.2 343.68 170.539 342.553 170.583C341.427 170.627 340.308 170.374 339.31 169.85C339.31 169.85 334.55 137.12 333.9 133.56C333.25 130 338.05 93.12 338.05 93.12H365.66Z" fill="#455A64"/>
<path d="M356.78 54.05H356.86C359.386 54.6964 361.624 56.1682 363.219 58.2317C364.813 60.2953 365.672 62.8323 365.66 65.44V93.12C361.52 97.62 347.09 99.72 338.05 93.12V64.32C338.05 59.72 340.6 54.19 347.66 53.78L356.78 54.05Z" fill="#FDC713"/>
<path d="M358.76 30.51C359.236 30.4546 359.719 30.5086 360.171 30.6681C360.624 30.8275 361.034 31.0881 361.37 31.43C362.49 32.57 362.25 34.69 361.37 39.55L357.91 39.95L358.76 30.51Z" fill="#263238"/>
<path d="M338.62 29.12C337.874 29.1231 337.136 28.9734 336.45 28.68C335.39 28.07 335.12 29.27 335.7 30.32C336.082 31.0702 336.651 31.7096 337.351 32.1771C338.052 32.6446 338.86 32.9245 339.7 32.99C339.7 32.84 340.7 30.29 340.7 30.29L338.62 29.12Z" fill="#263238"/>
<path d="M357.14 39.95C357.66 40.26 358.39 39.27 359.02 38.61C359.27 38.3264 359.587 38.1109 359.943 37.9837C360.299 37.8564 360.681 37.8217 361.054 37.8827C361.427 37.9436 361.778 38.0984 362.075 38.3323C362.371 38.5662 362.604 38.8717 362.75 39.22C363.8 41.43 361.42 44.37 360.02 45.34C359.628 45.6803 359.138 45.8878 358.621 45.9327C358.103 45.9776 357.585 45.8577 357.14 45.59L356.78 54.05C356.161 55.407 355.215 56.589 354.026 57.4897C352.838 58.3904 351.444 58.9815 349.97 59.21C344.97 59.89 346.03 55.79 347.66 53.78V50.71C346.418 50.9741 345.142 51.0382 343.88 50.9C343.23 50.73 341.69 48.9 340.69 46.77C339.57 44.42 337.69 40.25 339.36 33.2C341.15 25.63 349.28 25.4 354.13 28.45C358.98 31.5 357.14 39.95 357.14 39.95Z" fill="#FFA8A7"/>
<path d="M357.14 40.82C357.4 40.82 358.38 39.19 359.02 38.61C359.91 37.81 358.76 30.51 358.76 30.51C358.76 30.51 359.66 27.75 357.91 25.91C356.16 24.07 352.77 24.39 350.29 24.3C347.246 24.3184 344.231 23.7126 341.43 22.52C337.92 20.99 337.65 20.81 337.22 22.36C336.79 23.91 336.61 27.44 338.72 29.82L340.46 30.46C340.46 30.46 341.41 31.3 344.69 31.7C347.719 31.9285 350.763 31.8683 353.78 31.52C354.73 31.39 354.94 32.32 355.45 34.84C355.9 37.05 356.28 40.8 357.14 40.82Z" fill="#263238"/>
<path d="M358.76 31.12L361.86 29.46C361.761 29.2506 361.621 29.0634 361.448 28.9099C361.274 28.7563 361.072 28.6395 360.852 28.5666C360.632 28.4936 360.4 28.4661 360.169 28.4856C359.939 28.5051 359.714 28.5712 359.51 28.68C359.095 28.9125 358.786 29.2956 358.647 29.7499C358.507 30.2042 358.548 30.6948 358.76 31.12Z" fill="#263238"/>
<path d="M347.67 50.71C349.789 50.3054 351.868 49.7096 353.88 48.93C354.821 48.4315 355.593 47.6661 356.1 46.73C355.858 47.669 355.429 48.5497 354.84 49.32C353.66 50.82 347.67 51.93 347.67 51.93V50.71Z" fill="#F28F8F"/>
<path d="M348.77 38.8C348.784 38.9807 348.85 39.1535 348.96 39.2972C349.071 39.4408 349.221 39.549 349.392 39.6085C349.564 39.6679 349.748 39.6761 349.924 39.6318C350.1 39.5876 350.259 39.493 350.382 39.3596C350.504 39.2262 350.586 39.0598 350.615 38.881C350.644 38.7021 350.621 38.5185 350.547 38.3529C350.474 38.1872 350.354 38.0465 350.201 37.9483C350.049 37.8501 349.871 37.7985 349.69 37.8C349.563 37.8038 349.439 37.8328 349.324 37.8855C349.209 37.9381 349.105 38.0132 349.019 38.1063C348.934 38.1995 348.868 38.3088 348.825 38.4279C348.782 38.5471 348.763 38.6735 348.77 38.8Z" fill="#263238"/>
<path d="M349.75 35.3199L351.75 36.4099C351.891 36.1395 351.922 35.825 351.836 35.5323C351.75 35.2396 351.555 34.9915 351.29 34.8399C351.159 34.7631 351.013 34.7144 350.863 34.6971C350.712 34.6797 350.559 34.6941 350.414 34.7393C350.269 34.7845 350.135 34.8595 350.021 34.9595C349.906 35.0595 349.814 35.1823 349.75 35.3199Z" fill="#263238"/>
<path d="M348.84 45.05L346.74 45.84C346.785 45.982 346.858 46.1133 346.955 46.2261C347.052 46.3389 347.171 46.4308 347.305 46.4962C347.439 46.5617 347.584 46.5993 347.733 46.6068C347.882 46.6144 348.03 46.5916 348.17 46.54C348.452 46.4261 348.68 46.2074 348.805 45.9297C348.929 45.6521 348.942 45.3369 348.84 45.05Z" fill="#F28F8F"/>
<path d="M340.55 36.1199L342.35 34.7299C342.266 34.6088 342.157 34.5062 342.032 34.4281C341.907 34.35 341.767 34.2982 341.621 34.2757C341.475 34.2533 341.327 34.2607 341.184 34.2975C341.041 34.3343 340.907 34.3998 340.79 34.4899C340.549 34.6797 340.391 34.9542 340.346 35.2572C340.301 35.5603 340.374 35.8689 340.55 36.1199Z" fill="#263238"/>
<path d="M341.11 38.54C341.099 38.6674 341.114 38.7957 341.156 38.9167C341.197 39.0377 341.263 39.1488 341.349 39.2429C341.436 39.337 341.541 39.412 341.658 39.4632C341.776 39.5143 341.902 39.5405 342.03 39.54C342.23 39.5561 342.431 39.5114 342.606 39.4117C342.78 39.3121 342.921 39.1621 343.009 38.9814C343.097 38.8007 343.129 38.5976 343.099 38.3986C343.07 38.1997 342.982 38.0141 342.846 37.8662C342.71 37.7182 342.532 37.6147 342.336 37.5692C342.141 37.5237 341.936 37.5382 341.748 37.611C341.561 37.6837 341.4 37.8113 341.286 37.977C341.172 38.1428 341.111 38.339 341.11 38.54Z" fill="#263238"/>
<path d="M345.8 37.67L345.5 43.21L342.6 42.23L345.8 37.67Z" fill="#F28F8F"/>
<path d="M360.15 182.72V181.88C359.58 182.12 358.27 187.13 355.93 189.27C354.06 190.97 351.52 192.93 350.88 194.82C350.24 196.71 354.42 197.88 356.16 197.57C358.16 197.21 361.68 195.79 362.56 194.47C363.44 193.15 363.85 191.2 364.56 190.24C365.27 189.28 366.92 188.19 367.31 187.07C367.426 186.024 367.31 184.966 366.97 183.97C366.7 182.97 366.4 181.78 366.04 181.88V182.52C365.202 183.185 364.159 183.538 363.09 183.52C362.24 183.55 360.14 183.38 360.15 182.72Z" fill="#263238"/>
<path d="M339.62 173.37C339.31 173.37 339.06 173.81 338.38 174.55C337.371 175.571 336.198 176.416 334.91 177.05C332.7 178.15 328.4 179.85 326.46 180.73C325.24 181.28 325.3 182.73 326.55 183.58C327.8 184.43 330.84 185.02 334.49 184.2C336.49 183.76 339.05 181.93 340.69 182.03C342.33 182.13 345.38 182.1 346.59 181.27C347.8 180.44 347.31 178.66 346.97 177.14C346.6 175.47 346.06 172.92 345.51 173.04V173.56C344.8 174.63 341.19 175.07 339.63 174.28L339.62 173.37Z" fill="#263238"/>
<path d="M358.55 57.89L340.31 76.75C340.31 76.75 324.31 73.89 318.85 72.32C317.13 71.83 315.93 69.26 315.55 67.32C315.452 66.3099 314.96 65.379 314.18 64.73C314.18 64.73 314.18 66.14 313.82 68.45C313.68 69.45 312.1 69.58 310.69 69.89C305.69 70.97 303.99 69.89 301.92 71.33C300.32 72.47 302.33 75.43 305.98 76.43C311.11 77.84 313.98 77.14 317.06 77.91C319.47 78.51 336.81 83.91 340.11 84.67C341.85 85.05 343.18 84.93 345.11 83.06C347.04 81.19 361.4 68.63 361.4 68.63L358.55 57.89Z" fill="#FFA8A7"/>
<path d="M359.36 57.2399C357.36 56.7299 345.16 71.2399 345.16 71.2399L351.88 76.8799C351.88 76.8799 360.58 71.1799 362.12 68.8799C363.66 66.5799 365.41 58.7499 359.36 57.2399Z" fill="#FDC713"/>
<path d="M352.32 77.26C352.32 77.26 361.5 69.04 361.93 68.14C362.76 66.41 362.53 63.21 362.53 63.21C362.53 63.21 363.53 65.99 362.53 68.14C361.53 70.29 354.53 76.4 353.42 77.45L352.29 78.51L351.2 77.51L351.85 76.94L352.32 77.26Z" fill="#FDC713"/>
<path opacity="0.2" d="M352.32 77.26C352.32 77.26 361.5 69.04 361.93 68.14C362.76 66.41 362.53 63.21 362.53 63.21C362.53 63.21 363.53 65.99 362.53 68.14C361.53 70.29 354.53 76.4 353.42 77.45L352.29 78.51L351.2 77.51L351.85 76.94L352.32 77.26Z" fill="black"/>
<path d="M306.2 36.56C308.2 36.34 309.53 34.86 309.98 35.27C310.162 35.4643 310.269 35.7176 310.28 35.9838C310.291 36.2501 310.206 36.5113 310.04 36.72C309.117 37.4211 308.109 38.0024 307.04 38.45C306.789 39.4664 306.609 40.4988 306.5 41.54C306.33 43.07 306.39 46.13 305.08 47.17C301.17 50.31 300.17 45.33 300.32 41.99C300.55 37.84 304.11 36.79 306.2 36.56Z" fill="#F28F8F"/>
</g>
<defs>
<clipPath id="clip0_239_1002">
<rect width="429.09" height="356.25" fill="white"/>
</clipPath>
</defs>
</svg>
