<svg width="750" height="500" viewBox="0 0 750 500" fill="none" xmlns="http://www.w3.org/2000/svg">
<path d="M225.78 141.09H99.14V54.45H225.78V141.09ZM100.14 140.09H224.78V55.45H100.14V140.09Z" fill="#EBEBEB"/>
<path d="M109.05 60C109.05 60.4984 108.902 60.9856 108.625 61.4C108.348 61.8144 107.955 62.1374 107.494 62.3282C107.034 62.5189 106.527 62.5688 106.038 62.4716C105.55 62.3743 105.101 62.1343 104.748 61.7819C104.396 61.4295 104.156 60.9804 104.058 60.4916C103.961 60.0028 104.011 59.4961 104.202 59.0356C104.393 58.5751 104.716 58.1816 105.13 57.9047C105.544 57.6278 106.032 57.48 106.53 57.48C107.198 57.48 107.839 57.7455 108.312 58.2181C108.785 58.6907 109.05 59.3316 109.05 60Z" fill="#A6A6A6"/>
<path d="M119.34 60C119.34 60.4984 119.192 60.9856 118.915 61.4C118.638 61.8144 118.245 62.1374 117.784 62.3282C117.324 62.5189 116.817 62.5688 116.328 62.4716C115.84 62.3743 115.391 62.1343 115.038 61.7819C114.686 61.4295 114.446 60.9804 114.348 60.4916C114.251 60.0028 114.301 59.4961 114.492 59.0356C114.683 58.5751 115.006 58.1816 115.42 57.9047C115.834 57.6278 116.322 57.48 116.82 57.48C117.488 57.48 118.129 57.7455 118.602 58.2181C119.074 58.6907 119.34 59.3316 119.34 60Z" fill="#EBEBEB"/>
<path d="M129.63 60C129.63 60.4984 129.482 60.9856 129.205 61.4C128.928 61.8144 128.535 62.1374 128.074 62.3282C127.614 62.5189 127.107 62.5688 126.618 62.4716C126.13 62.3743 125.68 62.1343 125.328 61.7819C124.976 61.4295 124.736 60.9804 124.638 60.4916C124.541 60.0028 124.591 59.4961 124.782 59.0356C124.973 58.5751 125.296 58.1816 125.71 57.9047C126.124 57.6278 126.612 57.48 127.11 57.48C127.778 57.48 128.419 57.7455 128.892 58.2181C129.364 58.6907 129.63 59.3316 129.63 60Z" fill="#FDC713"/>
<path d="M225.28 64.47H99.64V65.47H225.28V64.47Z" fill="#EBEBEB"/>
<path d="M682.37 294.22L669.25 294.5L662.59 294.61C660.36 294.66 658.12 294.61 655.89 294.67H655.45V294.22L655.39 283V282.5H655.89L669.13 282.56C673.55 282.56 677.96 282.67 682.37 282.72H682.65V283C682.65 284.9 682.57 286.79 682.52 288.66L682.37 294.22ZM682.37 294.22L682.23 288.57C682.18 286.71 682.12 284.87 682.1 283.03L682.37 283.31C677.96 283.36 673.55 283.47 669.13 283.47L655.89 283.53L656.39 283.03V294.22L655.94 293.78C658.12 293.78 660.3 293.78 662.49 293.83L669 294L682.37 294.22Z" fill="#EBEBEB"/>
<path d="M667.6 308.33L654.48 308.61L647.81 308.72C645.59 308.72 643.35 308.72 641.12 308.78H640.68V308.33V297.14V296.64H641.18L654.42 296.71C658.83 296.71 663.25 296.82 667.66 296.87H667.94V297.14C667.94 299.04 667.86 300.93 667.81 302.8L667.6 308.33ZM667.6 308.33L667.46 302.68C667.41 300.82 667.35 298.98 667.33 297.14L667.6 297.42C663.19 297.47 658.77 297.58 654.36 297.58L641.12 297.64L641.62 297.14V308.33L641.17 307.89C643.35 307.89 645.53 307.89 647.72 307.94L654.29 308.06L667.6 308.33Z" fill="#EBEBEB"/>
<path d="M697.14 308.33L684.02 308.61L677.36 308.72C675.13 308.72 672.89 308.72 670.66 308.78H670.22V308.33L670.16 297.14V296.64H670.66L683.9 296.71C688.32 296.71 692.73 296.82 697.14 296.87H697.42V297.14C697.42 299.04 697.33 300.93 697.29 302.8L697.14 308.33ZM697.14 308.33L697 302.68C697 300.82 696.89 298.98 696.87 297.14L697.14 297.42C692.73 297.47 688.32 297.58 683.9 297.58L670.66 297.64L671.16 297.14V308.33L670.71 307.89C672.9 307.89 675.07 307.89 677.26 307.94L683.84 308.06L697.14 308.33Z" fill="#EBEBEB"/>
<path d="M324.79 161.07L311.67 161.35L305.01 161.46C302.78 161.46 300.54 161.46 298.31 161.46H297.87V161.01L297.81 149.82V149.32H298.31L311.55 149.38C315.97 149.38 320.38 149.49 324.79 149.54H325.07V149.81C325.07 151.71 324.98 153.59 324.93 155.46L324.79 161.07ZM324.79 161.07L324.65 155.41C324.65 153.55 324.54 151.71 324.52 149.88L324.79 150.15C320.38 150.15 315.97 150.31 311.55 150.31L298.31 150.38L298.81 149.88L298.76 161.07L298.31 160.62C300.49 160.62 302.67 160.62 304.86 160.68L311.44 160.79L324.79 161.07Z" fill="#EBEBEB"/>
<path d="M310 175.18L296.88 175.46L290.21 175.57C287.99 175.57 285.75 175.57 283.52 175.62H283.08V175.17L283 164V163.5H283.5L296.74 163.56C301.15 163.56 305.57 163.67 309.98 163.72H310.26V164C310.26 165.9 310.18 167.78 310.13 169.65L310 175.18ZM310 175.18L309.86 169.52C309.81 167.66 309.75 165.82 309.73 163.99L310 164.26C305.59 164.31 301.17 164.42 296.76 164.42L283.52 164.49L284.02 163.99L284 175.18L283.55 174.73C285.73 174.73 287.91 174.73 290.1 174.79L296.67 174.9L310 175.18Z" fill="#EBEBEB"/>
<path d="M339.56 175.18L326.44 175.46L319.78 175.57C317.55 175.57 315.32 175.57 313.08 175.62H312.64V175.17L312.58 164V163.5H313.08L326.32 163.56C330.74 163.56 335.15 163.67 339.56 163.72H339.84V164C339.84 165.9 339.75 167.78 339.71 169.65L339.56 175.18ZM339.56 175.18L339.42 169.52C339.42 167.66 339.31 165.82 339.29 163.99L339.56 164.26C335.15 164.31 330.74 164.42 326.32 164.42L313.08 164.49L313.58 163.99L313.53 175.18L313.08 174.73C315.27 174.73 317.44 174.73 319.63 174.79L326.21 174.9L339.56 175.18Z" fill="#EBEBEB"/>
<path d="M82.4 330.89L69.28 331.16L62.61 331.28C60.39 331.28 58.15 331.28 55.92 331.33H55.48V330.89V319.7V319.19H55.98L69.22 319.25C73.63 319.25 78.05 319.36 82.46 319.41H82.74V319.68C82.74 321.57 82.66 323.46 82.61 325.33L82.4 330.89ZM82.4 330.89L82.26 325.23C82.21 323.37 82.15 321.53 82.13 319.7L82.4 319.97C77.99 319.97 73.57 320.13 69.16 320.13L55.92 320.2L56.42 319.7L56.36 330.89L55.92 330.44C58.1 330.44 60.28 330.44 62.46 330.49L69.04 330.61L82.4 330.89Z" fill="#EBEBEB"/>
<path d="M547.86 161.06L534.74 161.34L528.08 161.45C525.85 161.5 523.61 161.45 521.38 161.5H520.94V161.05L520.88 149.86V149.36H521.38L534.62 149.42C539.04 149.42 543.45 149.54 547.86 149.59H548.14V149.86C548.14 151.76 548.06 153.65 548.01 155.51L547.86 161.06ZM547.86 161.06L547.72 155.41C547.67 153.54 547.61 151.7 547.59 149.87L547.86 150.14C543.45 150.19 539.04 150.3 534.62 150.31L521.38 150.37L521.88 149.87V161.06L521.43 160.61C523.61 160.61 525.79 160.61 527.98 160.67L534.56 160.78L547.86 161.06Z" fill="#EBEBEB"/>
<path d="M680.84 52.3799L667.72 52.6599L661.05 52.7699C658.83 52.7699 656.59 52.7699 654.36 52.8299H653.92V52.3799V41.1899V40.6899H654.42L667.66 40.7499C672.07 40.7499 676.49 40.8699 680.9 40.9199H681.18V41.1899C681.18 43.0899 681.1 44.9799 681.05 46.8399L680.84 52.3799ZM680.84 52.3799L680.7 46.7299C680.65 44.8599 680.59 43.0199 680.57 41.1899L680.84 41.4599C676.43 41.4599 672.01 41.6199 667.6 41.6299L654.36 41.6899L654.86 41.1899L654.81 52.3799L654.36 51.9299C656.54 51.9299 658.72 51.9299 660.91 51.9899L667.48 52.0999L680.84 52.3799Z" fill="#EBEBEB"/>
<path d="M695.61 66.49L682.49 66.77L675.83 66.88C673.6 66.93 671.36 66.88 669.13 66.93H668.69V66.48L668.63 55.29V54.79H669.13L682.37 54.85C686.79 54.85 691.2 54.97 695.61 55.02H695.89V55.29C695.89 57.19 695.8 59.08 695.75 60.94L695.61 66.49ZM695.61 66.49L695.47 60.84C695.47 58.97 695.36 57.13 695.34 55.3L695.61 55.57C691.2 55.57 686.79 55.73 682.37 55.74L669.13 55.8L669.63 55.3V66.49L669.18 66.04C671.36 66.04 673.54 66.04 675.73 66.1L682.31 66.21L695.61 66.49Z" fill="#EBEBEB"/>
<path d="M79.34 52.3899L66.21 52.6699L59.55 52.7799C57.33 52.7799 55.09 52.78 52.86 52.84H52.41V52.3899V41.2V40.7H52.92L66.16 40.77C70.57 40.77 74.98 40.88 79.4 40.93H79.67V41.2C79.67 43.1 79.58 44.99 79.54 46.86L79.34 52.3899ZM79.34 52.3899L79.19 46.74C79.19 44.87 79.08 43.03 79.06 41.2L79.34 41.47C74.92 41.53 70.51 41.6299 66.1 41.6399L52.86 41.7L53.36 41.2L53.3 52.3899L52.86 52C55.04 52 57.21 52 59.4 52L65.98 52.11L79.34 52.3899Z" fill="#EBEBEB"/>
<path d="M154.84 286.32L85.16 304.55L61.77 215.1L113.5 201.57L131.44 196.88L135.9 213.92L154.84 286.32Z" fill="#EBEBEB"/>
<path d="M73.1116 230.606L129.874 215.768L129.275 213.475L72.5122 228.313L73.1116 230.606Z" fill="#DBDBDB"/>
<path d="M74.6241 236.399L131.387 221.561L130.787 219.268L74.0247 234.106L74.6241 236.399Z" fill="#DBDBDB"/>
<path d="M76.1392 242.211L132.902 227.373L132.302 225.08L75.5398 239.919L76.1392 242.211Z" fill="#DBDBDB"/>
<path d="M77.6514 248.002L134.414 233.164L133.815 230.871L77.052 245.709L77.6514 248.002Z" fill="#DBDBDB"/>
<path d="M79.1639 253.795L135.927 238.957L135.327 236.664L78.5645 251.502L79.1639 253.795Z" fill="#DBDBDB"/>
<path d="M81.0674 258.566L137.977 243.898L137.385 241.599L80.4749 256.267L81.0674 258.566Z" fill="#DBDBDB"/>
<path d="M82.2012 265.398L138.964 250.56L138.364 248.267L81.6018 263.105L82.2012 265.398Z" fill="#DBDBDB"/>
<path d="M84.1211 270.124L141.031 255.456L140.439 253.157L83.5286 267.825L84.1211 270.124Z" fill="#DBDBDB"/>
<path d="M85.6564 275.895L142.566 261.228L141.974 258.929L85.0639 273.596L85.6564 275.895Z" fill="#DBDBDB"/>
<path d="M86.7509 282.794L143.513 267.956L142.914 265.663L86.1515 280.501L86.7509 282.794Z" fill="#DBDBDB"/>
<path d="M88.7198 287.46L145.63 272.793L145.037 270.494L88.1273 285.161L88.7198 287.46Z" fill="#DBDBDB"/>
<path d="M90.2454 293.234L147.155 278.567L146.563 276.268L89.6529 290.935L90.2454 293.234Z" fill="#DBDBDB"/>
<path d="M173.34 312.13L101.43 316.15L96.27 223.84L149.66 220.86L169.16 237.41L173.34 312.13Z" fill="#EBEBEB"/>
<path d="M149.66 220.86L169.16 237.41L150.64 238.45L149.66 220.86Z" fill="#DBDBDB"/>
<path d="M104.299 241.301L144.277 239.066L144.145 236.7L104.167 238.935L104.299 241.301Z" fill="#DBDBDB"/>
<path d="M104.626 247.29L144.604 245.054L144.471 242.688L104.494 244.923L104.626 247.29Z" fill="#DBDBDB"/>
<path d="M104.962 253.267L144.94 251.032L144.808 248.666L104.83 250.901L104.962 253.267Z" fill="#DBDBDB"/>
<path d="M105.297 259.254L163.876 255.979L163.743 253.612L105.165 256.888L105.297 259.254Z" fill="#DBDBDB"/>
<path d="M105.634 265.232L164.212 261.957L164.08 259.591L105.501 262.866L105.634 265.232Z" fill="#DBDBDB"/>
<path d="M105.97 271.22L164.549 267.945L164.417 265.579L105.838 268.854L105.97 271.22Z" fill="#DBDBDB"/>
<path d="M106.297 277.198L164.875 273.923L164.743 271.557L106.164 274.832L106.297 277.198Z" fill="#DBDBDB"/>
<path d="M106.633 283.186L165.212 279.911L165.079 277.545L106.501 280.82L106.633 283.186Z" fill="#DBDBDB"/>
<path d="M106.97 289.164L165.549 285.889L165.416 283.523L106.838 286.798L106.97 289.164Z" fill="#DBDBDB"/>
<path d="M107.306 295.142L165.885 291.867L165.752 289.501L107.174 292.776L107.306 295.142Z" fill="#DBDBDB"/>
<path d="M107.633 301.13L166.211 297.855L166.079 295.489L107.501 298.764L107.633 301.13Z" fill="#DBDBDB"/>
<path d="M107.98 307.118L166.558 303.843L166.426 301.477L107.847 304.752L107.98 307.118Z" fill="#DBDBDB"/>
<path d="M579.43 124.61L648.41 175.38L682.32 129.21L613.34 78.4399L579.43 124.61Z" fill="#EBEBEB"/>
<path d="M584.4 123.84L647.66 170.4L677.34 129.97L614.08 83.4199L584.4 123.84Z" fill="white"/>
<path d="M610.57 100.24C609.569 101.601 608.995 103.228 608.919 104.915C608.843 106.602 609.268 108.274 610.143 109.719C611.017 111.165 612.3 112.318 613.83 113.034C615.359 113.75 617.067 113.996 618.737 113.742C620.407 113.487 621.963 112.744 623.21 111.604C624.457 110.465 625.338 108.982 625.742 107.342C626.146 105.702 626.055 103.979 625.479 102.391C624.904 100.803 623.871 99.4208 622.51 98.42C620.684 97.0805 618.402 96.5199 616.164 96.8611C613.925 97.2023 611.914 98.4175 610.57 100.24Z" fill="#DBDBDB"/>
<path d="M604 138.36L647.57 170.44L647.52 124.87L604 138.36Z" fill="#DBDBDB"/>
<path d="M586.91 125.81L622.88 152.28L619.05 119.81L586.91 125.81Z" fill="#EBEBEB"/>
<path d="M554.42 102.77L640.06 103.92L640.77 46.64L555.12 45.49L554.42 102.77Z" fill="#EBEBEB"/>
<path d="M558.02 99.2499L636.56 100.31L637.17 50.1599L558.63 49.1099L558.02 99.2499Z" fill="white"/>
<path d="M565.56 64.8399C565.538 66.5307 566.019 68.19 566.94 69.6079C567.861 71.0258 569.183 72.1386 570.736 72.8057C572.29 73.4728 574.007 73.6642 575.67 73.3556C577.332 73.0471 578.866 72.2524 580.077 71.0722C581.288 69.892 582.122 68.3792 582.473 66.7251C582.824 65.071 582.677 63.3499 582.05 61.7794C581.423 60.209 580.345 58.8596 578.951 57.9021C577.557 56.9446 575.911 56.4218 574.22 56.3999C573.097 56.3853 571.983 56.5921 570.94 57.0084C569.897 57.4247 568.946 58.0424 568.142 58.8261C567.338 59.6099 566.696 60.5444 566.253 61.5762C565.81 62.6081 565.574 63.7171 565.56 64.8399Z" fill="#DBDBDB"/>
<path d="M582.4 99.6599L636.5 100.39L609.95 63.3599L582.4 99.6599Z" fill="#DBDBDB"/>
<path d="M561.2 99.3898L605.86 99.9898L583.85 75.8198L561.2 99.3898Z" fill="#EBEBEB"/>
<path d="M684.38 271.82C671.59 289.15 658.25 309.26 655 331C655 331.33 655.49 331.44 655.56 331.11C657.037 325.188 658.928 319.377 661.22 313.72C669.63 311.4 677.89 309.5 682.3 301.15C686.81 292.57 686.24 281.38 685.38 272.03C685.32 271.51 684.64 271.49 684.38 271.82Z" fill="#FDC713"/>
<path d="M661.35 313.53C667.09 300.64 674.47 287.69 683.85 277.08C683.91 277.01 684.01 277.08 683.95 277.18C677.81 284.74 673.15 292.96 668.59 301.33C672.83 297.03 677.47 293.18 681.48 288.62C681.56 288.53 681.69 288.62 681.61 288.75C677.61 293.53 673.28 298.75 668.09 302.26C666.69 304.83 665.29 307.41 663.87 309.98C664.21 309.79 664.57 309.62 664.93 309.44C665 309.44 665.05 309.5 664.99 309.53C664.59 309.73 664.2 309.94 663.79 310.12C663.12 311.34 662.45 312.56 661.79 313.77C661.6 314 661.23 313.81 661.35 313.53Z" fill="#263238"/>
<path d="M665.62 309C669.062 307.081 672.346 304.891 675.44 302.45C675.53 302.38 675.65 302.45 675.56 302.57C672.557 305.161 669.269 307.402 665.76 309.25C665.727 309.269 665.688 309.273 665.651 309.263C665.615 309.253 665.584 309.228 665.565 309.195C665.546 309.162 665.542 309.123 665.552 309.086C665.562 309.05 665.587 309.019 665.62 309Z" fill="#263238"/>
<path d="M653.52 327.75C653.531 327.804 653.561 327.853 653.604 327.887C653.646 327.922 653.7 327.941 653.755 327.941C653.81 327.941 653.864 327.922 653.907 327.887C653.949 327.853 653.979 327.804 653.99 327.75C654.05 320.6 653.99 313.41 654.1 306.22C655.93 302.52 659.87 300.47 662.6 297.51C664.572 295.345 666.286 292.959 667.71 290.4C671.002 284.29 673.016 277.573 673.63 270.66C674.38 263.01 671.48 237.75 668.25 238.66C666.58 239.11 661.16 251.66 659.73 255.76C657.399 262.591 655.695 269.62 654.64 276.76C652 293.52 652.24 310.81 653.52 327.75Z" fill="#FDC713"/>
<path d="M653.47 296.89C653.86 287.83 655.9 278.69 657.81 269.89C659.87 260.43 662.27 251.52 667.14 243.08C667.161 243.053 667.191 243.034 667.224 243.028C667.258 243.021 667.292 243.027 667.322 243.044C667.351 243.061 667.373 243.089 667.384 243.121C667.395 243.153 667.393 243.189 667.38 243.22C664.134 249.784 661.622 256.685 659.89 263.8C660.21 263.29 660.61 262.8 660.95 262.32C661.08 262.13 661.4 262.32 661.26 262.51C660.828 263.277 660.319 263.997 659.74 264.66C659.74 264.66 659.74 264.66 659.68 264.66C658 271.42 656.8 278.33 655.77 285.23C655.85 285.15 655.92 285.05 656 284.97C656.08 284.89 656.14 284.97 656.11 285.05C655.98 285.28 655.83 285.5 655.7 285.73C655.18 289.23 654.7 292.73 654.21 296.19C660.45 290.86 665.77 284.58 668.78 276.84C668.78 276.84 668.85 276.84 668.83 276.84C665.89 284.84 661.25 292 654.11 296.84L653.72 299.64C653.72 299.83 653.38 299.78 653.39 299.64C653.39 298.81 653.39 297.98 653.46 297.16C653.443 297.142 653.429 297.12 653.421 297.097C653.412 297.073 653.408 297.048 653.409 297.023C653.41 296.998 653.415 296.973 653.426 296.95C653.437 296.927 653.451 296.907 653.47 296.89Z" fill="#263238"/>
<path d="M656.4 283.77C661.17 276.66 665.62 269.77 669.11 261.89C669.11 261.8 669.3 261.89 669.26 261.95C666.32 269.76 662.26 277.68 656.64 283.95C656.53 284.08 656.31 283.91 656.4 283.77Z" fill="#263238"/>
<path d="M662.74 260.13C664.74 256.64 666.74 253.24 668.65 249.68C668.7 249.58 668.84 249.68 668.8 249.76C667.264 253.481 665.319 257.019 663 260.31C662.91 260.49 662.62 260.33 662.74 260.13Z" fill="#263238"/>
<path d="M648.68 307.06C648.577 311.803 648.014 316.525 647 321.16C647.08 321.67 647.15 322.16 647.23 322.7C648.685 317.584 649.531 312.314 649.75 307C649.792 306.925 649.814 306.841 649.814 306.755C649.814 306.669 649.792 306.585 649.75 306.51C649.953 299.375 649.424 292.237 648.17 285.21C646 272 641.13 259.42 632 249.57C631.925 249.507 631.836 249.462 631.74 249.438C631.645 249.414 631.545 249.412 631.449 249.432C631.353 249.452 631.262 249.494 631.184 249.554C631.107 249.615 631.044 249.692 631 249.78C627.3 259.19 628.59 270.41 631.74 279.78C633.444 284.871 635.89 289.683 639 294.06C642.11 298.49 646.12 302.23 648.68 307.06Z" fill="#FDC713"/>
<path d="M633 254C641.7 268.11 647.74 284.83 648.48 301.5C648.48 301.79 648 301.87 647.96 301.57C647.75 300.07 647.52 298.57 647.28 297.11C643.68 293.67 639.99 290.04 637.42 285.73C637.415 285.714 637.416 285.698 637.421 285.682C637.426 285.667 637.436 285.653 637.449 285.643C637.462 285.634 637.477 285.628 637.494 285.627C637.51 285.627 637.526 285.631 637.54 285.64C640.539 289.277 643.748 292.737 647.15 296C646.53 292.32 645.787 288.693 644.92 285.12C644.68 284.85 644.46 284.58 644.23 284.31C644 284.04 644.33 283.88 644.49 284.05L644.7 284.28C643.47 279.388 641.95 274.573 640.15 269.86C637.94 267.22 635.47 264.94 633.85 261.76C633.843 261.744 633.843 261.727 633.848 261.711C633.853 261.694 633.864 261.681 633.879 261.672C633.894 261.663 633.911 261.661 633.928 261.664C633.945 261.667 633.96 261.677 633.97 261.69C635.212 263.534 636.547 265.313 637.97 267.02C638.55 267.7 639.2 268.32 639.8 269.02C637.804 263.906 635.427 258.949 632.69 254.19C632.68 254.151 632.682 254.109 632.698 254.071C632.713 254.033 632.74 254.001 632.775 253.98C632.809 253.959 632.85 253.949 632.891 253.953C632.931 253.956 632.97 253.973 633 254Z" fill="#263238"/>
<path d="M634.8 271.37C637.61 275.15 640.8 278.76 643.42 282.67C643.5 282.78 643.34 282.9 643.24 282.81C639.89 279.66 637.05 275.36 634.61 271.48C634.54 271.36 634.72 271.26 634.8 271.37Z" fill="#263238"/>
<path d="M643.82 283.54L643.94 283.66C644.02 283.75 643.89 283.88 643.81 283.79L643.69 283.67C643.673 283.653 643.663 283.629 643.663 283.605C643.663 283.581 643.673 283.557 643.69 283.54C643.707 283.523 643.731 283.513 643.755 283.513C643.779 283.513 643.803 283.523 643.82 283.54Z" fill="#263238"/>
<path d="M619.43 281.09C620.12 288.35 623.94 297.02 628.6 302.61C630.648 305.041 633.182 307.017 636.04 308.41C639.26 310.01 642.63 311.84 645.96 313.15C647.543 317.183 648.722 321.364 649.48 325.63C649.59 325.27 649.69 324.89 649.8 324.53C647.66 306.15 635.8 290.45 620.56 280.37C620.442 280.29 620.303 280.246 620.161 280.244C620.019 280.242 619.879 280.282 619.759 280.359C619.638 280.435 619.543 280.545 619.485 280.675C619.427 280.805 619.407 280.949 619.43 281.09Z" fill="#FDC713"/>
<path d="M624.68 286.52C624.57 286.42 624.68 286.23 624.84 286.32C633.197 292.533 639.86 300.743 644.22 310.2C644.33 310.45 643.98 310.67 643.84 310.42C643.13 309.18 642.41 307.98 641.68 306.8C638.21 306.14 634.92 303.7 632.34 301.38C632.27 301.32 632.34 301.22 632.44 301.28C633.771 302.488 635.25 303.523 636.84 304.36C638.25 305.08 639.77 305.53 641.25 306.11C639.96 304.11 638.62 302.11 637.25 300.21C633.503 298.783 629.988 296.808 626.82 294.35C626.72 294.27 626.82 294.11 626.92 294.18C630.057 296.075 633.292 297.804 636.61 299.36C634.496 296.556 632.212 293.884 629.77 291.36C628.59 290.74 627.39 290.11 626.25 289.44C626.227 289.431 626.21 289.413 626.2 289.39C626.191 289.368 626.191 289.342 626.2 289.32C626.209 289.297 626.227 289.279 626.25 289.27C626.272 289.261 626.297 289.261 626.32 289.27C627.269 289.602 628.175 290.045 629.02 290.59C627.61 289.22 626.2 287.85 624.68 286.52Z" fill="#263238"/>
<path d="M625 292.86C625.205 292.989 625.402 293.129 625.59 293.28C625.65 293.33 625.59 293.4 625.52 293.38C625.307 293.282 625.103 293.164 624.91 293.03C624.8 293 624.9 292.8 625 292.86Z" fill="#263238"/>
<path d="M673.54 365.43H631.86L635.22 327.47L635.96 319.1H669.43L670.17 327.47L673.54 365.43Z" fill="#455A64"/>
<path d="M670.17 327.47H635.22L635.96 319.1H669.43L670.17 327.47Z" fill="#263238"/>
<path d="M671.43 313.25H633.97V321.53H671.43V313.25Z" fill="#455A64"/>
<path d="M38.31 365.43L122.49 365.18L206.66 365.1L375 364.93L543.34 365.1L627.51 365.18L711.68 365.43L627.51 365.67L543.34 365.76L375 365.93L206.66 365.76L122.49 365.67L38.31 365.43Z" fill="#263238"/>
<path d="M375 452.4C554.095 452.4 699.28 440.889 699.28 426.69C699.28 412.491 554.095 400.98 375 400.98C195.905 400.98 50.72 412.491 50.72 426.69C50.72 440.889 195.905 452.4 375 452.4Z" fill="#EBEBEB"/>
<path d="M607.54 70.9099H142.47V382.01H607.54V70.9099Z" fill="#EBEBEB"/>
<path d="M604.16 74.71H145.85V378.22H604.16V74.71Z" fill="#263238"/>
<path d="M668.1 405.34H81.89V426.69H668.1V405.34Z" fill="#DBDBDB"/>
<path d="M81.89 405.34L142.47 382.01H607.53L668.11 405.34H81.89Z" fill="#EBEBEB"/>
<path d="M147.88 397.06L186.96 382.01H563.04L602.13 397.06H147.88Z" fill="#263238"/>
<path d="M578.26 97.77H171.75V355.16H578.26V97.77Z" fill="white"/>
<path d="M571.04 107.67H171.4V172.62H571.04V107.67Z" fill="#FDC713"/>
<path d="M578.25 97.77H171.4V107.67H578.25V97.77Z" fill="#455A64"/>
<path d="M179.27 102.72C179.27 103.207 179.125 103.683 178.855 104.088C178.584 104.492 178.199 104.808 177.749 104.993C177.299 105.179 176.804 105.227 176.326 105.132C175.849 105.036 175.411 104.801 175.067 104.456C174.723 104.111 174.49 103.671 174.396 103.194C174.302 102.716 174.352 102.221 174.54 101.771C174.728 101.322 175.045 100.939 175.451 100.669C175.856 100.4 176.333 100.258 176.82 100.26C177.143 100.26 177.462 100.323 177.76 100.447C178.058 100.571 178.328 100.752 178.556 100.981C178.784 101.209 178.964 101.481 179.086 101.779C179.209 102.078 179.271 102.397 179.27 102.72Z" fill="#C7C7C7"/>
<path d="M189.3 102.72C189.3 103.207 189.155 103.683 188.885 104.088C188.614 104.492 188.229 104.808 187.779 104.993C187.329 105.179 186.834 105.227 186.356 105.132C185.879 105.036 185.441 104.801 185.097 104.456C184.753 104.111 184.52 103.671 184.426 103.194C184.332 102.716 184.382 102.221 184.57 101.771C184.758 101.322 185.075 100.939 185.481 100.669C185.886 100.4 186.363 100.258 186.85 100.26C187.173 100.26 187.492 100.323 187.79 100.447C188.088 100.571 188.358 100.752 188.586 100.981C188.814 101.209 188.994 101.481 189.116 101.779C189.239 102.078 189.301 102.397 189.3 102.72Z" fill="white"/>
<path d="M199.33 102.72C199.33 103.207 199.185 103.683 198.915 104.088C198.644 104.492 198.259 104.808 197.809 104.993C197.359 105.179 196.864 105.227 196.386 105.132C195.909 105.036 195.471 104.801 195.127 104.456C194.783 104.111 194.55 103.671 194.456 103.194C194.362 102.716 194.412 102.221 194.6 101.771C194.788 101.322 195.105 100.939 195.511 100.669C195.916 100.4 196.393 100.258 196.88 100.26C197.203 100.26 197.522 100.323 197.82 100.447C198.118 100.571 198.388 100.752 198.616 100.981C198.844 101.209 199.024 101.481 199.146 101.779C199.269 102.078 199.331 102.397 199.33 102.72Z" fill="#FDC713"/>
<path d="M578.26 107.67H571.04V355.15H578.26V107.67Z" fill="#DBDBDB"/>
<path d="M574.64 193.47C574.147 193.47 573.674 193.274 573.325 192.925C572.976 192.576 572.78 192.103 572.78 191.61V111C572.78 110.507 572.976 110.033 573.325 109.685C573.674 109.336 574.147 109.14 574.64 109.14C575.134 109.14 575.608 109.336 575.959 109.684C576.309 110.033 576.507 110.506 576.51 111V191.63C576.502 192.121 576.302 192.589 575.952 192.933C575.602 193.277 575.131 193.47 574.64 193.47Z" fill="#A6A6A6"/>
<path d="M550.21 119.75H453.05V132.72H550.21V119.75Z" fill="white"/>
<path d="M550.34 132.85H452.92V119.61H550.34V132.85ZM453.18 132.58H550.08V119.88H453.18V132.58Z" fill="#C7C7C7"/>
<path d="M550.35 119.61H537.11V132.85H550.35V119.61Z" fill="#455A64"/>
<path d="M547.84 129.86L546.64 130.77L544.42 127.84L543.61 126.77C543.776 126.707 543.931 126.619 544.07 126.51C544.34 126.299 544.553 126.024 544.69 125.71L545.55 126.85L547.84 129.86Z" fill="white"/>
<path d="M545.48 123C545.101 122.504 544.588 122.127 544.002 121.913C543.416 121.699 542.78 121.657 542.171 121.793C541.562 121.928 541.004 122.235 540.564 122.678C540.123 123.12 539.819 123.679 539.686 124.289C539.553 124.899 539.598 125.534 539.814 126.12C540.031 126.705 540.411 127.216 540.908 127.593C541.406 127.969 542.001 128.195 542.624 128.244C543.246 128.294 543.869 128.164 544.42 127.87C544.579 127.789 544.73 127.691 544.87 127.58C545.131 127.383 545.36 127.147 545.55 126.88C545.954 126.31 546.165 125.627 546.153 124.928C546.14 124.23 545.904 123.554 545.48 123ZM544.07 126.54C543.931 126.649 543.776 126.737 543.61 126.8C543.213 126.952 542.779 126.974 542.369 126.863C541.959 126.751 541.595 126.512 541.33 126.18C541.105 125.986 540.926 125.744 540.807 125.472C540.687 125.2 540.63 124.904 540.638 124.607C540.647 124.31 540.722 124.019 540.858 123.754C540.993 123.49 541.186 123.259 541.422 123.078C541.658 122.898 541.931 122.772 542.222 122.71C542.513 122.648 542.814 122.652 543.103 122.721C543.392 122.79 543.662 122.923 543.893 123.11C544.124 123.296 544.311 123.532 544.44 123.8C544.644 124.075 544.775 124.398 544.818 124.737C544.862 125.077 544.818 125.422 544.69 125.74C544.549 126.043 544.336 126.307 544.07 126.51V126.54Z" fill="white"/>
<path d="M456.46 122.29H455.76V130.16H456.46V122.29Z" fill="#C7C7C7"/>
<path d="M448.18 119.75H224.41V132.72H448.18V119.75Z" fill="white"/>
<path d="M448.31 132.85H224.31V119.61H448.31V132.85ZM224.54 132.58H448V119.88H224.54V132.58Z" fill="#C7C7C7"/>
<path d="M227.82 122.29H227.12V130.16H227.82V122.29Z" fill="#C7C7C7"/>
<path d="M199.93 130.67L195.21 126.32L199.92 121.8L200.66 122.56L196.75 126.3L200.65 129.89L199.93 130.67Z" fill="white"/>
<path d="M211.33 121.79L216.05 126.14L211.34 130.66L210.61 129.9L214.51 126.15L210.61 122.57L211.33 121.79Z" fill="white"/>
<path d="M323.57 265.98H426.61V186.92H323.57V265.98Z" fill="#FDC713"/>
<path opacity="0.6" d="M333.83 204.22C333.438 206.19 333.69 208.234 334.549 210.05C335.408 211.866 336.828 213.357 338.6 214.303C340.372 215.25 342.401 215.601 344.388 215.305C346.375 215.01 348.214 214.083 349.633 212.661C351.052 211.24 351.977 209.4 352.27 207.412C352.563 205.425 352.209 203.396 351.26 201.626C350.311 199.855 348.818 198.437 347.001 197.581C345.184 196.724 343.14 196.475 341.17 196.87C339.358 197.233 337.693 198.125 336.387 199.433C335.081 200.741 334.191 202.407 333.83 204.22Z" fill="white"/>
<path d="M357.56 248.95H426.61L392.09 206.4L357.56 248.95Z" fill="#FDC713"/>
<path opacity="0.2" d="M357.56 248.95H426.61L392.09 206.4L357.56 248.95Z" fill="black"/>
<path d="M323.57 248.99H384.8L354.19 221.28L323.57 248.99Z" fill="#FDC713"/>
<path opacity="0.1" d="M323.57 248.99H384.8L354.19 221.28L323.57 248.99Z" fill="black"/>
<path d="M426.61 248.95H323.57V265.98H426.61V248.95Z" fill="#FDC713"/>
<path opacity="0.1" d="M426.61 248.95H323.57V265.98H426.61V248.95Z" fill="black"/>
<path d="M247.93 276.92H193.44V281.5H247.93V276.92Z" fill="#A6A6A6"/>
<path d="M425.02 287.56H193.44V292.14H425.02V287.56Z" fill="#EBEBEB"/>
<path d="M425.02 297.64H193.44V302.22H425.02V297.64Z" fill="#EBEBEB"/>
<path d="M425.02 307.73H193.44V312.31H425.02V307.73Z" fill="#EBEBEB"/>
<path d="M425.02 317.82H193.44V322.4H425.02V317.82Z" fill="#EBEBEB"/>
<path d="M425.02 327.9H193.44V332.48H425.02V327.9Z" fill="#EBEBEB"/>
<path d="M495.26 187.62H440.77V192.2H495.26V187.62Z" fill="#A6A6A6"/>
<path d="M556.56 198.25H440.77V202.83H556.56V198.25Z" fill="#EBEBEB"/>
<path d="M556.56 208.34H440.77V212.92H556.56V208.34Z" fill="#EBEBEB"/>
<path d="M556.56 218.42H440.77V223H556.56V218.42Z" fill="#EBEBEB"/>
<path d="M556.56 228.51H440.77V233.09H556.56V228.51Z" fill="#EBEBEB"/>
<path d="M556.56 247.21H440.77V251.79H556.56V247.21Z" fill="#EBEBEB"/>
<path d="M556.56 257.3H440.77V261.88H556.56V257.3Z" fill="#EBEBEB"/>
<path d="M556.56 267.39H440.77V271.97H556.56V267.39Z" fill="#EBEBEB"/>
<path d="M556.56 277.47H440.77V282.05H556.56V277.47Z" fill="#EBEBEB"/>
<path d="M556.56 287.56H440.77V292.14H556.56V287.56Z" fill="#EBEBEB"/>
<path d="M556.56 307.73H440.77V312.31H556.56V307.73Z" fill="#EBEBEB"/>
<path d="M518.81 317.82H440.77V322.4H518.81V317.82Z" fill="#EBEBEB"/>
<path d="M521.64 314.93H521.14V325.29H521.64V314.93Z" fill="#263238"/>
<path d="M247.93 186.93H193.44V199.19H247.93V186.93Z" fill="#A6A6A6"/>
<path d="M309.05 207.65H193.44V212.23H309.05V207.65Z" fill="#EBEBEB"/>
<path d="M309.05 217.74H193.44V222.32H309.05V217.74Z" fill="#EBEBEB"/>
<path d="M309.05 227.82H193.44V232.4H309.05V227.82Z" fill="#EBEBEB"/>
<path d="M309.05 237.91H193.44V242.49H309.05V237.91Z" fill="#EBEBEB"/>
<path d="M309.05 251.32H193.44V255.9H309.05V251.32Z" fill="#EBEBEB"/>
<path d="M309.05 261.41H193.44V265.99H309.05V261.41Z" fill="#EBEBEB"/>
<path d="M403.61 440.47C403.61 440.47 380.61 442.08 380.75 426.29C380.89 410.5 403.92 412.62 403.92 412.62L403.61 440.47Z" fill="#FDC713"/>
<path d="M585.26 425.15L585.18 432.06L565 442.3L474 441.3L415.42 440.64L408.97 440.57H408.29H403.51H402.69L403.01 412.71H403.93L408.6 412.76H409.28L415.73 412.83L565.34 414.53L585.23 425.23L585.26 425.15Z" fill="#FDC713"/>
<path d="M589.72 428.65L585.2 430.98H585.19L585.25 426.28L587.96 427.71L589.72 428.65Z" fill="#455A64"/>
<path d="M402.194 410.3L401.825 442.818L408.275 442.891L408.644 410.373L402.194 410.3Z" fill="#263238"/>
<path d="M408.796 409.804L408.471 442.324L414.921 442.389L415.246 409.869L408.796 409.804Z" fill="#263238"/>
<path d="M415.38 442.94L415.5 432.45L474.16 438.9L473.89 442.76L415.38 442.94Z" fill="#263238"/>
<path d="M261.64 246.25C267.31 253.13 271.81 292.14 264.64 307.37C257.47 322.6 226.64 325.82 219.99 306.22C216.5 296.02 225.29 284.62 229.38 257.61C232.41 237.48 253.71 236.65 261.64 246.25Z" fill="#263238"/>
<path d="M258.2 313C260.661 311.636 262.828 309.799 264.575 307.593C266.322 305.388 267.615 302.858 268.38 300.15C270.01 294.29 269.78 287.79 269.49 281.77C268.833 269.662 266.215 257.74 261.74 246.47C261.74 246.47 261.79 246.39 261.81 246.47C266.849 258.299 269.65 270.96 270.07 283.81C270.28 289.9 270.44 296.67 268.07 302.4C266.14 307.011 262.664 310.805 258.24 313.13C258.2 313.13 258.14 313 258.2 313Z" fill="#263238"/>
<path d="M220.42 283.62C222.16 279.92 224.23 276.39 225.42 272.46C226.61 268.53 227.12 264.71 227.93 260.82C229.16 254.82 231.28 248.82 236.31 244.99C231.18 249.09 229.4 255.51 228.2 261.69C227.54 265.07 227.03 268.49 226.08 271.8C225.147 274.771 223.942 277.65 222.48 280.4C219.15 287.02 216.55 293.84 218.07 301.4C218.668 304.487 219.992 307.388 221.932 309.862C223.873 312.336 226.374 314.313 229.23 315.63C229.41 315.71 229.28 316.03 229.1 315.96C226.513 314.822 224.202 313.14 222.324 311.027C220.446 308.915 219.047 306.423 218.22 303.72C216.11 297 217.47 289.89 220.42 283.62Z" fill="#263238"/>
<path d="M222.63 283.93C224.179 280.452 225.339 276.813 226.09 273.08C226.76 269.51 227.09 265.9 227.71 262.32C228.71 256.2 230.63 249.91 235.48 245.63C235.54 245.63 235.63 245.63 235.57 245.72C231 250.23 229.13 256.3 228.13 262.43C227.05 269.04 226.51 275.56 224 281.85C221.56 287.96 218.16 294.1 218.5 300.85C218.84 307.6 223.33 312.61 228.83 316.03C228.849 316.049 228.861 316.074 228.865 316.1C228.868 316.127 228.862 316.154 228.849 316.177C228.835 316.2 228.814 316.218 228.788 316.228C228.763 316.237 228.736 316.238 228.71 316.23C223.85 313.44 219.62 309.01 218.39 303.49C216.88 296.7 220 290.06 222.63 283.93Z" fill="#263238"/>
<path d="M463.61 396.35C461.24 397.26 392.4 398.52 389.7 396.98C389.41 396.8 389.49 393.76 388.48 385.9C388.43 385.53 386.86 384.07 384.4 382.01C375.2 374.3 353.56 358.01 353.56 358.01L387.92 328.16L421.21 360.89L429.87 369.39C429.87 369.39 458 384.58 460.79 386.59C463.58 388.6 466 395.44 463.61 396.35Z" fill="#D3766A"/>
<path d="M463.61 396.35C461.25 397.27 392.39 398.51 389.7 396.98C389.4 396.8 389.49 393.76 388.48 385.91C396.93 388.16 448.64 389.54 452.59 386.14C455.23 383.87 445.05 377.75 440.88 375.4C449.1 379.88 459.18 385.45 460.79 386.61C463.55 388.62 466 395.44 463.61 396.35Z" fill="#FDC713"/>
<path d="M421.69 359.08L379.22 381.08C379.22 381.08 334.98 341.08 330.92 340.73C326.86 340.38 267.35 380.83 237.38 381C206.38 381.13 204.77 348.61 204.77 348.61L250.05 338.21C282.68 322.13 316.68 293.21 338.91 295.93C363.06 298.82 421.69 359.08 421.69 359.08Z" fill="#455A64"/>
<path d="M411.31 353.47C404.15 357.02 406.16 355.91 399.02 359.53C395.53 361.3 378.02 370.16 375.02 372.35C375.006 372.361 374.996 372.377 374.992 372.395C374.988 372.413 374.99 372.432 374.998 372.448C375.006 372.465 375.02 372.478 375.037 372.485C375.053 372.493 375.072 372.495 375.09 372.49C378.6 371.31 395.97 362.08 399.43 360.24C406.49 356.49 404.43 357.49 411.43 353.67C411.456 353.654 411.476 353.628 411.483 353.598C411.491 353.568 411.486 353.537 411.47 353.51C411.454 353.483 411.428 353.464 411.398 353.457C411.368 353.449 411.336 353.454 411.31 353.47Z" fill="#263238"/>
<path d="M371.7 370.94C363.39 363.62 336.19 339.79 335.09 338.94C334.23 338.124 333.277 337.412 332.25 336.82C331.826 336.654 331.37 336.586 330.916 336.623C330.462 336.659 330.022 336.799 329.63 337.03C328.38 337.61 327.14 338.26 325.9 338.87L318.54 342.46C309.02 347.1 299.54 351.87 289.97 356.36C280.75 360.68 274.17 364.74 264.54 368.07C254.965 371.43 245.064 373.776 235 375.07C233.76 375.22 232.51 375.35 231.27 375.47C231.251 375.47 231.234 375.477 231.22 375.491C231.207 375.504 231.2 375.522 231.2 375.54C231.2 375.559 231.207 375.576 231.22 375.59C231.234 375.603 231.251 375.61 231.27 375.61C241.151 375.028 250.92 373.21 260.35 370.2C269.89 367.27 276.35 363.46 285.42 359.29C294.81 354.97 304.07 350.35 313.32 345.75C318.21 343.32 323.09 340.87 327.99 338.47C329.1 337.92 330.68 336.74 331.99 337.33C332.525 337.619 333.017 337.983 333.45 338.41L335.08 339.76C337.19 341.51 370.53 370.23 371.62 371.06C371.67 371.12 371.78 371 371.7 370.94Z" fill="#263238"/>
<path d="M204.69 348.57C204.69 348.57 199.61 377.93 214.29 389.47C228.97 401.01 336.53 399.61 352.85 394.34C369.17 389.07 369.69 362.73 351.85 356.62C334.85 350.82 262.69 348 260.91 347.29C260.46 347.11 267.31 343 267.28 342.75L250.85 337.75L204.69 348.57Z" fill="#455A64"/>
<path d="M227 347.83C227 347.7 226.79 347.74 226.79 347.83C226.788 351.243 225.584 354.546 223.39 357.16C220.89 360.05 217.21 361.66 213.87 363.35C213.55 363.51 213.79 364.02 214.12 363.92C216.173 363.286 218.152 362.431 220.02 361.37C221.735 360.462 223.243 359.209 224.45 357.69C225.534 356.312 226.32 354.725 226.759 353.028C227.198 351.33 227.28 349.56 227 347.83Z" fill="#263238"/>
<path d="M259.72 344.19C258.97 343.24 258.16 342.33 257.38 341.41C255.54 339.22 253.7 337.02 251.77 334.91C251.59 334.71 251.23 334.99 251.4 335.21C252.69 336.91 254.07 338.55 255.4 340.21C256.09 341.06 256.79 341.9 257.49 342.74C258.217 343.503 258.87 344.333 259.44 345.22C259.94 346.16 259.28 346.96 258.3 347.06C257.438 347.087 256.599 346.779 255.96 346.2C254.495 344.909 253.156 343.483 251.96 341.94C251.19 341.07 250.41 340.2 249.63 339.34C248.85 338.48 247.9 337.56 247.07 336.64C247.01 336.59 246.91 336.64 246.96 336.73C247.69 337.73 248.36 338.73 249.09 339.73C249.82 340.73 250.56 341.73 251.31 342.73C252.06 343.73 252.76 344.57 253.52 345.46C254.153 346.244 254.91 346.919 255.76 347.46C257.16 348.28 259.58 348.46 260.33 346.66C260.452 346.231 260.461 345.777 260.354 345.344C260.247 344.911 260.028 344.513 259.72 344.19Z" fill="#263238"/>
<path d="M350.62 394.43C345 394.54 339.39 394.87 333.77 394.99C328.15 395.11 322.62 395.14 317.04 395.08C305.847 394.98 294.66 394.547 283.48 393.78C272.19 393 260.02 391.87 248.8 390.32C243.44 389.58 238 388.96 232.69 387.82C227.925 386.911 223.518 384.66 219.99 381.33C212.73 374.28 209.9 363.93 208.74 354.03C208.587 352.697 208.457 351.363 208.35 350.03C208.354 350.019 208.356 350.008 208.355 349.997C208.353 349.985 208.349 349.974 208.343 349.965C208.337 349.955 208.328 349.948 208.318 349.942C208.308 349.937 208.296 349.934 208.285 349.934C208.274 349.934 208.262 349.937 208.252 349.942C208.242 349.948 208.233 349.955 208.227 349.965C208.221 349.974 208.217 349.985 208.215 349.997C208.214 350.008 208.216 350.019 208.22 350.03C208.87 360.17 210.45 370.75 216.83 378.91C219.519 382.476 223.104 385.267 227.22 387C232.22 389 237.82 389.48 243.12 390.2C254.38 391.73 266.6 392.91 277.93 393.79C289.26 394.67 300.75 395.22 312.17 395.39C323.59 395.56 335.04 395.39 346.45 394.83C347.837 394.77 349.227 394.68 350.62 394.56C350.633 394.555 350.644 394.546 350.652 394.534C350.66 394.523 350.664 394.509 350.664 394.495C350.664 394.481 350.66 394.467 350.652 394.456C350.644 394.444 350.633 394.435 350.62 394.43Z" fill="#263238"/>
<path d="M315.19 351.27C311.66 350.75 308.13 350.27 304.57 349.88C301.01 349.49 297.38 349.18 293.78 348.88C286.67 348.27 279.53 347.73 272.4 347.4C268.34 347.21 264.29 347.19 260.24 347.24C260.11 347.24 260.12 347.43 260.24 347.44C267.37 348.08 274.51 348.53 281.66 349.01C288.81 349.49 295.91 350.11 303.02 350.79C307.02 351.17 311.1 351.47 315.14 351.79C315.43 351.82 315.49 351.32 315.19 351.27Z" fill="#263238"/>
<path d="M268.11 342.39C265.262 343.622 262.523 345.091 259.92 346.78C257.271 348.365 254.738 350.136 252.34 352.08C252.28 352.14 252.34 352.22 252.43 352.19C255.21 350.9 257.88 349.3 260.53 347.76C263.211 346.25 265.799 344.58 268.28 342.76C268.45 342.64 268.35 342.3 268.11 342.39Z" fill="#263238"/>
<path d="M237.73 289.91C243.18 308.42 253.48 330.39 257.51 333.82C262.61 338.14 295.02 344.68 296.62 344.75C300.62 344.91 306.76 316.08 302.52 315.75C296.08 315.22 272.79 315.37 271.31 314.02C269.83 312.67 259.23 300.86 248.31 287.51C240.76 278.25 234.35 278.42 237.73 289.91Z" fill="#D3766A"/>
<path d="M293.37 343.42C297.116 345.056 300.972 346.426 304.91 347.52C308.04 348.22 317.1 350.01 318.22 346.64C318.98 344.34 313.78 342.64 310.13 341.4C308.2 340.73 305.77 338.91 306.25 337.67C307.09 335.5 312.05 337.32 315.34 338.98C321.7 342.17 330.28 348.1 333.84 344.76C335.19 343.49 333.41 341.45 330.84 339.49C334.9 341.7 339.2 343.49 340.75 342.12C341.149 341.773 341.401 341.287 341.453 340.761C341.505 340.235 341.354 339.708 341.03 339.29C341.538 339.494 342.095 339.54 342.63 339.425C343.164 339.309 343.652 339.036 344.03 338.64C345.22 337.23 344.49 335.3 342.97 333.37C343.208 333.332 343.434 333.237 343.627 333.092C343.821 332.947 343.976 332.758 344.08 332.54C346.52 328.28 332.33 317.31 327.61 316.49C318.242 315.039 308.733 314.724 299.29 315.55C294.18 320.18 293.36 343.41 293.37 343.42Z" fill="#D3766A"/>
<path d="M312.76 329.57C316.058 329.894 319.248 330.917 322.12 332.57C325.74 334.66 328.21 337.2 331.29 339.73C331.307 339.743 331.319 339.763 331.321 339.784C331.324 339.806 331.318 339.828 331.305 339.845C331.292 339.862 331.272 339.874 331.251 339.876C331.229 339.879 331.207 339.873 331.19 339.86C329.72 338.66 323.67 334.17 322.11 333.17C319.298 331.304 316.096 330.107 312.75 329.67L312.76 329.57Z" fill="#263238"/>
<path d="M315 323.6C318.716 324.226 322.359 325.231 325.87 326.6C329.64 328.24 332.69 331.11 335.68 333.86C337.48 335.52 339.25 337.21 340.97 338.94C341.04 339.01 340.97 339.14 340.87 339.07C337.823 336.217 334.697 333.46 331.49 330.8C328.527 328.313 325.101 326.437 321.41 325.28C319.3 324.62 317.15 324.12 314.99 323.62C314.91 323.65 314.92 323.59 315 323.6Z" fill="#263238"/>
<path d="M318.5 318.28C322.05 318.78 325.14 319.21 328.35 320.9C331.989 322.996 335.349 325.543 338.35 328.48C339.98 330.02 341.56 331.62 343.12 333.24C343.18 333.31 343.07 333.42 343.01 333.36C339.452 329.808 335.667 326.491 331.68 323.43C329.807 321.939 327.712 320.751 325.47 319.91C323.211 319.174 320.892 318.635 318.54 318.3C318.54 318.3 318.49 318.27 318.5 318.28Z" fill="#263238"/>
<path d="M297 314.52L289.08 346.19C289.08 346.19 262.08 340.19 256.89 335.29C251.7 330.39 241.12 303.87 237.69 290.93C234.26 277.99 240.9 277.93 247.49 285.8C254.08 293.67 270.49 312.8 271.33 313.17C272.17 313.54 297 314.52 297 314.52Z" fill="#FDC713"/>
<path d="M285.72 332.54C286.72 328.81 287.72 325.08 288.51 321.31C288.98 319.16 289.46 317.02 289.91 314.87C289.91 314.79 289.79 314.75 289.77 314.87C288.65 318.58 287.54 322.31 286.59 326.07C285.64 329.83 284.67 333.55 283.78 337.3C283.27 339.44 282.83 341.58 282.45 343.75C282.45 343.75 282.51 343.81 282.53 343.75C283.77 340.05 284.75 336.3 285.72 332.54Z" fill="#263238"/>
<path d="M285.82 314.3C285.831 315.012 285.788 315.725 285.69 316.43C285.58 317.134 285.41 317.826 285.18 318.5C284.71 319.849 284.017 321.11 283.13 322.23C282.255 323.368 281.129 324.289 279.84 324.92C278.552 325.53 277.174 325.928 275.76 326.1C274.567 326.261 273.363 326.328 272.16 326.3H271.51C270.1 326.3 268.69 326.15 267.28 326.03C264.475 325.699 261.654 325.512 258.83 325.47C257.424 325.47 256.025 325.659 254.67 326.03C253.654 326.314 252.708 326.805 251.89 327.47L251.83 327.35C252.655 326.681 253.608 326.188 254.63 325.9C255.997 325.518 257.41 325.323 258.83 325.32C261.658 325.35 264.482 325.53 267.29 325.86C268.7 325.98 270.11 326.09 271.52 326.12H272.39C273.507 326.13 274.623 326.06 275.73 325.91C277.118 325.738 278.468 325.343 279.73 324.74C281.014 324.132 282.135 323.227 283 322.1C283.862 320.994 284.538 319.754 285 318.43C285.45 317.101 285.663 315.703 285.63 314.3C285.635 314.214 285.635 314.127 285.63 314.04H285.85C285.845 314.127 285.835 314.214 285.82 314.3ZM277.39 313.69V313.64H277.19C277.195 313.663 277.195 313.687 277.19 313.71C277.286 315.113 277.195 316.522 276.92 317.9C276.3 320.656 274.961 323.199 273.04 325.27C272.751 325.572 272.448 325.859 272.13 326.13C272.061 326.195 271.988 326.256 271.91 326.31C271.222 326.877 270.478 327.373 269.69 327.79C268.435 328.434 267.118 328.949 265.76 329.33C263.003 329.961 260.295 330.793 257.66 331.82C256.801 332.207 255.984 332.68 255.22 333.23C255.248 333.26 255.271 333.294 255.29 333.33C256.05 332.785 256.864 332.319 257.72 331.94C260.349 330.92 263.05 330.094 265.8 329.47C267.181 329.09 268.521 328.574 269.8 327.93C270.657 327.485 271.459 326.941 272.19 326.31C272.273 326.259 272.35 326.199 272.42 326.13C272.693 325.89 272.953 325.64 273.2 325.38C274.179 324.348 275.007 323.184 275.66 321.92C276.339 320.664 276.834 319.317 277.13 317.92C277.41 316.529 277.498 315.105 277.39 313.69Z" fill="white"/>
<path opacity="0.1" d="M289.9 343L289.11 346.15C289.11 346.15 262.11 340.15 256.92 335.25C251.73 330.35 241.15 303.83 237.72 290.89C235.21 281.43 238.09 278.84 242.39 281.22C254.36 296.52 276.93 325.47 289.9 343Z" fill="black"/>
<path d="M202.33 351.67C204.33 352.43 263.14 338.59 263.14 338.59L257.31 318.12C257.31 318.12 261.02 311.82 259.76 305.51C258.09 297.09 243.38 282.64 242.22 281.78C237.52 278.31 233.22 277.64 229.13 279.57C211.92 287.63 202.33 351.67 202.33 351.67Z" fill="#FDC713"/>
<path d="M257.57 300.18L257.66 300.35H257.23H257C256.587 300.325 256.173 300.325 255.76 300.35C254.353 300.437 252.966 300.723 251.64 301.2C250.308 301.645 249.048 302.282 247.9 303.09C246.753 303.909 245.72 304.878 244.83 305.97C243.947 307.067 243.144 308.226 242.43 309.44C241.7 310.64 241.01 311.88 240.27 313.08C239.539 314.3 238.699 315.452 237.76 316.52C237.28 317.045 236.762 317.533 236.21 317.98C235.653 318.427 235.053 318.819 234.42 319.15C233.169 319.81 231.817 320.259 230.42 320.48C229.004 320.713 227.553 320.617 226.18 320.2C224.821 319.77 223.541 319.121 222.39 318.28C221.418 317.582 220.499 316.813 219.64 315.98L219.46 315.8L219.16 315.52C218.16 314.52 217.16 313.52 216.25 312.43C214.98 311.02 213.75 309.58 212.44 308.21C212.461 308.151 212.478 308.091 212.49 308.03C213.83 309.42 215.09 310.88 216.38 312.31C217.32 313.36 218.28 314.4 219.28 315.39L219.73 315.81L219.91 315.99C220.722 316.76 221.588 317.472 222.5 318.12C223.636 318.949 224.899 319.588 226.24 320.01C227.581 320.415 228.998 320.504 230.38 320.27C231.776 320.055 233.127 319.612 234.38 318.96C235.612 318.288 236.721 317.412 237.66 316.37C238.595 315.317 239.428 314.179 240.15 312.97C240.89 311.77 241.58 310.54 242.32 309.33C243.04 308.11 243.853 306.946 244.75 305.85C245.645 304.746 246.689 303.77 247.85 302.95C250.218 301.323 252.983 300.369 255.85 300.19C256.21 300.19 256.57 300.19 256.93 300.19H257.21L257.57 300.18ZM258.12 301.18L257.53 300.58L257.23 300.29L257.06 300.12C256.2 299.284 255.278 298.515 254.3 297.82C253.15 296.977 251.87 296.328 250.51 295.9C249.138 295.478 247.686 295.382 246.27 295.62C244.874 295.842 243.524 296.288 242.27 296.94C241.641 297.278 241.042 297.67 240.48 298.11C239.927 298.561 239.409 299.052 238.93 299.58C237.991 300.645 237.151 301.793 236.42 303.01C235.68 304.22 234.99 305.45 234.26 306.66C233.544 307.873 232.742 309.032 231.86 310.13C230.968 311.214 229.939 312.179 228.8 313C227.645 313.806 226.383 314.446 225.05 314.9C223.723 315.374 222.336 315.656 220.93 315.74C220.514 315.77 220.096 315.77 219.68 315.74C219.59 315.75 219.5 315.75 219.41 315.74C218.514 315.686 217.627 315.542 216.76 315.31C215.408 314.921 214.099 314.398 212.85 313.75C212.22 313.43 211.59 313.1 210.97 312.75C210.966 312.797 210.966 312.844 210.97 312.89C211.58 313.22 212.2 313.56 212.82 313.89C214.076 314.551 215.396 315.08 216.76 315.47C217.698 315.723 218.66 315.877 219.63 315.93H219.9C220.26 315.93 220.62 315.93 220.98 315.93C222.402 315.838 223.805 315.552 225.15 315.08C226.497 314.626 227.774 313.983 228.94 313.17C230.098 312.342 231.143 311.367 232.05 310.27C232.941 309.168 233.75 308.001 234.47 306.78C235.21 305.57 235.9 304.34 236.64 303.14C237.371 301.937 238.204 300.8 239.13 299.74C240.074 298.701 241.186 297.829 242.42 297.16C243.672 296.504 245.023 296.058 246.42 295.84C247.803 295.614 249.218 295.706 250.56 296.11C251.9 296.531 253.163 297.165 254.3 297.99C255.212 298.642 256.078 299.357 256.89 300.13L257.06 300.3L257.52 300.73C257.85 301.05 258.17 301.38 258.52 301.73C258.45 301.56 258.36 301.39 258.28 301.23L258.12 301.18Z" fill="white"/>
<path d="M249.8 289.42C251.21 291.24 252.73 292.97 254.18 294.75C253.53 293.44 252.88 292.14 252.18 290.86C253.239 292.377 254.147 293.995 254.89 295.69C255.982 297.036 256.984 298.452 257.89 299.93C259 301.693 259.795 303.635 260.24 305.67C260.617 307.731 260.573 309.847 260.11 311.89C259.547 314.231 258.774 316.517 257.8 318.72C257.68 319.02 257.26 318.81 257.36 318.52C258.65 314.64 260.09 310.52 259.42 306.41C258.75 302.3 256.42 298.75 254.1 295.41C252.749 293.365 251.27 291.407 249.67 289.55C249.61 289.44 249.74 289.34 249.8 289.42Z" fill="#263238"/>
<path d="M223.47 283.28C211.74 292.28 180.81 328.81 187.27 337.47C193.73 346.13 238.05 343.25 250.98 339.47C254.83 338.36 244.98 313.89 240.85 312.68C237.44 311.68 218.25 316.88 217.91 315.76C217.57 314.64 221.76 306.42 228.62 291.63C236.52 274.63 228.66 279.3 223.47 283.28Z" fill="#D3766A"/>
<path d="M259.76 308.48C268.62 308.71 270.86 310.13 278.44 306.35C283.44 303.87 287.14 305.98 283.76 310.67C278.23 318.35 266.76 320.46 262.53 320.04L259.76 308.48Z" fill="#D3766A"/>
<path d="M235.36 313C235.36 313 245.99 309.2 255.46 308.51C262.01 308.03 276.37 308.58 287.54 324.69C290.19 328.51 291.25 335.83 284.66 331.16C279.98 327.84 278.01 324.33 274.94 322.89C274.94 322.89 275.18 332.37 271.25 334.89C267.813 337.08 264.224 339.021 260.51 340.7C260.047 340.091 259.623 339.453 259.24 338.79C259.24 338.79 255.35 340.79 248.92 339.08L235.36 313Z" fill="#D3766A"/>
<path d="M261.78 309.07C264.54 311.14 270.29 315.62 273.78 320.92C277.59 326.82 283.35 339.19 278.98 341.92C275.77 343.92 273.15 339.42 273.15 339.42C273.15 339.42 274.45 345.04 271.15 346.24C268.15 347.34 266.33 343.71 266.33 343.71C266.33 343.71 266.54 347.25 263.43 347.71C259.7 348.31 259.89 340.78 255.59 338.12C254.57 337.61 261.78 309.07 261.78 309.07Z" fill="#D3766A"/>
<path d="M266.83 323.92C270.463 328.295 272.675 333.675 273.17 339.34C273.17 339.48 273.07 339.56 273.04 339.43C271.582 334.052 269.477 328.871 266.77 324L266.83 323.92Z" fill="#263238"/>
<path d="M261 327.94C262.74 330.19 266.32 337.27 266.4 343.71C266.4 343.85 266.29 343.93 266.27 343.8C265.093 338.35 263.305 333.05 260.94 328C260.94 328 261 327.91 261 327.94Z" fill="#263238"/>
<path d="M275 322.86C277.68 324.15 279.29 325.86 281.4 327.86C282.429 328.893 283.518 329.864 284.66 330.77C285.66 331.58 287.24 332.77 288.66 332.03C288.996 331.775 289.257 331.435 289.416 331.044C289.574 330.653 289.624 330.227 289.56 329.81C289.416 328.607 289.078 327.435 288.56 326.34C288.56 326.34 288.61 326.26 288.63 326.34C289.152 327.343 289.564 328.399 289.86 329.49C290.049 330.231 290.011 331.011 289.75 331.73C289.08 333.22 287.21 333.12 285.98 332.48C285.249 332.068 284.562 331.582 283.93 331.03C283.31 330.53 282.72 330.03 282.14 329.44C280.94 328.31 279.82 327.12 278.64 325.97C277.483 324.9 276.264 323.898 274.99 322.97C274.84 322.91 274.89 322.83 275 322.86Z" fill="#263238"/>
<path d="M279.22 333.77C278.005 330.062 276.555 326.434 274.88 322.91C274.88 322.91 274.88 322.83 274.95 322.91C277.047 326.185 278.727 329.709 279.95 333.4C280.627 335.406 280.889 337.529 280.72 339.64C280.23 342.59 278.18 342.83 277.44 342.85C276.553 342.854 275.692 342.554 275 342C274.194 341.304 273.541 340.45 273.08 339.49C273.08 339.44 273.08 339.4 273.15 339.44C273.98 340.77 275.49 342.2 277.15 342.26C277.513 342.284 277.876 342.236 278.22 342.117C278.563 341.999 278.88 341.813 279.15 341.57C279.703 340.935 280.012 340.123 280.02 339.28C280.068 337.411 279.797 335.548 279.22 333.77Z" fill="#263238"/>
<path d="M235.36 313L244.26 344C244.26 344 188.85 347.16 185.78 337.1C182.71 327.04 209.48 294.1 220.59 285.02C233.45 274.53 234.14 278.94 229.96 289.43C225.57 300.43 218.02 316.1 218.02 316.1L235.36 313Z" fill="#FDC713"/>
<path d="M220.56 310.74L220.47 310.94C220.137 310.96 219.803 310.96 219.47 310.94C218.048 310.819 216.656 310.464 215.35 309.89C214.248 309.418 213.182 308.867 212.16 308.24L211.94 308.11L211.6 307.9C210.4 307.15 209.24 306.34 208.09 305.51C206.75 304.51 205.42 303.56 204.09 302.62L204.19 302.5C205.55 303.43 206.88 304.42 208.19 305.37C209.34 306.19 210.5 307 211.69 307.74L212.22 308.06L212.44 308.19C213.401 308.774 214.403 309.285 215.44 309.72C216.731 310.269 218.102 310.606 219.5 310.72C219.853 310.746 220.207 310.753 220.56 310.74ZM228.72 286.32C228.272 286.876 227.871 287.468 227.52 288.09C226.831 289.33 226.262 290.632 225.82 291.98C225.35 293.32 224.95 294.68 224.5 295.98C224.065 297.321 223.53 298.628 222.9 299.89C222.268 301.145 221.475 302.311 220.54 303.36C219.588 304.396 218.494 305.292 217.29 306.02C216.099 306.768 214.81 307.347 213.46 307.74C213.057 307.859 212.646 307.949 212.23 308.01C212.137 308.02 212.043 308.02 211.95 308.01C211.071 308.155 210.179 308.205 209.29 308.16C207.884 308.078 206.49 307.853 205.13 307.49C203.76 307.14 202.4 306.72 201.04 306.36L200.95 306.47C202.33 306.85 203.7 307.28 205.09 307.63C206.459 308.001 207.863 308.229 209.28 308.31C210.247 308.359 211.216 308.302 212.17 308.14L212.45 308.09C212.804 308.029 213.155 307.949 213.5 307.85C216.242 307.044 218.718 305.517 220.67 303.43C221.624 302.377 222.431 301.2 223.07 299.93C223.703 298.66 224.244 297.347 224.69 296C225.14 294.66 225.55 293.3 226.02 292C226.459 290.666 227.025 289.376 227.71 288.15C228.4 286.928 229.292 285.832 230.35 284.91C230.816 284.509 231.314 284.148 231.84 283.83C231.84 283.72 231.84 283.63 231.91 283.53C231.309 283.883 230.74 284.288 230.21 284.74C229.669 285.223 229.17 285.752 228.72 286.32ZM233.77 313.32H233.7C233.78 313.937 233.82 314.558 233.82 315.18C233.82 315.57 233.82 315.95 233.82 316.34C233.82 316.34 233.82 316.43 233.82 316.48C233.742 317.453 233.578 318.416 233.33 319.36C232.983 320.727 232.448 322.04 231.74 323.26C231.024 324.475 230.127 325.574 229.08 326.52C226.89 328.301 224.578 329.925 222.16 331.38C220.977 332.162 219.878 333.063 218.88 334.07C218.204 334.764 217.604 335.529 217.09 336.35L216.94 336.6C216.76 336.91 216.59 337.22 216.44 337.54C215.459 339.656 214.944 341.958 214.93 344.29H215.11C215.112 343.398 215.189 342.509 215.34 341.63C215.563 340.245 215.98 338.898 216.58 337.63C216.76 337.256 216.961 336.892 217.18 336.54C217.223 336.453 217.276 336.373 217.34 336.3C217.815 335.544 218.368 334.841 218.99 334.2C219.978 333.197 221.067 332.299 222.24 331.52C224.56 329.92 227.08 328.57 229.17 326.63C230.22 325.674 231.12 324.565 231.84 323.34C232.552 322.111 233.088 320.788 233.43 319.41C233.663 318.495 233.817 317.562 233.89 316.62C233.89 316.57 233.89 316.52 233.89 316.48C233.89 316.05 233.89 315.63 233.89 315.2C233.885 314.565 233.845 313.931 233.77 313.3V313.32ZM237.23 323.92C237.058 322.514 236.613 321.155 235.92 319.92C235.3 318.74 234.57 317.63 233.86 316.51L233.78 316.39C233.199 315.502 232.672 314.58 232.2 313.63H232.14C232.624 314.625 233.169 315.59 233.77 316.52L233.84 316.64C234.53 317.73 235.24 318.82 235.84 319.96C236.521 321.198 236.956 322.556 237.12 323.96C237.247 325.363 237.023 326.775 236.47 328.07C235.892 329.357 234.959 330.454 233.78 331.23C232.604 331.985 231.333 332.58 230 333C227.307 333.834 224.573 334.531 221.81 335.09C220.43 335.41 219.05 335.74 217.7 336.15L217.31 336.27L217.06 336.34C215.917 336.693 214.801 337.128 213.72 337.64C212.428 338.245 211.242 339.055 210.21 340.04C209.177 341.036 208.39 342.258 207.91 343.61L207.82 343.88H208.04C208.059 343.805 208.082 343.732 208.11 343.66C208.578 342.337 209.344 341.139 210.35 340.16C211.365 339.192 212.53 338.395 213.8 337.8C214.806 337.317 215.846 336.906 216.91 336.57C216.987 336.534 217.067 336.508 217.15 336.49L217.75 336.3C219.1 335.9 220.47 335.56 221.84 335.24C224.611 334.674 227.351 333.966 230.05 333.12C231.401 332.674 232.686 332.048 233.87 331.26C235.067 330.468 236.014 329.351 236.6 328.04C237.147 326.733 237.363 325.311 237.23 323.9V323.92Z" fill="white"/>
<path d="M200.51 321.07C203.278 319.771 206.135 318.672 209.06 317.78C211.955 316.916 214.91 316.264 217.9 315.83C219.6 315.56 221.31 315.38 223.02 315.19C223.08 315.19 223.08 315.26 223.02 315.27C220.017 315.723 217.042 316.348 214.11 317.14C211.19 317.9 208.29 318.714 205.41 319.58C203.77 320.07 202.16 320.64 200.55 321.19C200.537 321.189 200.524 321.183 200.514 321.175C200.504 321.167 200.496 321.155 200.492 321.143C200.488 321.13 200.487 321.117 200.49 321.104C200.494 321.091 200.5 321.079 200.51 321.07Z" fill="#263238"/>
<path d="M235.23 312.91C234.95 312.91 219.54 315.34 219.02 315.49C219.12 315.28 223.02 307.94 223.61 306.87C223.67 306.76 223.72 306.65 223.78 306.55C224.13 306.08 224.48 305.62 224.78 305.15L226.05 303.3L224.71 305.08C224.497 305.36 224.297 305.64 224.11 305.92C224.5 305.16 224.88 304.4 225.26 303.63C225.87 302.4 226.43 301.16 227 299.92C227 299.92 226.95 299.85 226.93 299.92C225.78 302.06 224.57 304.16 223.41 306.29C222.25 308.42 217.87 316.29 217.89 316.29C217.91 316.29 234.89 313.29 235.26 313.2C235.298 313.196 235.334 313.177 235.358 313.147C235.382 313.117 235.394 313.078 235.39 313.04C235.386 313.002 235.367 312.966 235.337 312.942C235.307 312.917 235.268 312.906 235.23 312.91Z" fill="#263238"/>
<path d="M233.11 331.82C232.11 328.36 231.19 324.9 230.11 321.48C229.49 319.48 228.87 317.59 228.23 315.65C228.23 315.58 228.08 315.65 228.09 315.65C228.93 319.16 229.78 322.65 230.78 326.14C231.78 329.63 232.78 333.05 233.78 336.49C234.367 338.45 235.033 340.383 235.78 342.29C235.78 342.29 235.86 342.29 235.85 342.29C235.06 338.77 234.09 335.3 233.11 331.82Z" fill="#263238"/>
<path d="M244.88 344.57C244.49 343.57 244.02 342.21 243.59 341.26C243.48 341 243.3 341.02 243.38 341.26C243.65 342.13 243.84 343.09 244.11 343.98C243.33 343.98 242.56 343.98 241.78 344.05L239.09 344.16C237.34 344.23 235.58 344.28 233.83 344.32C230.27 344.38 226.713 344.38 223.16 344.32C216.026 344.186 208.903 343.685 201.82 342.82C199.82 342.56 197.82 342.27 195.9 341.92C193.96 341.604 192.038 341.19 190.14 340.68C190.14 340.68 190.06 340.75 190.14 340.77C191.747 341.4 193.403 341.898 195.09 342.26C196.85 342.64 198.63 342.98 200.42 343.26C203.98 343.81 207.56 344.17 211.15 344.43C218.27 344.937 225.403 345.15 232.55 345.07C234.55 345.07 236.55 345.027 238.55 344.94L241.55 344.82C242.665 344.833 243.779 344.75 244.88 344.57Z" fill="#263238"/>
<path d="M234 280.64C234 281.72 237.39 289.47 242.12 290.31C243.66 290.58 245.51 282.24 245.51 282.24L245.79 281.65L249.66 273.47L239.74 263.47C239.74 263.47 234 280.19 234 280.64Z" fill="#D3766A"/>
<path d="M249.63 273.46L245.76 281.65C243.629 280.25 241.816 278.419 240.438 276.274C239.06 274.13 238.148 271.72 237.76 269.2C238.76 266.3 239.57 263.89 239.68 263.54C239.684 263.524 239.684 263.506 239.68 263.49L240.96 264.68L249.63 273.46Z" fill="#263238"/>
<path d="M265.56 264.28C263.34 280.01 253.66 280.46 250.27 279.98C247.19 279.54 236.76 277.65 237.35 261.77C237.94 245.89 245.95 241.95 253.05 242.58C260.15 243.21 267.79 248.54 265.56 264.28Z" fill="#D3766A"/>
<path d="M263.64 262.57C263.28 262.45 262.98 262.28 262.64 262.13C262.265 262.021 261.935 261.793 261.7 261.48C261.646 261.366 261.632 261.238 261.659 261.115C261.686 260.992 261.753 260.881 261.85 260.8C262.066 260.675 262.311 260.608 262.56 260.608C262.809 260.608 263.054 260.675 263.27 260.8C263.752 260.983 264.148 261.34 264.38 261.8C264.416 261.905 264.422 262.017 264.399 262.125C264.375 262.233 264.322 262.332 264.245 262.411C264.169 262.491 264.072 262.548 263.965 262.576C263.858 262.604 263.746 262.602 263.64 262.57Z" fill="#263238"/>
<path d="M253.05 260.47C253.42 260.47 253.77 260.47 254.15 260.47C254.536 260.523 254.929 260.45 255.27 260.26C255.364 260.177 255.428 260.066 255.453 259.943C255.478 259.821 255.463 259.693 255.41 259.58C255.27 259.374 255.078 259.208 254.853 259.101C254.628 258.994 254.378 258.949 254.13 258.97C253.617 258.94 253.112 259.1 252.71 259.42C252.626 259.499 252.565 259.601 252.537 259.713C252.508 259.825 252.511 259.943 252.547 260.053C252.583 260.163 252.649 260.261 252.738 260.335C252.827 260.408 252.935 260.455 253.05 260.47Z" fill="#263238"/>
<path d="M255.11 263.22C255.11 263.22 255.02 263.22 255.01 263.3C254.85 264.37 254.47 265.57 253.45 265.74V265.8C254.65 265.86 255.13 264.26 255.11 263.22Z" fill="#263238"/>
<path d="M254.37 261.93C252.69 261.48 251.91 264.93 253.47 265.31C255.03 265.69 255.79 262.31 254.37 261.93Z" fill="#263238"/>
<path d="M253.66 262C253.32 262.12 252.95 262.4 252.59 262.35C252.23 262.3 251.93 261.87 251.74 261.46C251.74 261.46 251.68 261.46 251.67 261.46C251.546 261.759 251.541 262.095 251.656 262.398C251.771 262.701 251.998 262.949 252.29 263.09C252.9 263.33 253.49 262.86 253.81 262.24C253.87 262.11 253.8 261.91 253.66 262Z" fill="#263238"/>
<path d="M261 264.3C261 264.3 261.07 264.37 261.06 264.41C260.78 265.41 260.63 266.7 261.5 267.28C261.5 267.28 261.5 267.35 261.5 267.33C260.31 266.89 260.52 265.24 261 264.3Z" fill="#263238"/>
<path d="M262.16 263.42C263.89 263.7 263.16 267.13 261.61 266.87C260.06 266.61 260.72 263.19 262.16 263.42Z" fill="#263238"/>
<path d="M262.83 263.79C263.07 264.03 263.27 264.41 263.59 264.49C263.91 264.57 264.31 264.28 264.59 263.97H264.64C264.53 264.62 264.17 265.26 263.52 265.27C262.87 265.28 262.61 264.62 262.58 263.94C262.61 263.86 262.74 263.7 262.83 263.79Z" fill="#263238"/>
<path d="M252.75 272.43C252.93 272.75 253.08 273.15 253.45 273.29C253.845 273.375 254.254 273.375 254.65 273.29C254.65 273.29 254.71 273.29 254.65 273.35C254.445 273.516 254.199 273.622 253.938 273.657C253.677 273.692 253.411 273.655 253.17 273.55C252.972 273.436 252.813 273.266 252.711 273.061C252.61 272.857 252.571 272.627 252.6 272.4C252.63 272.39 252.72 272.39 252.75 272.43Z" fill="#263238"/>
<path d="M258.16 269.49C258.16 269.49 258.03 271.12 257.87 271.87C257.87 271.94 257.67 271.93 257.41 271.87C256.745 271.848 256.1 271.643 255.544 271.277C254.989 270.912 254.544 270.401 254.26 269.8C254.26 269.72 254.34 269.66 254.39 269.72C255.189 270.572 256.241 271.143 257.39 271.35C257.49 271.16 257.52 268.56 257.64 268.58C258.206 268.754 258.744 269.007 259.24 269.33C259.6 265.95 259.42 262.54 259.83 259.18C259.83 259.154 259.84 259.128 259.859 259.109C259.878 259.091 259.903 259.08 259.93 259.08C259.956 259.08 259.982 259.091 260.001 259.109C260.019 259.128 260.03 259.154 260.03 259.18C260.345 262.843 260.291 266.528 259.87 270.18C259.84 270.58 258.43 269.69 258.16 269.49Z" fill="#263238"/>
<path d="M257 271.53C256.477 271.993 255.843 272.313 255.16 272.46C254.785 272.533 254.395 272.484 254.05 272.32C253.29 271.96 253.41 271.23 253.68 270.63C253.825 270.317 254.006 270.021 254.22 269.75C254.933 270.625 255.907 271.249 257 271.53Z" fill="#263238"/>
<path d="M255.2 272.46C254.824 272.533 254.435 272.484 254.09 272.32C253.33 271.96 253.45 271.23 253.72 270.63C254.136 270.726 254.507 270.958 254.775 271.29C255.044 271.622 255.193 272.034 255.2 272.46Z" fill="#FF9BBC"/>
<path d="M237.15 262.61C238.264 262.418 239.309 261.941 240.185 261.226C241.061 260.511 241.738 259.583 242.15 258.53C245.169 258.153 248.034 256.98 250.45 255.13C250.25 255.41 248.84 257.47 248.09 258.49C258.32 259.56 263.52 253.03 263.52 253.03C264.866 255.285 265.686 257.814 265.92 260.43C265.92 260.43 267.76 254.51 265.92 249.62C265.341 247.941 264.325 246.446 262.977 245.29C261.629 244.133 259.998 243.357 258.25 243.04C256.027 241.749 253.497 241.08 250.926 241.105C248.355 241.13 245.838 241.846 243.64 243.18C235.32 248.17 237.15 262.61 237.15 262.61Z" fill="#263238"/>
<path d="M256 259.08C254.19 259.466 252.334 259.584 250.49 259.43C253.436 259.5 256.343 258.741 258.88 257.24C259.973 256.603 260.981 255.83 261.88 254.94C262.888 254.006 263.7 252.881 264.27 251.63C264.277 251.612 264.29 251.596 264.308 251.588C264.317 251.584 264.327 251.581 264.336 251.581C264.346 251.58 264.356 251.582 264.365 251.585C264.374 251.588 264.383 251.593 264.39 251.6C264.397 251.607 264.403 251.614 264.407 251.623C264.411 251.632 264.414 251.642 264.414 251.651C264.415 251.661 264.413 251.671 264.41 251.68C263.983 252.978 263.341 254.195 262.51 255.28C261.638 256.318 260.584 257.189 259.4 257.85C258.344 258.423 257.213 258.847 256.04 259.11" fill="#263238"/>
<path d="M239.68 263.33C239.68 263.33 237.41 257.72 234.94 258.42C232.47 259.12 233.39 266.71 235.75 268.26C236.038 268.479 236.368 268.637 236.719 268.726C237.07 268.814 237.435 268.831 237.793 268.775C238.15 268.719 238.493 268.591 238.8 268.4C239.107 268.208 239.372 267.957 239.58 267.66L239.68 263.33Z" fill="#D3766A"/>
<path d="M235.26 260.59C235.26 260.59 235.2 260.59 235.26 260.65C236.9 261.8 237.46 263.65 237.72 265.58C237.657 265.375 237.55 265.187 237.407 265.027C237.263 264.868 237.087 264.742 236.89 264.657C236.694 264.573 236.481 264.532 236.267 264.537C236.052 264.543 235.842 264.595 235.65 264.69C235.6 264.69 235.65 264.8 235.65 264.8C235.994 264.773 236.337 264.855 236.632 265.035C236.926 265.214 237.156 265.482 237.29 265.8C237.523 266.323 237.697 266.869 237.81 267.43C237.86 267.61 238.17 267.59 238.15 267.43V267.38C238.72 265 237.68 261.39 235.26 260.59Z" fill="#263238"/>
<path d="M321.83 351.21H256.4V354.14H321.83V351.21Z" fill="#C7C7C7"/>
<path d="M321.83 351.21V354.14H277.36L279.6 351.21H321.83Z" fill="#A6A6A6"/>
<path d="M282.42 354.14H346.19L351.5 310.83H287.73L282.42 354.14Z" fill="#C7C7C7"/>
<path d="M313.08 332.49C313.069 332.997 313.16 333.5 313.347 333.971C313.534 334.442 313.813 334.871 314.168 335.233C314.523 335.594 314.946 335.881 315.414 336.076C315.881 336.272 316.383 336.372 316.89 336.37C317.922 336.358 318.909 335.947 319.645 335.224C320.381 334.501 320.809 333.522 320.84 332.49C320.852 331.983 320.762 331.479 320.576 331.007C320.39 330.536 320.111 330.106 319.755 329.745C319.4 329.383 318.976 329.096 318.508 328.901C318.039 328.706 317.537 328.607 317.03 328.61C315.998 328.623 315.011 329.033 314.275 329.756C313.539 330.479 313.111 331.459 313.08 332.49Z" fill="white"/>
<path d="M325.26 233.3C324.802 237.697 323.131 241.881 320.433 245.383C317.735 248.886 314.117 251.569 309.982 253.135C305.848 254.7 301.36 255.085 297.019 254.247C292.678 253.409 288.655 251.382 285.4 248.39L273.46 250.15L279.46 239.83C278.089 236.471 277.501 232.844 277.743 229.224C277.984 225.604 279.048 222.086 280.854 218.939C282.659 215.792 285.158 213.098 288.161 211.063C291.164 209.027 294.592 207.702 298.184 207.191C301.775 206.679 305.437 206.993 308.889 208.109C312.341 209.224 315.493 211.113 318.106 213.63C320.718 216.148 322.723 219.228 323.966 222.636C325.209 226.045 325.658 229.692 325.28 233.3H325.26Z" fill="white"/>
<path d="M318.3 213.42C314.309 209.539 309.109 207.142 303.565 206.629C298.022 206.115 292.47 207.516 287.834 210.597C283.197 213.679 279.756 218.255 278.083 223.565C276.411 228.875 276.607 234.597 278.64 239.78L272.44 250.57C272.418 250.612 272.407 250.658 272.407 250.705C272.407 250.752 272.418 250.798 272.44 250.84C272.467 250.88 272.505 250.911 272.55 250.928C272.594 250.946 272.643 250.95 272.69 250.94L285.21 249C288.523 251.934 292.576 253.906 296.93 254.7C298.026 254.903 299.136 255.02 300.25 255.05C300.59 255.05 300.93 255.05 301.25 255.05C301.85 255.05 302.44 255.05 303.02 254.98H303.61C305.832 254.779 308.015 254.26 310.09 253.44C312.169 252.642 314.125 251.555 315.9 250.21C316.551 249.744 317.17 249.232 317.75 248.68L318.46 248.03L319.12 247.32C319.668 246.763 320.173 246.164 320.63 245.53C323.353 241.986 325.039 237.756 325.5 233.31C325.871 229.667 325.416 225.987 324.169 222.543C322.923 219.1 320.917 215.982 318.3 213.42ZM325 233.28C324.526 237.626 322.85 241.754 320.16 245.2C319.708 245.811 319.213 246.389 318.68 246.93C318.45 247.16 318.23 247.4 318.03 247.62L317.33 248.24C316.765 248.775 316.16 249.267 315.52 249.71C313.785 251.009 311.868 252.043 309.83 252.78C307.806 253.527 305.69 253.995 303.54 254.17H302.96C302.071 254.235 301.179 254.235 300.29 254.17C299.218 254.127 298.151 253.997 297.1 253.78C292.868 252.946 288.953 250.944 285.8 248L285.69 247.89C285.643 247.848 285.583 247.824 285.52 247.82L274.78 249.33L280.21 240.03C280.228 239.996 280.237 239.958 280.237 239.92C280.237 239.882 280.228 239.844 280.21 239.81L280.13 239.6C278.819 236.339 278.252 232.828 278.47 229.32C278.693 225.801 279.719 222.38 281.47 219.32C283.24 216.268 285.653 213.637 288.54 211.61C291.453 209.604 294.783 208.288 298.28 207.76C301.795 207.227 305.385 207.497 308.78 208.55C313.914 210.179 318.331 213.528 321.285 218.032C324.239 222.537 325.551 227.922 325 233.28Z" fill="#263238"/>
<path d="M292.31 231.77C292.312 232.285 292.161 232.788 291.877 233.217C291.592 233.646 291.187 233.981 290.712 234.179C290.237 234.377 289.714 234.43 289.209 234.331C288.704 234.232 288.24 233.985 287.875 233.622C287.51 233.259 287.262 232.795 287.161 232.291C287.06 231.786 287.11 231.263 287.307 230.787C287.503 230.312 287.837 229.905 288.264 229.619C288.692 229.333 289.195 229.18 289.71 229.18C290.398 229.18 291.058 229.452 291.545 229.938C292.032 230.423 292.307 231.082 292.31 231.77Z" fill="#263238"/>
<path d="M301.82 234.36C303.25 234.36 304.41 233.2 304.41 231.77C304.41 230.34 303.25 229.18 301.82 229.18C300.39 229.18 299.23 230.34 299.23 231.77C299.23 233.2 300.39 234.36 301.82 234.36Z" fill="#263238"/>
<path d="M313.93 234.36C315.36 234.36 316.52 233.2 316.52 231.77C316.52 230.34 315.36 229.18 313.93 229.18C312.5 229.18 311.34 230.34 311.34 231.77C311.34 233.2 312.5 234.36 313.93 234.36Z" fill="#263238"/>
</svg>
