<svg width="500" height="500" viewBox="0 0 500 500" fill="none" xmlns="http://www.w3.org/2000/svg">
<path d="M450.675 205.608C464.416 204.927 475.002 193.235 474.321 179.495C473.639 165.754 461.947 155.168 448.207 155.85C434.466 156.531 423.88 168.223 424.562 181.963C425.243 195.704 436.935 206.29 450.675 205.608Z" fill="#EBEBEB"/>
<path fill-rule="evenodd" clip-rule="evenodd" d="M446.06 190.61C445.4 190.2 444.83 189.61 443.94 189.68C443.61 189.68 443.68 189.43 443.68 189.25C443.68 185.917 443.68 182.6 443.68 179.3C443.68 179.05 443.68 178.86 443.96 178.72C446.49 177.45 447.59 174.93 449.14 172.78C449.936 171.712 450.509 170.496 450.825 169.202C451.141 167.908 451.194 166.564 450.98 165.25C450.88 164.51 451.23 164.17 451.9 164.02C452.238 163.903 452.604 163.899 452.944 164.007C453.285 164.115 453.582 164.33 453.79 164.62C454.517 165.973 455.008 167.441 455.24 168.96C455.231 170.217 455.077 171.469 454.78 172.69C454.66 173.6 454.45 174.5 454.28 175.43C454.5 175.59 454.76 175.5 455 175.51H463.4C464.59 175.51 465.16 175.85 465.33 176.63C465.42 177.113 465.349 177.611 465.129 178.05C464.908 178.489 464.551 178.843 464.11 179.06C463.9 179.17 463.52 179.06 463.49 179.4C463.46 179.74 463.86 179.7 464.05 179.84C465.05 180.53 464.88 181.97 463.7 182.84C463.42 183.04 462.87 182.95 462.86 183.36C462.85 183.77 463.37 183.69 463.6 183.92C463.78 184.153 463.904 184.426 463.961 184.715C464.017 185.004 464.006 185.303 463.928 185.587C463.849 185.872 463.705 186.134 463.508 186.353C463.31 186.572 463.065 186.742 462.79 186.85C462.619 186.901 462.452 186.965 462.29 187.04C462.15 187.13 462.02 187.24 462.29 187.43C462.577 187.562 462.821 187.773 462.991 188.039C463.162 188.305 463.253 188.614 463.253 188.93C463.253 189.246 463.162 189.555 462.991 189.821C462.821 190.087 462.577 190.298 462.29 190.43L461.93 190.7C461.484 190.963 460.965 191.075 460.45 191.02H447.22C447.009 191.034 446.797 191.005 446.598 190.934C446.399 190.864 446.216 190.753 446.06 190.61Z" fill="white"/>
<path fill-rule="evenodd" clip-rule="evenodd" d="M433.56 184.76C433.56 182.65 433.56 180.54 433.56 178.43C433.56 178.01 433.56 177.8 434.13 177.8C436.703 177.8 439.273 177.8 441.84 177.8C442.35 177.8 442.42 177.97 442.42 178.42C442.42 182.66 442.42 186.9 442.42 191.15C442.42 191.69 442.28 191.84 441.74 191.83C439.24 191.83 436.747 191.83 434.26 191.83C433.64 191.83 433.55 191.62 433.56 191.07C433.58 189 433.56 186.87 433.56 184.76Z" fill="white"/>
<path d="M163.39 134.86H49.22V61.6599H163.39V134.86ZM50.22 133.86H162.39V62.6599H50.22V133.86Z" fill="#EBEBEB"/>
<path d="M163.39 72.2599H49.22V61.6599H163.39V72.2599ZM50.22 71.2599H162.39V62.6599H50.22V71.2599Z" fill="#EBEBEB"/>
<path d="M58.72 67C58.72 67.479 58.5778 67.9473 58.3115 68.3455C58.0451 68.7437 57.6666 69.0538 57.2238 69.2367C56.781 69.4196 56.2939 69.4669 55.8242 69.3727C55.3545 69.2785 54.9233 69.0471 54.5853 68.7076C54.2472 68.3682 54.0175 67.936 53.9253 67.4659C53.833 66.9958 53.8824 66.5089 54.0671 66.0669C54.2518 65.6249 54.5635 65.2477 54.9628 64.9829C55.3621 64.7182 55.831 64.578 56.31 64.58C56.6273 64.58 56.9415 64.6426 57.2346 64.7644C57.5276 64.8861 57.7938 65.0645 58.0177 65.2894C58.2416 65.5142 58.4189 65.7811 58.5394 66.0746C58.66 66.3682 58.7213 66.6826 58.72 67Z" fill="#C7C7C7"/>
<path d="M68.57 67C68.568 67.4762 68.425 67.9411 68.159 68.3361C67.893 68.7311 67.5159 69.0385 67.0753 69.2194C66.6348 69.4002 66.1505 69.4465 65.6837 69.3524C65.2169 69.2583 64.7884 69.028 64.4524 68.6906C64.1163 68.3531 63.8878 67.9237 63.7956 67.4565C63.7034 66.9892 63.7517 66.5052 63.9344 66.0654C64.1171 65.6256 64.426 65.2498 64.8221 64.9854C65.2182 64.7211 65.6838 64.58 66.16 64.58C66.4773 64.58 66.7915 64.6426 67.0846 64.7644C67.3776 64.8861 67.6437 65.0645 67.8677 65.2894C68.0916 65.5142 68.2689 65.7811 68.3894 66.0746C68.5099 66.3682 68.5713 66.6826 68.57 67Z" fill="#EBEBEB"/>
<path d="M76.02 69.44C77.351 69.44 78.43 68.361 78.43 67.03C78.43 65.699 77.351 64.62 76.02 64.62C74.689 64.62 73.61 65.699 73.61 67.03C73.61 68.361 74.689 69.44 76.02 69.44Z" fill="#FFC727"/>
<path d="M40.26 224.5C39.0914 219.714 39.3682 214.689 41.0555 210.06C42.7428 205.431 45.7648 201.407 49.7392 198.496C53.7137 195.585 58.4621 193.917 63.3842 193.705C68.3062 193.492 73.1808 194.744 77.3914 197.301C81.6021 199.859 84.9598 203.608 87.0399 208.074C89.12 212.54 89.8291 217.522 89.0775 222.391C88.326 227.26 86.1475 231.797 82.8176 235.428C79.4877 239.059 75.1559 241.621 70.37 242.79C67.1919 243.568 63.8918 243.711 60.6582 243.213C57.4246 242.714 54.3209 241.584 51.5246 239.885C48.7282 238.186 46.2941 235.953 44.3612 233.313C42.4284 230.674 41.0347 227.679 40.26 224.5Z" fill="#EBEBEB"/>
<path d="M77.1699 221.7C73.4099 229.29 64.4499 233.79 64.4499 233.79C64.4499 233.79 55.4499 229.29 51.7399 221.7C48.6099 215.37 50.5899 208.53 55.5399 207.03C62.6299 204.89 64.4499 217.24 64.4499 217.24C64.4499 217.24 66.2699 204.89 73.3699 207.03C78.3199 208.53 80.2999 215.37 77.1699 221.7Z" fill="white"/>
<path d="M388.09 78.3899C384.15 80.8137 379.615 82.097 374.99 82.097C370.364 82.097 365.83 80.8137 361.89 78.3899C357.281 75.54 353.726 71.2647 351.766 66.2123C349.806 61.1599 349.547 55.6062 351.029 50.3934C352.51 45.1805 355.651 40.593 359.975 37.3265C364.299 34.06 369.571 32.2927 374.99 32.2927C380.409 32.2927 385.681 34.06 390.005 37.3265C394.329 40.593 397.47 45.1805 398.951 50.3934C400.433 55.6062 400.174 61.1599 398.214 66.2123C396.253 71.2647 392.699 75.54 388.09 78.3899Z" fill="#EBEBEB"/>
<path d="M374.99 61.9299C379.176 61.9299 382.57 58.5362 382.57 54.3499C382.57 50.1636 379.176 46.7699 374.99 46.7699C370.804 46.7699 367.41 50.1636 367.41 54.3499C367.41 58.5362 370.804 61.9299 374.99 61.9299Z" fill="white"/>
<path d="M388.09 75.2599V78.3899C384.15 80.8137 379.616 82.097 374.99 82.097C370.364 82.097 365.83 80.8137 361.89 78.3899V75.2599C361.89 71.7856 363.27 68.4535 365.727 65.9968C368.184 63.5401 371.516 62.1599 374.99 62.1599C378.464 62.1599 381.796 63.5401 384.253 65.9968C386.71 68.4535 388.09 71.7856 388.09 75.2599Z" fill="white"/>
<path d="M61.99 393.82L108.49 393.58L155 393.49L248 393.32L341 393.49L387.51 393.58L434.01 393.82L387.51 394.06L341 394.15L248 394.32L155 394.15L108.49 394.06L61.99 393.82Z" fill="#263238"/>
<path d="M144.65 451.43C207.511 451.43 258.47 444.092 258.47 435.04C258.47 425.988 207.511 418.65 144.65 418.65C81.7889 418.65 30.83 425.988 30.83 435.04C30.83 444.092 81.7889 451.43 144.65 451.43Z" fill="#EBEBEB"/>
<path d="M361.78 451.43C424.641 451.43 475.6 444.092 475.6 435.04C475.6 425.988 424.641 418.65 361.78 418.65C298.919 418.65 247.96 425.988 247.96 435.04C247.96 444.092 298.919 451.43 361.78 451.43Z" fill="#EBEBEB"/>
<path d="M417.84 92.89H82.3199V342.58H417.84V92.89Z" fill="#37474F"/>
<path d="M400.9 109.13H99.2699V288.43H400.9V109.13Z" fill="white"/>
<path d="M417.84 305.75H82.3199V342.58H417.84V305.75Z" fill="#C7C7C7"/>
<path d="M321.64 387.59H178.53V399.55H321.64V387.59Z" fill="#37474F"/>
<path d="M304.59 387.6H195.57L198.34 366.84L198.47 365.86L198.73 363.92L198.86 362.94L199.12 360.99L199.16 360.69L199.25 360.01L199.52 358.06L199.64 357.09L201.58 342.59H298.58L300.4 356.26L300.5 356.92L300.8 359.19L300.88 359.85L301 360.69L301.19 362.12L301.27 362.77L301.57 365.05L301.67 365.7L304.59 387.6Z" fill="#C7C7C7"/>
<path d="M400.9 109.13H99.2699V118.83H400.9V109.13Z" fill="#263238"/>
<path d="M107 114C107 114.477 106.858 114.943 106.593 115.34C106.328 115.736 105.951 116.045 105.51 116.227C105.069 116.41 104.584 116.457 104.116 116.363C103.648 116.269 103.219 116.039 102.882 115.701C102.546 115.363 102.317 114.932 102.225 114.464C102.133 113.996 102.182 113.511 102.366 113.071C102.55 112.631 102.861 112.255 103.258 111.991C103.656 111.728 104.123 111.588 104.6 111.59C104.916 111.59 105.229 111.652 105.521 111.774C105.813 111.895 106.078 112.073 106.301 112.296C106.524 112.52 106.7 112.786 106.82 113.078C106.94 113.371 107.001 113.684 107 114Z" fill="#C7C7C7"/>
<path d="M116.79 114C116.79 114.477 116.648 114.943 116.383 115.34C116.118 115.736 115.741 116.045 115.3 116.227C114.859 116.41 114.374 116.457 113.906 116.363C113.438 116.269 113.009 116.039 112.672 115.701C112.336 115.363 112.107 114.932 112.015 114.464C111.923 113.996 111.972 113.511 112.156 113.071C112.34 112.631 112.651 112.255 113.048 111.991C113.446 111.728 113.913 111.588 114.39 111.59C114.706 111.59 115.019 111.652 115.311 111.774C115.603 111.895 115.868 112.073 116.091 112.296C116.314 112.52 116.49 112.786 116.61 113.078C116.73 113.371 116.791 113.684 116.79 114Z" fill="white"/>
<path d="M126.62 114C126.62 114.477 126.479 114.943 126.214 115.339C125.949 115.735 125.573 116.044 125.132 116.227C124.692 116.409 124.207 116.457 123.74 116.364C123.272 116.271 122.843 116.041 122.506 115.704C122.169 115.367 121.939 114.938 121.846 114.47C121.753 114.003 121.801 113.518 121.983 113.078C122.166 112.637 122.475 112.261 122.871 111.996C123.267 111.731 123.733 111.59 124.21 111.59C124.849 111.59 125.462 111.844 125.914 112.296C126.366 112.748 126.62 113.361 126.62 114Z" fill="#FFC727"/>
<path d="M256.05 321.69C256.048 322.893 255.689 324.069 255.018 325.068C254.348 326.067 253.396 326.845 252.283 327.303C251.17 327.761 249.946 327.878 248.767 327.64C247.587 327.402 246.505 326.819 245.657 325.965C244.808 325.111 244.233 324.025 244.002 322.844C243.772 321.663 243.897 320.44 244.362 319.33C244.827 318.22 245.611 317.273 246.615 316.609C247.618 315.945 248.797 315.594 250 315.6C251.609 315.608 253.149 316.253 254.283 317.395C255.417 318.536 256.053 320.081 256.05 321.69Z" fill="#37474F"/>
<path d="M301 360.69H199.16L199.25 360.01L199.52 358.06L199.64 357.09L201.58 342.59H298.58L300.4 356.26L300.5 356.92L300.8 359.19L300.88 359.85L301 360.69Z" fill="#A6A6A6"/>
<path d="M400.9 118.82H99.2699V159.01H400.9V118.82Z" fill="#FFC727"/>
<path d="M383.44 272.65H261.56V187H383.44V272.65ZM262.56 271.65H382.44V188H262.56V271.65Z" fill="#EBEBEB"/>
<path d="M261.313 186.243L260.743 187.063L381.75 271.178L382.32 270.358L261.313 186.243Z" fill="#EBEBEB"/>
<path d="M262.35 272.56L261.77 271.74C262.93 270.93 377.89 190.68 382.64 187.1L383.24 187.9C378.48 191.49 263.51 271.75 262.35 272.56Z" fill="#EBEBEB"/>
<path d="M307.31 118.82H192.85V153.92H307.31V118.82Z" fill="#263238"/>
<path d="M239.94 170.06H160.53V171.68H239.94V170.06Z" fill="#EBEBEB"/>
<path d="M221.9 174.14H160.53V175.76H221.9V174.14Z" fill="#EBEBEB"/>
<path d="M235.18 178.22H160.53V179.84H235.18V178.22Z" fill="#EBEBEB"/>
<path d="M241.71 182.3H160.53V183.92H241.71V182.3Z" fill="#EBEBEB"/>
<path d="M202.62 186.38H160.53V188H202.62V186.38Z" fill="#EBEBEB"/>
<path d="M240.19 190.47H160.53V192.09H240.19V190.47Z" fill="#EBEBEB"/>
<path d="M226.84 194.55H160.53V196.17H226.84V194.55Z" fill="#EBEBEB"/>
<path d="M243.88 198.63H160.53V200.25H243.88V198.63Z" fill="#EBEBEB"/>
<path d="M240.19 202.71H160.53V204.33H240.19V202.71Z" fill="#EBEBEB"/>
<path d="M243.88 206.79H160.53V208.41H243.88V206.79Z" fill="#EBEBEB"/>
<path d="M128.93 129.81H117.22V131.43H128.93V129.81Z" fill="white"/>
<path d="M128.93 133.89H117.22V135.51H128.93V133.89Z" fill="white"/>
<path d="M128.93 137.97H117.22V139.59H128.93V137.97Z" fill="white"/>
<path d="M382.94 170.06H262.06V179.03H382.94V170.06Z" fill="#FFC727"/>
<path d="M155.57 170.05H117.22V208.41H155.57V170.05Z" fill="#A6A6A6"/>
<path d="M136.4 189.23C140.227 189.23 143.33 186.127 143.33 182.3C143.33 178.473 140.227 175.37 136.4 175.37C132.573 175.37 129.47 178.473 129.47 182.3C129.47 186.127 132.573 189.23 136.4 189.23Z" fill="white"/>
<path d="M148.38 201.43V208.43H124.38V201.43C124.38 198.247 125.644 195.195 127.895 192.945C130.145 190.694 133.197 189.43 136.38 189.43C139.562 189.43 142.615 190.694 144.865 192.945C147.116 195.195 148.38 198.247 148.38 201.43Z" fill="white"/>
<path d="M216.8 145.85V138.85C216.799 138.764 216.814 138.678 216.846 138.598C216.879 138.518 216.926 138.445 216.987 138.384C217.047 138.323 217.119 138.274 217.199 138.24C217.278 138.207 217.364 138.19 217.45 138.19H219.14C219.739 138.19 220.314 138.428 220.738 138.852C221.162 139.276 221.4 139.851 221.4 140.45C221.401 140.942 221.239 141.42 220.94 141.81C221.41 142.101 221.772 142.537 221.972 143.053C222.172 143.568 222.198 144.135 222.046 144.666C221.895 145.198 221.574 145.666 221.132 145.999C220.691 146.331 220.153 146.511 219.6 146.51H217.45C217.364 146.51 217.278 146.493 217.199 146.46C217.119 146.426 217.047 146.378 216.987 146.316C216.926 146.255 216.879 146.182 216.846 146.102C216.814 146.022 216.799 145.936 216.8 145.85ZM218.11 141.4H219.11C219.365 141.385 219.604 141.273 219.779 141.087C219.953 140.901 220.05 140.655 220.05 140.4C220.05 140.151 219.951 139.912 219.775 139.735C219.598 139.559 219.359 139.46 219.11 139.46H218.11V141.4ZM218.11 145.18H219.6C219.761 145.18 219.92 145.148 220.069 145.086C220.218 145.024 220.353 144.934 220.466 144.819C220.58 144.705 220.669 144.569 220.73 144.42C220.791 144.271 220.821 144.111 220.82 143.95C220.82 143.626 220.692 143.314 220.463 143.084C220.235 142.853 219.924 142.723 219.6 142.72H218.11V145.18Z" fill="white"/>
<path d="M223.86 145.85V138.85C223.859 138.764 223.874 138.678 223.907 138.598C223.939 138.518 223.986 138.445 224.047 138.384C224.107 138.323 224.179 138.274 224.259 138.24C224.338 138.207 224.424 138.19 224.51 138.19C224.685 138.19 224.853 138.26 224.977 138.383C225.1 138.507 225.17 138.675 225.17 138.85V145.19H228.4C228.574 145.195 228.739 145.268 228.861 145.393C228.982 145.518 229.05 145.686 229.05 145.86C229.047 146.032 228.978 146.195 228.857 146.317C228.735 146.438 228.572 146.507 228.4 146.51H224.51C224.423 146.511 224.337 146.495 224.257 146.462C224.177 146.43 224.104 146.381 224.044 146.319C223.983 146.258 223.935 146.184 223.904 146.103C223.872 146.023 223.857 145.937 223.86 145.85Z" fill="white"/>
<path d="M236.63 139.22C237.398 140.03 237.826 141.104 237.826 142.22C237.826 143.336 237.398 144.41 236.63 145.22C236.269 145.616 235.831 145.933 235.342 146.151C234.854 146.37 234.325 146.485 233.79 146.49C233.244 146.488 232.704 146.375 232.204 146.156C231.703 145.938 231.253 145.619 230.88 145.22C230.125 144.403 229.706 143.332 229.706 142.22C229.706 141.108 230.125 140.037 230.88 139.22C231.25 138.818 231.7 138.497 232.201 138.278C232.702 138.059 233.243 137.948 233.79 137.95C234.326 137.95 234.856 138.063 235.345 138.282C235.835 138.501 236.273 138.82 236.63 139.22ZM236.48 142.22C236.478 141.45 236.189 140.709 235.67 140.14C235.429 139.876 235.136 139.664 234.809 139.52C234.481 139.375 234.128 139.301 233.77 139.301C233.412 139.301 233.059 139.375 232.731 139.52C232.404 139.664 232.111 139.876 231.87 140.14C231.342 140.703 231.052 141.448 231.06 142.22C231.055 142.988 231.345 143.729 231.87 144.29C232.107 144.56 232.4 144.776 232.727 144.925C233.055 145.073 233.41 145.149 233.77 145.149C234.13 145.149 234.485 145.073 234.813 144.925C235.14 144.776 235.433 144.56 235.67 144.29C236.195 143.729 236.485 142.988 236.48 142.22Z" fill="white"/>
<path d="M239.81 142.24C239.815 141.671 239.933 141.108 240.156 140.584C240.379 140.06 240.703 139.585 241.11 139.186C241.517 138.788 241.998 138.474 242.527 138.261C243.055 138.049 243.62 137.943 244.19 137.95C245.17 137.947 246.124 138.271 246.9 138.87C246.98 138.921 247.048 138.988 247.1 139.066C247.153 139.145 247.188 139.234 247.205 139.327C247.221 139.42 247.217 139.516 247.194 139.608C247.172 139.7 247.13 139.786 247.072 139.86C247.014 139.935 246.941 139.997 246.858 140.042C246.775 140.087 246.683 140.114 246.589 140.121C246.494 140.129 246.399 140.117 246.31 140.085C246.221 140.054 246.139 140.005 246.07 139.94C245.53 139.527 244.87 139.302 244.19 139.3C243.793 139.296 243.4 139.371 243.033 139.521C242.666 139.67 242.331 139.891 242.05 140.17C241.769 140.434 241.546 140.752 241.393 141.106C241.24 141.459 241.161 141.84 241.161 142.225C241.161 142.61 241.24 142.991 241.393 143.344C241.546 143.698 241.769 144.016 242.05 144.28C242.331 144.559 242.666 144.78 243.033 144.929C243.4 145.079 243.793 145.154 244.19 145.15C244.763 145.143 245.325 144.988 245.82 144.7V143.07H244.12C243.94 143.067 243.769 142.995 243.642 142.868C243.515 142.741 243.443 142.57 243.44 142.39C243.44 142.302 243.458 142.214 243.492 142.133C243.526 142.051 243.577 141.978 243.64 141.916C243.704 141.855 243.779 141.806 243.861 141.774C243.944 141.742 244.032 141.727 244.12 141.73H246.49C246.578 141.727 246.666 141.742 246.749 141.774C246.831 141.806 246.906 141.855 246.97 141.916C247.033 141.978 247.083 142.051 247.118 142.133C247.152 142.214 247.17 142.302 247.17 142.39V145C247.176 145.067 247.176 145.133 247.17 145.2V145.26C247.125 145.378 247.044 145.479 246.94 145.55C246.167 146.148 245.217 146.472 244.24 146.47C243.671 146.485 243.105 146.387 242.574 146.182C242.043 145.977 241.557 145.669 241.146 145.276C240.734 144.883 240.404 144.412 240.175 143.891C239.946 143.37 239.822 142.809 239.81 142.24Z" fill="white"/>
<path d="M256.2 143.27H254.73V145.85C254.73 146.025 254.66 146.193 254.537 146.317C254.413 146.441 254.245 146.51 254.07 146.51C253.895 146.51 253.727 146.441 253.603 146.317C253.479 146.193 253.41 146.025 253.41 145.85V138.85C253.41 138.675 253.479 138.507 253.603 138.383C253.727 138.26 253.895 138.19 254.07 138.19H256.2C256.548 138.168 256.896 138.218 257.224 138.336C257.551 138.454 257.851 138.638 258.105 138.876C258.359 139.115 258.562 139.403 258.7 139.722C258.838 140.042 258.91 140.387 258.91 140.735C258.91 141.083 258.838 141.428 258.7 141.748C258.562 142.067 258.359 142.355 258.105 142.594C257.851 142.832 257.551 143.016 257.224 143.134C256.896 143.252 256.548 143.302 256.2 143.28V143.27ZM254.73 142H256.2C256.37 142.015 256.542 141.995 256.704 141.941C256.865 141.886 257.014 141.798 257.14 141.683C257.266 141.568 257.367 141.428 257.436 141.271C257.505 141.115 257.541 140.946 257.541 140.775C257.541 140.604 257.505 140.435 257.436 140.279C257.367 140.123 257.266 139.982 257.14 139.867C257.014 139.752 256.865 139.664 256.704 139.609C256.542 139.555 256.37 139.535 256.2 139.55H254.73V142Z" fill="white"/>
<path d="M266.9 139.22C267.668 140.03 268.096 141.104 268.096 142.22C268.096 143.336 267.668 144.41 266.9 145.22C266.539 145.616 266.101 145.933 265.612 146.151C265.124 146.37 264.595 146.485 264.06 146.49C263.514 146.488 262.974 146.374 262.474 146.156C261.973 145.938 261.523 145.619 261.15 145.22C260.395 144.403 259.976 143.332 259.976 142.22C259.976 141.108 260.395 140.037 261.15 139.22C261.523 138.821 261.973 138.502 262.474 138.284C262.974 138.065 263.514 137.952 264.06 137.95C264.596 137.95 265.126 138.063 265.616 138.282C266.105 138.501 266.543 138.82 266.9 139.22ZM266.75 142.22C266.748 141.45 266.459 140.709 265.94 140.14C265.699 139.876 265.406 139.664 265.079 139.52C264.751 139.375 264.398 139.301 264.04 139.301C263.682 139.301 263.329 139.375 263.001 139.52C262.674 139.664 262.381 139.876 262.14 140.14C261.612 140.703 261.322 141.448 261.33 142.22C261.325 142.988 261.615 143.729 262.14 144.29C262.377 144.56 262.67 144.776 262.997 144.925C263.325 145.073 263.68 145.149 264.04 145.149C264.4 145.149 264.755 145.073 265.083 144.925C265.41 144.776 265.703 144.56 265.94 144.29C266.465 143.729 266.755 142.988 266.75 142.22Z" fill="white"/>
<path d="M270.12 144.44C270.224 144.313 270.373 144.232 270.536 144.215C270.699 144.199 270.862 144.247 270.99 144.35C271.627 144.894 272.424 145.216 273.26 145.27C273.79 145.28 274.31 145.126 274.75 144.83C274.897 144.738 275.021 144.611 275.109 144.462C275.198 144.312 275.25 144.144 275.26 143.97C275.261 143.835 275.222 143.703 275.15 143.59C275.061 143.446 274.941 143.323 274.8 143.23C274.292 142.954 273.741 142.768 273.17 142.68C272.642 142.59 272.128 142.432 271.64 142.21C271.191 142.013 270.807 141.694 270.53 141.29C270.35 140.988 270.257 140.642 270.26 140.29C270.271 139.947 270.363 139.612 270.528 139.311C270.693 139.011 270.927 138.753 271.21 138.56C271.813 138.138 272.534 137.917 273.27 137.93C274.215 137.989 275.12 138.338 275.86 138.93C275.993 139.019 276.085 139.158 276.117 139.315C276.149 139.472 276.118 139.636 276.03 139.77C275.987 139.839 275.931 139.899 275.865 139.946C275.798 139.992 275.723 140.025 275.643 140.042C275.564 140.059 275.482 140.059 275.402 140.044C275.323 140.028 275.247 139.996 275.18 139.95C274.637 139.505 273.97 139.239 273.27 139.19C272.795 139.179 272.33 139.319 271.94 139.59C271.813 139.673 271.706 139.783 271.629 139.913C271.551 140.043 271.503 140.189 271.49 140.34C271.482 140.456 271.51 140.571 271.57 140.67C271.653 140.795 271.762 140.9 271.89 140.98C272.346 141.254 272.853 141.434 273.38 141.51C273.946 141.603 274.498 141.771 275.02 142.01C275.505 142.221 275.918 142.568 276.21 143.01C276.393 143.311 276.49 143.657 276.49 144.01C276.483 144.374 276.389 144.732 276.215 145.052C276.041 145.372 275.792 145.646 275.49 145.85C274.848 146.305 274.077 146.544 273.29 146.53C272.187 146.469 271.134 146.052 270.29 145.34C270.218 145.294 270.156 145.233 270.108 145.162C270.06 145.091 270.027 145.011 270.011 144.927C269.995 144.842 269.996 144.756 270.015 144.672C270.034 144.588 270.07 144.509 270.12 144.44Z" fill="white"/>
<path d="M283.22 139.5H281.33V145.85C281.33 146.022 281.261 146.188 281.14 146.31C281.018 146.432 280.852 146.5 280.68 146.5C280.508 146.5 280.342 146.432 280.22 146.31C280.098 146.188 280.03 146.022 280.03 145.85V139.5H278.15C277.976 139.497 277.809 139.427 277.686 139.304C277.563 139.181 277.493 139.014 277.49 138.84C277.489 138.753 277.505 138.667 277.537 138.586C277.57 138.505 277.619 138.432 277.68 138.37C277.742 138.309 277.815 138.26 277.896 138.228C277.976 138.195 278.063 138.179 278.15 138.18H283.22C283.395 138.18 283.563 138.25 283.687 138.373C283.81 138.497 283.88 138.665 283.88 138.84C283.877 139.014 283.807 139.181 283.684 139.304C283.561 139.427 283.394 139.497 283.22 139.5Z" fill="white"/>
<path d="M295.73 148.99H204.42V150.2H295.73V148.99Z" fill="white"/>
<path d="M175.89 213.98H117.22V272.65H175.89V213.98Z" fill="#EBEBEB"/>
<path d="M117.22 255.05H175.88V213.97H117.22V255.05Z" fill="#EBEBEB"/>
<path d="M124.08 225.65C124.08 226.611 124.365 227.551 124.899 228.35C125.433 229.149 126.192 229.772 127.08 230.14C127.968 230.508 128.945 230.604 129.888 230.417C130.831 230.229 131.697 229.766 132.377 229.087C133.056 228.407 133.519 227.541 133.707 226.598C133.894 225.655 133.798 224.678 133.43 223.79C133.062 222.902 132.439 222.143 131.64 221.609C130.841 221.075 129.901 220.79 128.94 220.79C128.301 220.789 127.669 220.914 127.079 221.157C126.488 221.401 125.952 221.759 125.5 222.211C125.049 222.662 124.691 223.198 124.447 223.789C124.203 224.379 124.079 225.011 124.08 225.65Z" fill="#DBDBDB"/>
<path d="M143.27 246.12H175.89L159.58 224.01L143.27 246.12Z" fill="#C7C7C7"/>
<path d="M130.48 246.22H157.41L143.95 231.83L130.48 246.22Z" fill="#DBDBDB"/>
<path d="M175.88 246.2H117.22V255.05H175.88V246.2Z" fill="#DBDBDB"/>
<path d="M171.73 259.13H121.39V260.75H171.73V259.13Z" fill="white"/>
<path d="M156.27 263.21H121.39V264.83H156.27V263.21Z" fill="white"/>
<path d="M163.81 267.29H121.39V268.91H163.81V267.29Z" fill="white"/>
<path d="M243.88 213.98H185.21V272.65H243.88V213.98Z" fill="#EBEBEB"/>
<path d="M185.21 255.05H243.87V213.97H185.21V255.05Z" fill="#DBDBDB"/>
<path d="M214.54 246.22C220.703 246.22 225.7 241.224 225.7 235.06C225.7 228.897 220.703 223.9 214.54 223.9C208.376 223.9 203.38 228.897 203.38 235.06C203.38 241.224 208.376 246.22 214.54 246.22Z" fill="#EBEBEB"/>
<path d="M209.2 229V241.12L222.03 235.06L209.2 229Z" fill="white"/>
<path d="M239.72 259.13H189.38V260.75H239.72V259.13Z" fill="white"/>
<path d="M224.26 263.21H189.38V264.83H224.26V263.21Z" fill="white"/>
<path d="M231.8 267.29H189.38V268.91H231.8V267.29Z" fill="white"/>
<path d="M382.99 129.81H322.8V139.59H382.99V129.81Z" fill="white"/>
<path d="M382.99 129.81H373.21V139.59H382.99V129.81Z" fill="#263238"/>
<path d="M378.42 133.761L377.519 134.444L380.291 138.102L381.192 137.42L378.42 133.761Z" fill="white"/>
<path d="M379.42 132.24C379.714 132.627 379.887 133.092 379.917 133.577C379.947 134.062 379.832 134.545 379.588 134.965C379.344 135.385 378.981 135.723 378.545 135.937C378.109 136.151 377.619 136.231 377.137 136.167C376.656 136.103 376.204 135.898 375.839 135.577C375.474 135.257 375.211 134.836 375.086 134.366C374.96 133.897 374.975 133.401 375.131 132.941C375.287 132.48 375.575 132.077 375.96 131.78C376.48 131.383 377.136 131.208 377.785 131.294C378.434 131.381 379.022 131.721 379.42 132.24Z" fill="white"/>
<path d="M378.64 132.84C378.819 133.072 378.926 133.352 378.946 133.644C378.966 133.936 378.899 134.228 378.753 134.482C378.607 134.736 378.389 134.942 378.126 135.072C377.864 135.202 377.568 135.251 377.278 135.213C376.987 135.175 376.714 135.052 376.494 134.859C376.274 134.666 376.115 134.411 376.04 134.128C375.964 133.845 375.974 133.546 376.068 133.269C376.163 132.991 376.337 132.748 376.57 132.57C376.881 132.332 377.273 132.227 377.661 132.278C378.049 132.329 378.401 132.531 378.64 132.84Z" fill="#263238"/>
<path d="M217.83 436.38C215.93 437.01 161.83 436.85 159.73 435.55C158.95 435.06 158.51 427.16 158.26 417.62C158.2 415.56 158.16 413.44 158.12 411.27C158.12 408.71 158.05 406.12 158.03 403.6C157.97 392.29 158.12 382.33 158.12 382.33H193.37V403.6V411.27L193.19 417.62C193.19 417.62 213.89 426.96 215.99 428.62C218.09 430.28 219.72 435.76 217.83 436.38Z" fill="#F7A9A0"/>
<path d="M217.83 436.38C215.93 437.01 161.83 436.85 159.73 435.55C158.95 435.06 158.51 427.16 158.26 417.62C158.2 415.56 158.16 413.44 158.12 411.27C158.12 408.71 158.05 406.12 158.03 403.6H193.35V411.27L193.17 417.62C193.17 417.62 213.87 426.96 215.97 428.62C218.07 430.28 219.72 435.76 217.83 436.38Z" fill="white"/>
<path d="M218 436.46C216.77 436.87 193.71 436.95 176.92 436.6C173.03 436.52 169.48 436.41 166.61 436.29C162.66 436.11 160.01 435.89 159.61 435.62C158.66 435.01 158.2 423.43 157.99 411.21H193.4L193.22 417.59C193.22 417.59 214 427 216.12 428.67C218.24 430.34 219.89 435.83 218 436.46Z" fill="#FFC727"/>
<path d="M217.22 434.28C208.09 434.03 171.22 433.88 162.22 434.33C162.15 434.33 162.15 434.38 162.22 434.39C171.22 434.83 208.09 434.68 217.22 434.39C217.41 434.43 217.41 434.29 217.22 434.28Z" fill="#263238"/>
<path d="M194.48 415.57C190.89 414.89 186.48 415.43 183.74 417.98C183.64 418.08 183.74 418.23 183.9 418.19C187.332 417.085 190.872 416.351 194.46 416C194.504 415.985 194.543 415.958 194.572 415.921C194.6 415.883 194.617 415.839 194.619 415.792C194.621 415.745 194.609 415.699 194.584 415.659C194.559 415.62 194.523 415.588 194.48 415.57Z" fill="#263238"/>
<path d="M197.07 417.14C193.48 416.46 189.07 417 186.33 419.55C186.22 419.65 186.33 419.8 186.48 419.76C189.917 418.666 193.46 417.942 197.05 417.6C197.08 417.601 197.11 417.597 197.139 417.586C197.167 417.576 197.193 417.56 197.216 417.54C197.238 417.519 197.256 417.495 197.269 417.467C197.281 417.44 197.289 417.41 197.29 417.38C197.291 417.35 197.287 417.32 197.276 417.291C197.266 417.263 197.25 417.237 197.23 417.214C197.209 417.192 197.185 417.174 197.157 417.161C197.13 417.149 197.1 417.141 197.07 417.14Z" fill="#263238"/>
<path d="M199.65 418.71C196.06 418.03 191.65 418.57 188.92 421.12C188.81 421.22 188.92 421.37 189.07 421.33C192.507 420.236 196.05 419.512 199.64 419.17C199.701 419.171 199.76 419.148 199.804 419.106C199.848 419.064 199.874 419.006 199.875 418.945C199.876 418.884 199.853 418.825 199.811 418.781C199.769 418.737 199.711 418.711 199.65 418.71Z" fill="#263238"/>
<path d="M202.24 420.28C198.65 419.6 194.24 420.14 191.51 422.69C191.4 422.79 191.51 422.94 191.66 422.9C195.094 421.807 198.633 421.08 202.22 420.73C202.272 420.722 202.32 420.695 202.355 420.656C202.39 420.616 202.411 420.566 202.413 420.513C202.415 420.46 202.4 420.408 202.368 420.366C202.336 420.323 202.291 420.293 202.24 420.28Z" fill="#263238"/>
<path d="M201.13 407.29C199.73 405.29 197.13 406.21 195.6 407.46C193.057 409.66 191.139 412.492 190.04 415.67C190.035 415.684 190.034 415.7 190.037 415.715C190.039 415.73 190.044 415.744 190.053 415.757C190.062 415.77 190.073 415.78 190.087 415.787C190.1 415.795 190.115 415.799 190.13 415.8C190.128 415.87 190.142 415.939 190.171 416.002C190.2 416.065 190.244 416.121 190.298 416.164C190.352 416.208 190.416 416.238 190.484 416.253C190.552 416.268 190.623 416.267 190.69 416.25C193.69 415.16 196.96 414.36 199.51 412.4C201 411.25 202.46 409.13 201.13 407.29ZM194.85 413.68C193.4 414.25 191.94 414.75 190.51 415.37C191.547 413.741 192.665 412.166 193.86 410.65C194.451 409.941 195.089 409.273 195.77 408.65C196.84 407.65 201.08 405.65 200.43 409.56C200.08 411.68 196.57 413 194.85 413.68Z" fill="#263238"/>
<path d="M180.92 414.71C183.92 415.98 187.28 415.92 190.42 416.24C190.49 416.24 190.559 416.223 190.622 416.192C190.685 416.16 190.739 416.114 190.781 416.058C190.822 416.002 190.85 415.936 190.863 415.867C190.875 415.798 190.87 415.727 190.85 415.66C190.864 415.655 190.877 415.647 190.888 415.636C190.899 415.625 190.907 415.612 190.912 415.597C190.917 415.583 190.918 415.567 190.916 415.552C190.914 415.537 190.908 415.523 190.9 415.51C189.044 412.711 186.485 410.449 183.48 408.95C181.71 408.11 178.94 407.95 178.07 410.16C177.2 412.37 179.19 414 180.92 414.71ZM179.3 412.14C177.7 408.49 182.3 409.42 183.59 410.09C184.426 410.54 185.231 411.044 186 411.6C187.58 412.73 189 414.07 190.42 415.34C188.89 415.09 187.34 414.98 185.8 414.79C183.91 414.56 180.19 414.16 179.3 412.14Z" fill="#263238"/>
<path d="M146.37 232.14C146.37 232.14 155.89 326.35 156.12 327.54C156.12 327.7 156.22 329.54 156.31 332.47C156.82 348.69 158.09 399.26 158.09 399.26H197C197 399.26 194.47 339.36 193 325.39C191.14 307.57 179.45 232.14 179.45 232.14H146.37Z" fill="#455A64"/>
<path d="M160.75 330.87C159.55 310.45 157.747 290.083 155.34 269.77C153.98 258.32 152.34 246.92 150.71 235.51C150.71 235.41 150.53 235.41 150.55 235.51C153.55 255.82 155.69 276.29 157.55 296.73C159.41 317.17 160.67 337.61 161.5 358.1C161.98 369.71 162.33 381.32 162.71 392.93C162.721 392.979 162.748 393.023 162.787 393.055C162.826 393.086 162.875 393.103 162.925 393.103C162.975 393.103 163.024 393.086 163.063 393.055C163.102 393.023 163.129 392.979 163.14 392.93C162.56 372.23 162 351.53 160.75 330.87Z" fill="#263238"/>
<path d="M194.5 393C193.45 392.901 192.395 392.858 191.34 392.87C190.18 392.87 189.01 392.82 187.84 392.77C185.593 392.69 183.343 392.633 181.09 392.6C176.55 392.52 172 392.55 167.47 392.69L163.73 392.82C162.4 392.87 161.06 392.99 159.73 392.99C159.63 392.99 159.64 393.11 159.73 393.11C162.01 393.11 164.32 393.3 166.61 393.39C168.9 393.48 171.11 393.51 173.36 393.54C177.89 393.6 182.45 393.54 186.98 393.4C188.22 393.4 189.47 393.33 190.72 393.29L192.72 393.21C193.311 393.22 193.901 393.2 194.49 393.15C194.502 393.155 194.515 393.157 194.527 393.157C194.54 393.156 194.553 393.152 194.564 393.145C194.575 393.139 194.584 393.129 194.591 393.118C194.597 393.107 194.601 393.095 194.602 393.082C194.603 393.069 194.601 393.056 194.596 393.045C194.59 393.033 194.582 393.023 194.572 393.014C194.562 393.006 194.551 393.001 194.538 392.998C194.525 392.996 194.512 392.996 194.5 393Z" fill="#263238"/>
<path d="M146.37 232.14C146.37 232.14 155.89 326.35 156.12 327.54C156.12 327.7 156.22 329.54 156.31 332.47L174.63 232.14H146.37Z" fill="#263238"/>
<path d="M80.83 411C79.11 410 43.83 368.89 43.51 366.47C43.37 365.55 49.06 360.07 56.12 353.65C57.64 352.25 59.12 350.75 60.84 349.39C62.94 347.68 65.07 345.98 67.14 344.39C76.14 337.39 83.93 331.87 83.93 331.87L106.3 357.8L90.38 370.75L83.85 376.07L78.92 380.07C78.92 380.07 85.38 401.84 85.48 404.53C85.58 407.22 82.54 412 80.83 411Z" fill="#F7A9A0"/>
<path d="M80.83 411C79.11 410 43.83 368.89 43.51 366.47C43.37 365.55 49.06 360.07 56.12 353.65C57.64 352.25 59.12 350.75 60.84 349.39C62.94 347.68 65.07 345.98 67.14 344.39C74.07 352.39 84.14 363.7 90.38 370.75L83.85 376.07L78.92 380.07C78.92 380.07 85.38 401.84 85.48 404.53C85.58 407.22 82.54 412 80.83 411Z" fill="white"/>
<path d="M80.88 411.19C79.16 410.19 43.71 368.84 43.35 366.41C43.19 365.28 51.66 357.41 60.78 349.23L83.91 376L78.91 380C78.91 380 85.4 401.89 85.51 404.6C85.62 407.31 82.6 412.22 80.88 411.19Z" fill="#FFC727"/>
<path d="M82.0001 409.18C76.2301 402.1 52.2801 374.12 46.0001 367.57C45.9501 367.52 45.9101 367.57 46.0001 367.57C51.5601 374.7 75.7401 402.49 81.8901 409.23C82.0001 409.42 82.1401 409.32 82.0001 409.18Z" fill="#263238"/>
<path d="M81.33 379.74C79.51 376.57 76.23 373.6 72.5 373.18C72.35 373.18 72.33 373.37 72.44 373.44C75.5201 375.314 78.3899 377.513 81 380C81.0394 380.021 81.0839 380.029 81.1281 380.025C81.1724 380.021 81.2145 380.005 81.2494 379.977C81.2843 379.95 81.3105 379.912 81.3248 379.87C81.3391 379.828 81.3409 379.783 81.33 379.74Z" fill="#263238"/>
<path d="M81.8401 382.72C80.0101 379.56 76.7301 376.58 73.0001 376.17C72.8601 376.17 72.8401 376.36 72.9401 376.42C76.0138 378.302 78.8769 380.508 81.4801 383C81.5198 383.039 81.5724 383.063 81.6281 383.066C81.6838 383.069 81.7388 383.052 81.7829 383.018C81.8269 382.984 81.857 382.935 81.8675 382.88C81.878 382.825 81.8683 382.768 81.8401 382.72Z" fill="#263238"/>
<path d="M82.3401 385.71C80.5101 382.54 77.2301 379.57 73.5001 379.15C73.3601 379.15 73.3401 379.34 73.4401 379.41C76.5233 381.291 79.3934 383.5 82.0001 386C82.0418 386.03 82.0925 386.045 82.144 386.043C82.1955 386.041 82.2447 386.022 82.2839 385.989C82.3231 385.955 82.35 385.909 82.3601 385.859C82.3703 385.808 82.3632 385.756 82.3401 385.71Z" fill="#263238"/>
<path d="M82.8401 388.69C81.0101 385.53 77.7301 382.55 74.0001 382.14C73.8601 382.14 73.8401 382.33 73.9401 382.39C77.0182 384.281 79.8846 386.497 82.4901 389C82.5104 389.023 82.5351 389.042 82.5627 389.055C82.5903 389.069 82.6203 389.076 82.6509 389.078C82.6816 389.08 82.7123 389.076 82.7413 389.066C82.7703 389.056 82.7971 389.04 82.8201 389.02C82.843 389 82.8618 388.975 82.8752 388.947C82.8887 388.92 82.8966 388.89 82.8984 388.859C82.9003 388.828 82.8961 388.798 82.8861 388.769C82.876 388.74 82.8604 388.713 82.8401 388.69Z" fill="#263238"/>
<path d="M92 379.36C92.55 377.03 90.18 375.6 88.25 375.28C84.9217 374.799 81.5255 375.199 78.4 376.44C78.3893 376.449 78.3808 376.461 78.375 376.474C78.3691 376.487 78.3661 376.501 78.3661 376.515C78.3661 376.529 78.3691 376.543 78.375 376.556C78.3808 376.569 78.3893 376.581 78.4 376.59C78.3441 376.632 78.2987 376.686 78.2675 376.749C78.2362 376.811 78.22 376.88 78.22 376.95C78.22 377.02 78.2362 377.089 78.2675 377.151C78.2987 377.214 78.3441 377.268 78.4 377.31C81.17 378.85 83.93 380.83 87.09 381.47C88.87 381.85 91.43 381.57 92 379.36ZM83 378.78C81.62 378.06 80.29 377.27 78.89 376.6C80.81 376.38 82.71 376.08 84.65 376.05C85.5847 376.021 86.5203 376.058 87.45 376.16C88.88 376.34 93.21 378.16 89.8 380.28C87.94 381.43 84.65 379.64 83 378.78Z" fill="#263238"/>
<path d="M73.13 368.9C74.13 371.97 76.36 374.51 78.18 377.1C78.2257 377.153 78.2832 377.195 78.3479 377.222C78.4125 377.249 78.4826 377.261 78.5526 377.256C78.6225 377.251 78.6904 377.23 78.7507 377.194C78.811 377.158 78.8621 377.109 78.9 377.05C78.9199 377.054 78.9406 377.051 78.9587 377.042C78.9769 377.033 78.9914 377.018 79 377C79.9094 373.764 79.9508 370.347 79.12 367.09C78.6 365.2 76.93 362.99 74.67 363.79C72.41 364.59 72.56 367.11 73.13 368.9ZM74 366C75.71 362.39 78 366.5 78.35 367.91C78.5434 368.824 78.677 369.749 78.75 370.68C78.8701 372.608 78.8901 374.54 78.81 376.47C77.99 375.14 77.07 373.9 76.21 372.6C75.2 371.07 73.07 368 74 366Z" fill="#263238"/>
<path d="M179.4 232.14C179.4 232.14 177.01 246.39 167.85 253.74C167.85 253.74 146.36 318.91 141.54 325.89C133.54 337.45 93.7601 368.08 93.7601 368.08L68.0601 338.28C68.0601 338.28 106.64 310.87 109.66 306.7C111.66 303.93 126.72 262.02 126.45 260.57C123.33 243.29 131.13 232.1 131.13 232.1L179.4 232.14Z" fill="#455A64"/>
<path d="M134.17 234.68C132.468 238.118 131.253 241.777 130.56 245.55C130.231 247.456 130.06 249.386 130.05 251.32C130.05 253.4 130.27 255.47 130.34 257.54C130.428 259.66 130.212 261.781 129.7 263.84C129.21 265.84 128.59 267.84 128 269.78C126.78 273.78 125.487 277.78 124.12 281.78C121.4 289.72 118.4 297.55 115.12 305.27C114.442 307.082 113.472 308.77 112.25 310.27C110.827 311.7 109.266 312.986 107.59 314.11L97.21 321.89L76.33 337.56V337.61C76.1 337.78 76.33 338.17 76.57 338C83.57 332.77 87.98 329.44 94.98 324.21L105.57 316.3C107.24 315.05 108.94 313.83 110.57 312.54C112.01 311.452 113.223 310.094 114.14 308.54C115.053 306.828 115.857 305.062 116.55 303.25C117.37 301.25 118.18 299.32 118.96 297.35C120.5 293.49 121.967 289.603 123.36 285.69C124.753 281.777 126.087 277.777 127.36 273.69C127.99 271.69 128.61 269.63 129.21 267.6C129.836 265.659 130.33 263.678 130.69 261.67C131.31 257.56 130.4 253.41 130.6 249.28C130.771 245.283 131.581 241.34 133 237.6C133.377 236.629 133.805 235.677 134.28 234.75C134.35 234.66 134.21 234.58 134.17 234.68Z" fill="#263238"/>
<path d="M147.57 235.17C146.893 237.925 145.334 240.384 143.13 242.17C140.685 244.087 137.735 245.251 134.64 245.52C134.12 245.59 134.11 246.38 134.64 246.36C140.97 246.11 147.18 241.77 147.81 235.16C147.84 235 147.6 235 147.57 235.17Z" fill="#263238"/>
<path d="M173.72 249.15C171.467 250.179 169.329 251.443 167.34 252.92C165.23 254.37 163.29 256.03 161.26 257.58C161.246 257.593 161.237 257.611 161.236 257.63C161.234 257.649 161.238 257.668 161.249 257.684C161.26 257.699 161.276 257.711 161.295 257.715C161.313 257.72 161.333 257.718 161.35 257.71C163.49 256.35 165.73 255.15 167.85 253.71C169.976 252.416 171.984 250.937 173.85 249.29C173.856 249.271 173.857 249.252 173.852 249.233C173.848 249.214 173.839 249.196 173.826 249.182C173.812 249.168 173.796 249.158 173.777 249.152C173.759 249.146 173.739 249.146 173.72 249.15Z" fill="#263238"/>
<path d="M174 235.92C173.73 237.38 173.37 238.83 173.06 240.29C172.75 241.75 172.54 243.05 172.18 244.4C171.883 245.708 171.221 246.904 170.27 247.85C169.73 248.35 169.14 248.79 168.57 249.24C168.26 249.49 167.93 249.73 167.57 249.98C167.57 249.78 167.64 249.59 167.68 249.39C167.77 248.83 167.87 248.27 167.96 247.72C168.17 246.48 168.37 245.25 168.55 244.01C168.93 241.58 169.27 239.12 169.78 236.71C169.78 236.62 169.65 236.58 169.62 236.71C169.02 239.09 168.35 241.45 167.82 243.86C167.56 245.04 166.64 250.86 166.6 251.28C166.56 251.7 166.52 252.13 166.51 252.56C166.45 252.991 166.45 253.429 166.51 253.86C166.51 253.97 166.66 253.95 166.7 253.86C166.874 253.457 166.999 253.034 167.07 252.6C167.18 252.18 167.27 251.76 167.35 251.34C167.35 251.19 167.35 251.03 167.42 250.87C167.99 250.53 168.52 250.06 169.06 249.68C169.6 249.3 170.23 248.85 170.77 248.39C171.785 247.538 172.518 246.398 172.87 245.12C173.221 243.746 173.449 242.344 173.55 240.93C173.74 239.28 173.87 237.61 174.1 235.93C174.087 235.917 174.07 235.909 174.052 235.907C174.034 235.906 174.015 235.91 174 235.92Z" fill="#263238"/>
<path d="M97.38 362.31C96.81 361.45 96.06 360.65 95.38 359.84C94.7 359.03 93.88 358.05 93.15 357.14C91.74 355.38 90.31 353.65 88.86 351.92C86 348.45 83 345 79.89 341.7C79.04 340.78 78.19 339.87 77.33 338.96C76.47 338.05 75.46 337.06 74.59 336.05C74.53 335.98 74.44 336.05 74.5 336.14C76.01 337.85 77.37 339.74 78.8 341.51C80.23 343.28 81.66 344.99 83.12 346.71C86.04 350.18 89.06 353.59 92.12 356.9C92.98 357.81 93.81 358.74 94.66 359.66C95.11 360.15 95.57 360.66 96.03 361.11C96.49 361.56 96.79 362.02 97.24 362.42C97.2546 362.439 97.276 362.451 97.2994 362.453C97.3228 362.456 97.3464 362.45 97.365 362.435C97.3836 362.42 97.3956 362.399 97.3984 362.376C97.4012 362.352 97.3946 362.329 97.38 362.31Z" fill="#263238"/>
<path d="M167.65 210.63C165.155 211.772 162.538 212.628 159.85 213.18C165.04 207.88 167.93 193.73 166.99 195.62C162.5 204.62 153.92 213.62 151.51 213.62C145.66 212.867 140.215 210.227 136 206.1C142.46 200.25 145.77 185.96 145.23 186.75C139.47 195.18 130.95 198.84 129.71 198.52C126.19 192.98 124.83 187.98 125.59 187.69C131.17 185.62 137.31 178.24 143.16 170.28C148.94 162.44 152.81 154.59 159.84 148.05C166.26 142.05 175.93 143 180.32 147.95C191.81 160.9 171.18 209 167.65 210.63Z" fill="#263238"/>
<path d="M168.38 145.4C164.31 145.4 160.28 148.11 157.47 150.87C153.73 154.55 150.76 159.02 147.42 163.05C140.929 171.034 133.233 177.957 124.61 183.57C124.57 183.593 124.541 183.63 124.529 183.674C124.517 183.718 124.522 183.765 124.545 183.805C124.568 183.845 124.605 183.874 124.649 183.886C124.693 183.898 124.74 183.893 124.78 183.87C133.62 180.08 140.72 173.27 146.95 166.01C150.13 162.29 152.95 158.27 155.95 154.48C157.59 152.365 159.511 150.484 161.66 148.89C163.706 147.519 166.009 146.577 168.43 146.12C168.51 146.096 168.58 146.045 168.628 145.976C168.676 145.907 168.698 145.824 168.693 145.74C168.687 145.656 168.653 145.577 168.596 145.515C168.539 145.453 168.463 145.413 168.38 145.4Z" fill="#263238"/>
<path d="M168.32 187.89C171.04 193.52 189.92 211.54 205.45 217.13C211.15 219.18 235.73 213.28 241.55 210.82C248.36 207.93 243.83 190.94 239.48 190.96C234.04 190.96 210.73 196.57 205.75 196.45C199.69 196.3 185.63 187.04 173.68 182.39C167.52 180 166.22 183.54 168.32 187.89Z" fill="#F7A9A0"/>
<path d="M241.55 210.82C243.74 210.02 253.46 205.46 255.88 203.59C258.3 201.72 264.88 195.83 263.64 193.83C262.4 191.83 260.33 193.4 260.33 193.4C260.33 193.4 262.71 190.47 261.27 188.57C259.83 186.67 256.71 189.22 256.71 189.22C256.71 189.22 258.93 186.04 257.37 184.22C255.81 182.4 253.08 185.51 253.08 185.51C253.08 185.51 255.25 182.7 253.34 181.77C251.04 180.64 247.62 186.29 244.79 188.16C244.15 188.58 231.16 195.82 231.16 195.82L241.55 210.82Z" fill="#F7A9A0"/>
<path d="M253.32 185.28C250.79 189.43 248.97 190.81 244.69 192.93C244.61 192.93 244.69 193.11 244.74 193.07C249.12 191.37 251.66 189.98 253.52 185.4C253.62 185.17 253.44 185.09 253.32 185.28Z" fill="#263238"/>
<path d="M256.9 188.89C253.9 192.97 251.9 194.48 247.62 197.03C247.56 197.03 247.62 197.18 247.68 197.15C252.12 194.99 254.62 193.54 257.08 189.07C257.19 188.87 257 188.7 256.9 188.89Z" fill="#263238"/>
<path d="M260.1 193.52C256.91 197.26 254.83 199.01 250.32 200.95C250.309 200.954 250.299 200.96 250.29 200.968C250.281 200.976 250.274 200.985 250.269 200.996C250.264 201.007 250.261 201.018 250.26 201.03C250.259 201.042 250.261 201.054 250.265 201.065C250.269 201.076 250.275 201.086 250.283 201.095C250.291 201.104 250.3 201.111 250.311 201.116C250.322 201.121 250.333 201.124 250.345 201.125C250.357 201.126 250.369 201.124 250.38 201.12C254.514 200.013 258.046 197.322 260.21 193.63C260.37 193.37 260.3 193.29 260.1 193.52Z" fill="#263238"/>
<path d="M227.31 195.12C229.148 192.828 231.154 190.675 233.31 188.68C235.45 186.97 245.76 183.54 246.63 185.68C247.75 188.5 242.19 191.68 239.26 192.84C239.26 192.84 241.86 199.36 238.35 202.49C234.84 205.62 227.31 195.12 227.31 195.12Z" fill="#F7A9A0"/>
<path d="M246.65 186.6C245.81 189.91 241.87 191.22 239.12 192.6C239.079 192.618 239.042 192.646 239.014 192.681C238.986 192.716 238.967 192.757 238.958 192.802C238.949 192.846 238.951 192.891 238.964 192.935C238.976 192.978 238.999 193.017 239.03 193.05C239.93 195.86 240.39 200.05 238.51 202.56C238.45 202.63 238.51 202.72 238.61 202.66C241 200.27 240.88 196.09 239.69 193.08C242.54 191.72 246.43 190.23 246.69 186.62C246.68 186.59 246.65 186.58 246.65 186.6Z" fill="#263238"/>
<path d="M216.74 194.84C216.74 194.84 220.34 193.76 220.67 194.76C221 195.76 219.16 197.2 219.16 197.2C219.16 197.2 221.67 197.2 221.99 198.79C222.31 200.38 219.68 201.39 219.68 201.39C219.68 201.39 222.4 202.17 222.49 203.3C222.61 204.82 220.29 205.62 220.29 205.62C220.29 205.62 222.93 205.83 223.03 207.32C223.13 208.81 220.73 209.54 220.73 209.54C220.73 209.54 223.51 209.89 223.78 211.01C224.09 212.34 221.36 213.53 221.36 213.53C221.36 213.53 223.99 213.96 224.15 215.11C224.31 216.26 221.71 217.21 220.35 217.22L216.74 194.84Z" fill="white"/>
<path d="M220.81 217.41C220.81 217.41 207.46 218.17 205.58 217.5C203.534 216.764 201.53 215.912 199.58 214.95C184.79 207.74 173.07 195.1 169.49 190.47C165.72 185.58 165.71 179.69 172.06 181.53C172.53 181.67 173.06 181.85 173.57 182.07C181.41 185.32 203 195.95 205.24 196.12C207.48 196.29 217.43 194.33 217.43 194.33L220.81 217.41Z" fill="#FFC727"/>
<path d="M199.56 215C184.77 207.79 173.05 195.15 169.47 190.52C165.7 185.63 165.69 179.74 172.04 181.58L199.56 215Z" fill="#263238"/>
<path d="M181.31 219.29L181.57 242.21C178.779 242.365 175.981 242.365 173.19 242.21C165.82 241.863 158.475 241.102 151.19 239.93C143.98 238.8 135.49 237.16 125.74 234.78C125.74 234.78 143.1 194.2 156.74 182.1C157.053 181.82 157.363 181.56 157.67 181.32L157.85 181.17C164.1 176.26 170.43 178.95 174.31 183.33C175.31 184.42 185.31 202.18 185.58 208.45C185.77 214 181.31 219.29 181.31 219.29Z" fill="#FFC727"/>
<path d="M173.19 242.23C165.82 241.883 158.475 241.122 151.19 239.95C152.19 229.26 155.61 192.95 156.71 182.12C157.023 181.84 157.333 181.58 157.64 181.34L173.19 242.23Z" fill="#263238"/>
<path d="M154.17 190.64C156.05 203.73 160.8 230.2 168.17 236.64C177.85 245.11 200.25 246.64 206.89 247.12C209.78 247.33 212.29 228.2 210.14 225.98C207.99 223.76 185 223 183 221.93C181 220.86 171 201.06 166.07 190.93C159.83 178.26 153.43 185.48 154.17 190.64Z" fill="#F7A9A0"/>
<path d="M227.74 229.3C231.36 229.37 236.19 226.47 236.93 229.06C237.59 231.37 234.05 233.06 234.05 233.06C234.05 233.06 238.65 232.45 238.66 235.14C238.67 237.83 234.4 238.87 234.4 238.87C234.4 238.87 238.66 238.54 238.48 241.22C238.3 243.9 234.38 245.11 234.38 245.11C234.38 245.11 235.6 245.66 234.62 247.49C233.21 250.11 226.88 251.22 223.43 251.02C219.98 250.82 207.53 247.51 205.63 247.02L206.76 224.9C206.76 224.9 213.05 222.44 216.4 221.58C219.75 220.72 231.55 220.95 231.69 223.88C231.83 226.81 223.49 226.51 221.44 226.88C219.39 227.25 219.12 227.79 220.17 228.35C222.661 228.884 225.194 229.201 227.74 229.3Z" fill="#F7A9A0"/>
<path d="M233.85 233.05C228.75 235.05 226.17 235.05 220.85 234.05C220.75 234.05 220.69 234.18 220.85 234.21C225.94 235.68 229.17 236.15 233.98 233.32C234.19 233.15 234.09 233 233.85 233.05Z" fill="#263238"/>
<path d="M234.6 238.73C229.12 240.34 226.33 240.36 220.71 239.73C220.63 239.73 220.61 239.85 220.71 239.87C226.17 240.97 229.4 241.38 234.66 239.05C234.88 238.91 234.85 238.65 234.6 238.73Z" fill="#263238"/>
<path d="M234.31 245.07C228.9 246.25 225.83 246.4 220.46 245.07C220.433 245.062 220.405 245.065 220.38 245.078C220.356 245.091 220.338 245.114 220.33 245.14C220.322 245.167 220.325 245.195 220.338 245.22C220.351 245.244 220.373 245.262 220.4 245.27C224.864 247.092 229.865 247.092 234.33 245.27C234.65 245.12 234.65 245 234.31 245.07Z" fill="#263238"/>
<path d="M192.34 221.69C192.34 221.69 196.43 221.79 196.44 222.94C196.45 224.09 194.05 224.94 194.05 224.94C194.05 224.94 196.63 225.83 196.44 227.55C196.25 229.27 193.17 229.46 193.17 229.46C193.17 229.46 195.73 231.19 195.44 232.4C195.06 234.01 192.38 234.06 192.38 234.06C192.38 234.06 195.05 235.17 194.64 236.75C194.23 238.33 191.51 238.27 191.51 238.27C191.51 238.27 194.27 239.57 194.17 240.82C194.05 242.3 190.82 242.62 190.82 242.62C190.82 242.62 193.39 243.95 193.17 245.2C192.95 246.45 189.93 246.55 188.52 246.1L192.34 221.69Z" fill="white"/>
<path d="M194.05 221.51L189.54 246.51C189.54 246.51 170.66 241.68 166.65 235.69C161.65 228.21 155.14 204.69 153.72 192.16C152.3 179.63 161.14 179.28 166.29 189.53C171.29 199.48 181.91 219.24 182.74 220.09C183.82 221.23 194.05 221.51 194.05 221.51Z" fill="#FFC727"/>
<path d="M181.43 217.55C180.92 216.55 179.91 214.44 179.43 213.55C178.43 211.71 177.38 209.87 176.33 208.04C175.28 206.21 174.25 204.37 173.17 202.56C172.98 202.26 172.81 201.94 172.62 201.63C172.62 201.41 171.82 198.87 171.7 198.23C171.7 198.13 171.52 198.16 171.55 198.23C171.712 198.858 171.829 199.496 171.9 200.14C171.9 200.26 171.9 200.38 171.98 200.5C171.29 199.31 170.6 198.11 169.9 196.96C169.85 196.87 169.71 196.96 169.76 197.03C171.15 199.53 171.91 201.13 172.96 203.17C174.01 205.21 175.07 207.1 176.14 209.05C177.21 211 178.33 212.94 179.43 214.87C180.069 216.028 180.767 217.153 181.52 218.24C182 218.92 182 218.54 181.43 217.55Z" fill="#263238"/>
<path d="M163.18 180.41C163.4 181.27 167.62 186.83 171.58 186.59C172.87 186.5 172.73 179.44 172.73 179.44L172.84 178.92L174.36 171.59L165.69 166.22L164.44 165.51C164.44 165.51 164.16 167.51 163.83 170.08C163.83 170.2 163.83 170.32 163.83 170.44C163.801 170.575 163.781 170.712 163.77 170.85C163.71 171.23 163.66 171.62 163.61 172C163.56 172.38 163.54 172.58 163.52 172.89C163.5 173.2 163.46 173.5 163.42 173.81C163.187 176.002 163.106 178.207 163.18 180.41Z" fill="#F7A9A0"/>
<path d="M163.83 170.08C164.598 172.119 165.801 173.966 167.356 175.492C168.91 177.019 170.778 178.189 172.83 178.92L174.35 171.59L165.68 166.22L164.43 165.51C164.43 165.51 164.16 167.55 163.83 170.08Z" fill="#263238"/>
<path d="M163.18 164.24C163.18 164.24 160.18 160.24 158.39 161.24C156.6 162.24 158.83 168.24 161.03 168.96C161.305 169.078 161.601 169.139 161.9 169.14C162.2 169.14 162.496 169.081 162.771 168.964C163.047 168.847 163.296 168.676 163.504 168.46C163.712 168.245 163.873 167.99 163.98 167.71L163.18 164.24Z" fill="#F7A9A0"/>
<path d="M159.09 162.93C159.09 162.93 159.04 162.93 159.09 162.99C159.804 163.323 160.44 163.802 160.957 164.396C161.473 164.99 161.86 165.687 162.09 166.44C161.996 166.29 161.872 166.162 161.725 166.065C161.578 165.967 161.412 165.902 161.238 165.873C161.064 165.845 160.886 165.854 160.715 165.9C160.545 165.946 160.386 166.028 160.25 166.14C160.25 166.14 160.25 166.24 160.25 166.23C160.516 166.138 160.805 166.131 161.075 166.21C161.346 166.288 161.585 166.449 161.76 166.67C162.049 167.044 162.301 167.446 162.51 167.87C162.58 168.01 162.83 167.93 162.77 167.77C162.76 165.79 161.19 163.08 159.09 162.93Z" fill="#263238"/>
<path d="M184.12 159.76C185.52 172.82 177.85 175.14 175.03 175.43C172.48 175.71 163.74 176.3 161.03 163.43C158.32 150.56 163.92 145.8 169.73 144.87C175.54 143.94 182.72 146.7 184.12 159.76Z" fill="#F7A9A0"/>
<path d="M181.5 158C181.198 157.965 180.897 157.915 180.6 157.85C180.279 157.839 179.969 157.723 179.72 157.52C179.658 157.438 179.624 157.338 179.624 157.235C179.624 157.132 179.658 157.032 179.72 156.95C179.862 156.8 180.042 156.691 180.241 156.635C180.44 156.579 180.65 156.577 180.85 156.63C181.271 156.679 181.659 156.882 181.94 157.2C182.003 157.276 182.042 157.369 182.052 157.467C182.061 157.565 182.041 157.664 181.993 157.75C181.946 157.837 181.873 157.907 181.785 157.951C181.697 157.996 181.598 158.013 181.5 158Z" fill="#263238"/>
<path d="M172.42 158.65C172.73 158.6 173 158.5 173.3 158.43C173.622 158.393 173.924 158.253 174.16 158.03C174.223 157.948 174.256 157.848 174.256 157.745C174.256 157.642 174.223 157.542 174.16 157.46C174.006 157.323 173.818 157.229 173.616 157.189C173.414 157.148 173.205 157.163 173.01 157.23C172.612 157.319 172.257 157.545 172.01 157.87C171.959 157.945 171.93 158.032 171.925 158.122C171.92 158.213 171.94 158.303 171.982 158.383C172.024 158.463 172.087 158.53 172.164 158.577C172.241 158.624 172.33 158.649 172.42 158.65Z" fill="#263238"/>
<path d="M174.29 161.89C174.29 161.89 174.22 161.94 174.23 161.98C174.31 162.87 174.23 163.9 173.46 164.25V164.3C174.45 164.1 174.51 162.72 174.29 161.89Z" fill="#263238"/>
<path d="M173.44 161C172 161 172.06 163.86 173.39 163.88C174.72 163.9 174.65 161 173.44 161Z" fill="#263238"/>
<path d="M172.87 161.17C172.63 161.34 172.39 161.64 172.08 161.67C171.77 161.7 171.46 161.42 171.22 161.13H171.17C171.17 161.68 171.4 162.24 172 162.31C172.6 162.38 172.92 161.88 173 161.31C173.07 161.26 173 161.11 172.87 161.17Z" fill="#263238"/>
<path d="M179.88 161.37C179.88 161.37 179.96 161.37 179.95 161.45C179.95 162.34 180.07 163.37 180.88 163.65C179.89 163.58 179.73 162.21 179.88 161.37Z" fill="#263238"/>
<path d="M180.67 160.42C182.11 160.3 182.26 163.18 180.93 163.3C179.6 163.42 179.47 160.53 180.67 160.42Z" fill="#263238"/>
<path d="M181.28 160.58C181.52 160.72 181.76 160.99 182.03 160.99C182.3 160.99 182.56 160.67 182.75 160.36C182.75 160.36 182.75 160.36 182.8 160.36C182.8 160.91 182.69 161.5 182.16 161.63C181.63 161.76 181.31 161.3 181.16 160.75C181.12 160.68 181.19 160.52 181.28 160.58Z" fill="#263238"/>
<path d="M174.88 168.74C175.09 168.96 175.29 169.25 175.62 169.29C175.964 169.294 176.304 169.226 176.62 169.09C176.488 169.263 176.311 169.397 176.108 169.478C175.906 169.559 175.685 169.584 175.47 169.55C175.292 169.492 175.134 169.385 175.014 169.242C174.894 169.099 174.816 168.925 174.79 168.74C174.78 168.73 174.85 168.71 174.88 168.74Z" fill="#263238"/>
<path d="M178.51 165.39C178.51 165.39 178.74 166.72 178.76 167.39C178.76 167.45 178.61 167.48 178.39 167.5C177.846 167.629 177.278 167.604 176.748 167.427C176.218 167.251 175.747 166.929 175.39 166.5C175.39 166.44 175.39 166.37 175.49 166.41C176.308 166.932 177.273 167.174 178.24 167.1C178.24 166.93 177.78 164.84 177.88 164.83C178.371 164.857 178.855 164.951 179.32 165.11C178.92 162.32 178.08 159.63 177.73 156.85C177.736 156.832 177.748 156.817 177.763 156.806C177.778 156.795 177.796 156.79 177.815 156.79C177.834 156.79 177.852 156.795 177.867 156.806C177.882 156.817 177.894 156.832 177.9 156.85C178.882 159.711 179.579 162.662 179.98 165.66C180.07 165.92 178.76 165.49 178.51 165.39Z" fill="#263238"/>
<path d="M161.8 164.3C163.96 164.3 164.11 159.75 164.11 159.75C164.11 159.75 168.47 159.43 169.43 153.04C169.45 154.931 168.919 156.787 167.9 158.38C167.9 158.38 175.53 156.97 178.28 150.28C178.28 150.28 177.28 153.66 176.11 154.92C178.019 154.172 179.619 152.801 180.65 151.03C180.65 151.03 182.28 154.64 183.4 155.59C183.4 155.59 182.04 142.14 169.67 144.54C169.67 144.54 161.9 145.66 159.57 152.06C157.24 158.46 161.8 164.3 161.8 164.3Z" fill="#263238"/>
<path d="M164 178.56C162.4 178.71 159.74 179.29 156.4 182.43C156.4 182.43 164.59 187.74 171.64 187.03C174.16 186.78 174.64 182.54 174.64 182.54C173.264 181.141 171.599 180.059 169.761 179.372C167.923 178.684 165.957 178.407 164 178.56Z" fill="#F7A9A0"/>
<path d="M325.79 436.6C327.69 437.24 382.08 437.43 384.16 436.13C384.95 435.64 385.44 427.72 385.76 418.13C385.83 416.06 385.89 413.92 385.93 411.75L390.34 382.75L354 382.51L350.57 411.51L350.71 417.9C350.71 417.9 329.85 427.14 327.71 428.81C325.57 430.48 323.89 436 325.79 436.6Z" fill="#DD6A57"/>
<path d="M325.79 436.6C327.69 437.24 382.08 437.43 384.16 436.13C385.16 435.53 385.64 423.96 385.93 411.75L350.55 411.52L350.69 417.91C350.69 417.91 329.83 427.15 327.69 428.82C325.55 430.49 323.89 436 325.79 436.6Z" fill="white"/>
<path d="M325.79 436.6C327.69 437.24 382.08 437.43 384.16 436.13C384.95 435.64 385.44 427.72 385.76 418.13L350.69 417.91C350.69 417.91 329.83 427.15 327.69 428.82C325.55 430.49 323.89 436 325.79 436.6Z" fill="#FFC727"/>
<path d="M326.58 434.42C335.69 434.23 372.49 434.32 381.52 434.82C381.59 434.82 381.59 434.88 381.52 434.88C372.52 435.27 335.69 434.88 326.58 434.57C326.38 434.57 326.38 434.43 326.58 434.42Z" fill="#263238"/>
<path d="M331.21 426.88C332.224 426.857 333.231 427.044 334.169 427.43C335.107 427.815 335.955 428.391 336.66 429.12C337.928 430.43 338.645 432.177 338.66 434C338.66 434.05 338.56 434.05 338.55 434C338.245 432.194 337.363 430.536 336.036 429.274C334.709 428.012 333.009 427.214 331.19 427C331.174 426.997 331.16 426.988 331.15 426.975C331.141 426.962 331.137 426.946 331.14 426.93C331.143 426.914 331.151 426.9 331.165 426.891C331.178 426.881 331.194 426.877 331.21 426.88Z" fill="#263238"/>
<path d="M347.15 418.8C350.8 418.8 355.03 420.07 357.28 423.06C357.37 423.17 357.2 423.3 357.1 423.24C353.918 421.557 350.565 420.216 347.1 419.24C347.054 419.221 347.015 419.188 346.989 419.144C346.963 419.101 346.953 419.051 346.958 419.001C346.964 418.951 346.986 418.905 347.02 418.868C347.055 418.832 347.1 418.808 347.15 418.8Z" fill="#263238"/>
<path d="M344.33 419.89C347.98 419.89 352.21 421.15 354.46 424.15C354.55 424.26 354.38 424.39 354.28 424.33C351.098 422.645 347.746 421.305 344.28 420.33C344.234 420.311 344.195 420.278 344.169 420.234C344.143 420.191 344.133 420.141 344.138 420.091C344.144 420.041 344.166 419.995 344.2 419.958C344.235 419.922 344.28 419.898 344.33 419.89Z" fill="#263238"/>
<path d="M341.51 421C345.16 421 349.38 422.26 351.64 425.26C351.73 425.37 351.56 425.49 351.45 425.44C348.269 423.753 344.917 422.412 341.45 421.44C341.403 421.42 341.365 421.386 341.34 421.342C341.315 421.298 341.305 421.247 341.312 421.197C341.318 421.147 341.342 421.1 341.377 421.065C341.413 421.029 341.46 421.006 341.51 421Z" fill="#263238"/>
<path d="M338.69 422.07C342.34 422.07 346.56 423.33 348.82 426.32C348.91 426.44 348.74 426.56 348.63 426.51C345.451 424.819 342.098 423.478 338.63 422.51C338.583 422.49 338.545 422.456 338.52 422.412C338.495 422.368 338.485 422.317 338.491 422.267C338.498 422.217 338.521 422.171 338.557 422.135C338.593 422.099 338.64 422.077 338.69 422.07Z" fill="#263238"/>
<path d="M379.23 426.16C383.32 426.16 383.29 432.54 379.18 432.52C375.07 432.5 375.12 426.13 379.23 426.16Z" fill="#263238"/>
<path d="M343.51 414.4C345.51 416.95 348.51 418.56 351.06 420.4C351.121 420.434 351.189 420.454 351.259 420.458C351.329 420.461 351.399 420.449 351.463 420.42C351.527 420.392 351.583 420.349 351.628 420.296C351.673 420.242 351.704 420.178 351.72 420.11C351.734 420.113 351.749 420.113 351.763 420.11C351.777 420.106 351.791 420.099 351.801 420.089C351.812 420.079 351.82 420.067 351.825 420.053C351.83 420.039 351.832 420.025 351.83 420.01C351.573 416.66 350.442 413.436 348.55 410.66C347.42 409.07 345.09 407.56 343.24 409.09C341.39 410.62 342.37 412.91 343.51 414.4ZM343.35 411.4C343.73 407.4 347.3 410.49 348.09 411.7C348.588 412.489 349.032 413.311 349.42 414.16C350.24 415.92 350.81 417.76 351.42 419.58C350.2 418.58 348.91 417.76 347.66 416.84C346.2 415.73 343.15 413.56 343.35 411.38V411.4Z" fill="#263238"/>
<path d="M364.8 417.69C364.52 415.3 361.8 414.78 359.88 415.14C356.578 415.818 353.515 417.356 351 419.6C350.988 419.608 350.977 419.619 350.97 419.632C350.963 419.646 350.96 419.66 350.96 419.675C350.96 419.69 350.963 419.705 350.97 419.718C350.977 419.731 350.988 419.742 351 419.75C350.963 419.81 350.941 419.878 350.936 419.948C350.93 420.017 350.94 420.088 350.967 420.153C350.993 420.218 351.034 420.276 351.087 420.322C351.139 420.369 351.202 420.402 351.27 420.42C354.39 420.91 357.66 421.83 360.84 421.35C362.75 421.07 365.06 419.94 364.8 417.69ZM356.2 420.2C354.66 419.99 353.14 419.71 351.59 419.56C353.32 418.7 355 417.77 356.82 417.08C357.685 416.729 358.574 416.442 359.48 416.22C360.89 415.89 365.58 416.16 363.1 419.28C361.74 421 358 420.45 356.2 420.2Z" fill="#263238"/>
<path d="M443.77 248.64C443.77 248.64 401.55 320.48 400.42 325.52C398.68 333.27 389.47 409.8 389.47 409.8L345.53 409C345.53 409 353.11 341.52 360.28 319.29C365.45 303.29 402.71 250.17 402.71 250.17L443.77 248.64Z" fill="#FFC727"/>
<path d="M349.53 402.28C355.84 402.28 378.2 401.98 386.6 402.76C386.616 402.76 386.631 402.766 386.642 402.778C386.654 402.789 386.66 402.804 386.66 402.82C386.66 402.836 386.654 402.851 386.642 402.863C386.631 402.874 386.616 402.88 386.6 402.88C383.7 403.3 355.83 402.65 349.53 402.45C349.516 402.455 349.502 402.456 349.488 402.454C349.473 402.452 349.46 402.447 349.448 402.438C349.437 402.43 349.427 402.419 349.42 402.406C349.414 402.394 349.41 402.379 349.41 402.365C349.41 402.351 349.414 402.337 349.42 402.324C349.427 402.311 349.437 402.3 349.448 402.292C349.46 402.283 349.473 402.278 349.488 402.276C349.502 402.274 349.516 402.275 349.53 402.28Z" fill="#263238"/>
<path d="M436.57 255.23C433.8 259.57 430.88 263.82 428.05 268.13C425.22 272.44 422.4 276.74 419.62 281.07C414.047 289.737 408.613 298.48 403.32 307.3C400.743 311.359 398.541 315.643 396.74 320.1C395.072 324.572 393.82 329.188 393 333.89C392.14 338.6 391.57 343.36 391 348.12C390.433 353.193 389.867 358.263 389.3 363.33L385.83 394.44C385.68 395.71 385.54 396.98 385.42 398.26C385.42 398.44 385.73 398.48 385.76 398.26C387.05 387.96 388.12 377.62 389.3 367.26C389.88 362.12 390.463 356.983 391.05 351.85C391.59 347.07 392.11 342.29 392.85 337.54C393.537 332.856 394.574 328.23 395.95 323.7C397.467 319.008 399.503 314.5 402.02 310.26C407.11 301.48 412.5 292.85 417.89 284.26C423.28 275.67 428.81 266.92 434.49 258.39C435.2 257.33 435.9 256.28 436.63 255.25C436.76 255.23 436.62 255.15 436.57 255.23Z" fill="#263238"/>
<path d="M406.44 442.64C408.44 442.77 462.44 428.54 464.09 426.75C464.162 426.642 464.206 426.519 464.22 426.39C464.43 424.62 461.67 417.99 459.73 409.51C459.61 408.97 458.6 406.39 457.17 402.92C453.26 393.36 446.27 376.97 446.27 376.97L411 386L424 412.08L425.76 418.22C425.76 418.22 408 432.47 406.32 434.63C404.64 436.79 404.45 442.5 406.44 442.64Z" fill="#DD6A57"/>
<path d="M406.44 442.64C408.44 442.77 462.44 428.54 464.09 426.75C464.162 426.642 464.206 426.519 464.22 426.39C464.43 424.62 461.67 417.99 459.73 409.51C459.61 408.97 458.6 406.39 457.17 402.92L424 412.08L425.76 418.22C425.76 418.22 408 432.47 406.32 434.63C404.64 436.79 404.45 442.5 406.44 442.64Z" fill="white"/>
<path d="M406.45 442.63C408.45 442.77 462.45 428.54 464.09 426.75C464.73 426.08 463.33 418.75 459.74 409.51L425.74 418.22C425.74 418.22 408 432.47 406.32 434.63C404.64 436.79 404.45 442.5 406.45 442.63Z" fill="#FFC727"/>
<path d="M406.66 440.33C415.42 437.83 451.03 428.54 459.89 426.73C459.96 426.73 459.97 426.73 459.89 426.79C451.26 429.46 415.58 438.46 406.68 440.48C406.5 440.52 406.47 440.39 406.66 440.33Z" fill="#263238"/>
<path d="M409.22 431.85C410.195 431.573 411.218 431.5 412.222 431.636C413.227 431.772 414.193 432.114 415.06 432.64C416.625 433.577 417.767 435.081 418.25 436.84C418.25 436.89 418.17 436.92 418.14 436.84C417.389 435.17 416.117 433.788 414.514 432.903C412.911 432.017 411.064 431.676 409.25 431.93C409.17 432 409.15 431.88 409.22 431.85Z" fill="#263238"/>
<path d="M422.57 420C426.09 419 430.51 419.21 433.46 421.53C433.57 421.62 433.46 421.78 433.32 421.76C429.814 420.939 426.23 420.5 422.63 420.45C422.575 420.448 422.523 420.427 422.483 420.391C422.442 420.354 422.416 420.305 422.409 420.25C422.402 420.196 422.414 420.142 422.443 420.096C422.473 420.05 422.518 420.016 422.57 420Z" fill="#263238"/>
<path d="M420.12 421.76C423.64 420.76 428.06 420.98 431.01 423.29C431.12 423.38 431.01 423.55 430.87 423.52C427.364 422.699 423.78 422.26 420.18 422.21C420.125 422.208 420.073 422.188 420.033 422.151C419.992 422.114 419.966 422.065 419.959 422.011C419.952 421.956 419.964 421.902 419.993 421.856C420.023 421.81 420.068 421.776 420.12 421.76Z" fill="#263238"/>
<path d="M417.67 423.53C421.19 422.53 425.61 422.75 428.56 425.07C428.67 425.15 428.56 425.32 428.42 425.29C424.911 424.469 421.323 424.03 417.72 423.98C417.666 423.976 417.615 423.954 417.576 423.917C417.537 423.879 417.513 423.829 417.507 423.776C417.501 423.722 417.514 423.668 417.544 423.623C417.574 423.578 417.618 423.545 417.67 423.53Z" fill="#263238"/>
<path d="M415.22 425.3C418.74 424.3 423.16 424.52 426.1 426.84C426.22 426.93 426.1 427.09 425.97 427.06C422.461 426.239 418.873 425.8 415.27 425.75C415.216 425.746 415.165 425.724 415.126 425.687C415.087 425.649 415.063 425.6 415.057 425.546C415.051 425.492 415.064 425.438 415.094 425.393C415.124 425.348 415.168 425.315 415.22 425.3Z" fill="#263238"/>
<path d="M455.47 418.93C459.47 417.93 461.02 424.08 457.05 425.1C453.08 426.12 451.49 420 455.47 418.93Z" fill="#263238"/>
<path d="M417.94 416.66C420.48 418.66 423.79 419.41 426.75 420.5C426.817 420.517 426.888 420.518 426.956 420.503C427.024 420.489 427.088 420.458 427.142 420.415C427.196 420.371 427.24 420.315 427.269 420.252C427.298 420.189 427.312 420.12 427.31 420.05C427.325 420.049 427.34 420.045 427.353 420.037C427.367 420.03 427.378 420.02 427.387 420.007C427.396 419.995 427.401 419.98 427.404 419.965C427.406 419.95 427.405 419.935 427.4 419.92C426.298 416.749 424.385 413.921 421.85 411.72C420.34 410.47 417.71 409.6 416.31 411.55C414.91 413.5 416.45 415.51 417.94 416.66ZM417.01 413.77C416.37 409.84 420.6 411.89 421.67 412.86C422.352 413.499 422.991 414.184 423.58 414.91C424.775 416.423 425.893 417.995 426.93 419.62C425.5 419 424.04 418.5 422.59 417.93C420.87 417.25 417.37 415.94 417 413.77H417.01Z" fill="#263238"/>
<path d="M439.36 414.41C438.48 412.18 435.72 412.36 433.96 413.2C430.952 414.7 428.393 416.966 426.54 419.77C426.53 419.778 426.521 419.789 426.515 419.801C426.51 419.813 426.507 419.827 426.507 419.84C426.507 419.853 426.51 419.867 426.515 419.879C426.521 419.891 426.53 419.902 426.54 419.91C426.52 419.977 426.515 420.048 426.528 420.117C426.54 420.186 426.568 420.252 426.609 420.308C426.651 420.364 426.706 420.41 426.768 420.442C426.831 420.473 426.9 420.49 426.97 420.49C430.11 420.17 433.51 420.22 436.46 418.95C438.24 418.21 440.19 416.53 439.36 414.41ZM431.69 419C430.14 419.2 428.6 419.31 427.07 419.56C428.52 418.29 429.91 416.96 431.48 415.83C432.232 415.275 433.021 414.77 433.84 414.32C435.12 413.65 439.73 412.71 438.13 416.32C437.24 418.4 433.52 418.81 431.69 419Z" fill="#263238"/>
<path d="M421.6 410.41L461.07 400.05C461.07 400.05 423.28 325.67 423.59 320.53C423.86 315.98 451.27 276.06 452.79 268.59C455.27 256.36 449.31 245.44 443.54 238.67L402.71 250.18C404.903 254.649 408.05 258.581 411.93 261.7C411.93 261.7 386.27 304.55 385.62 318.64C384.97 332.73 421.6 410.41 421.6 410.41Z" fill="#FFC727"/>
<path d="M420.84 403.05C426.57 401.41 424.9 401.8 430.65 400.23C433.46 399.46 451.94 394.41 454.65 394.15C454.71 394.15 454.73 394.24 454.65 394.26C452.13 395.4 433.57 400.12 430.74 400.84C424.97 402.31 426.61 401.84 420.82 403.22C420.78 403.25 420.74 403.09 420.84 403.05Z" fill="#263238"/>
<path d="M405.66 260.06C409.586 261.508 413.38 263.292 417 265.39C417.024 265.408 417.041 265.434 417.048 265.463C417.055 265.492 417.052 265.523 417.039 265.55C417.026 265.577 417.004 265.599 416.977 265.612C416.95 265.625 416.919 265.627 416.89 265.62C413.08 263.95 409.19 262.36 405.48 260.5C405.43 260.471 405.392 260.425 405.373 260.37C405.355 260.315 405.357 260.255 405.378 260.202C405.4 260.148 405.441 260.104 405.493 260.078C405.544 260.052 405.604 260.046 405.66 260.06Z" fill="#263238"/>
<path d="M410.46 259.05C410.751 259.767 410.995 260.502 411.19 261.25C411.399 261.83 411.498 262.444 411.48 263.06C411.48 263.17 411.3 263.18 411.24 263.06C410.896 262.517 410.639 261.923 410.48 261.3C410.23 260.62 409.96 259.94 409.74 259.3C409.707 259.205 409.713 259.1 409.757 259.009C409.801 258.918 409.879 258.848 409.975 258.815C410.07 258.782 410.175 258.788 410.266 258.832C410.357 258.876 410.427 258.955 410.46 259.05Z" fill="#263238"/>
<path d="M410.46 255.35C410.3 254.73 410.13 254.1 409.96 253.48C409.79 252.86 409.55 252.19 409.42 251.54C409.42 251.43 409.24 251.48 409.26 251.54C409.42 252.17 409.5 252.83 409.61 253.47C409.72 254.11 409.84 254.74 409.97 255.38C410.21 256.575 410.51 257.756 410.87 258.92C410.229 258.872 409.607 258.68 409.05 258.36C408.508 257.91 408.12 257.301 407.94 256.62C407.69 255.91 407.46 255.19 407.19 254.48C406.863 253.709 406.598 252.914 406.4 252.1C406.4 251.99 406.22 252.04 406.24 252.1C406.559 253.811 407.048 255.486 407.7 257.1C407.98 257.74 408.19 258.39 408.82 258.71C409.512 259.003 410.258 259.149 411.01 259.14C411.09 259.14 411.22 259.14 411.2 259.02C411.015 257.785 410.768 256.56 410.46 255.35Z" fill="#263238"/>
<path d="M411.14 263.1C409.59 265.91 407.81 268.6 406.14 271.34C404.47 274.08 402.98 276.74 401.46 279.49C398.407 285.03 395.587 290.697 393 296.49C391.72 299.35 390.513 302.24 389.38 305.16C388.163 308.083 387.16 311.091 386.38 314.16C385.653 317.206 385.517 320.363 385.98 323.46C386.547 326.613 387.353 329.719 388.39 332.75C390.507 339.739 393.083 346.58 396.1 353.23C396.2 353.45 396.57 353.28 396.49 353.06C394.33 346.97 392.09 340.91 390.16 334.75C388.28 328.75 386.05 322.58 387.09 316.24C387.661 313.193 388.529 310.209 389.68 307.33C390.78 304.33 391.97 301.44 393.22 298.55C395.7 292.84 398.49 287.3 401.33 281.77C402.92 278.67 404.6 275.62 406.21 272.53C407.82 269.44 409.41 266.24 411.21 263.24C411.33 263.09 411.19 263 411.14 263.1Z" fill="#263238"/>
<path d="M440.87 257.11C440.23 256.78 439.25 257.11 438.55 257.11C437.649 257.143 436.747 257.117 435.85 257.03C434.965 256.945 434.087 256.804 433.22 256.61C432.341 256.468 431.506 256.126 430.78 255.61C429.622 254.515 428.679 253.212 428 251.77C427.148 250.285 426.492 248.695 426.05 247.04C426.05 246.94 425.89 247.04 425.9 247.09C426.07 248.02 426.16 248.96 426.41 249.88C426.651 250.752 426.966 251.601 427.35 252.42C427.93 254.044 428.91 255.496 430.2 256.64C431.65 257.73 433.66 257.93 435.41 258.06C436.409 258.133 437.411 258.133 438.41 258.06C439.14 258 440.35 258.06 440.89 257.47C440.918 257.448 440.94 257.42 440.955 257.388C440.969 257.355 440.976 257.32 440.974 257.285C440.972 257.25 440.961 257.215 440.943 257.185C440.925 257.154 440.9 257.129 440.87 257.11Z" fill="#263238"/>
<path d="M451.27 391.52C446.303 381.4 441.45 371.217 436.71 360.97C431.97 350.723 427.333 340.4 422.8 330C421.557 327.561 420.568 325.001 419.85 322.36C419.23 319.46 420.13 316.85 421.35 314.25C423.637 309.503 426.191 304.889 429 300.43C431.78 295.93 434.71 291.54 437.6 287.12C440.603 282.801 443.358 278.313 445.85 273.68C448.215 269.312 449.209 264.332 448.7 259.39C448.06 254.39 445.9 249.72 443.59 245.32L441.73 241.84C441.73 241.75 441.55 241.84 441.6 241.92C444.18 246.54 446.66 251.39 447.86 256.57C448.483 259.13 448.676 261.776 448.43 264.4C448.11 267.054 447.36 269.637 446.21 272.05C444.07 276.77 441.08 281.11 438.21 285.44C435.34 289.77 432.38 294.25 429.57 298.72C426.706 303.201 424.083 307.831 421.71 312.59C420.515 314.676 419.689 316.953 419.27 319.32C418.99 321.93 419.94 324.44 420.95 326.8C425.34 337.09 429.95 347.29 434.65 357.45C439.35 367.61 444.21 377.77 449.15 387.86L451.03 391.67C451.12 391.83 451.35 391.68 451.27 391.52Z" fill="#263238"/>
<path d="M409.19 203.68C405.59 208.8 385.62 225.57 367.83 226.55C361.78 226.89 333.62 209.1 328.27 205.73C322.01 201.79 334.47 185.33 338.77 186.05C344.13 186.95 366.17 205.77 369.94 205.87C376 206.03 392.24 200.05 404.78 197.4C411.24 196 412 199.74 409.19 203.68Z" fill="#DD6A57"/>
<path d="M409.22 205.5C404.8 212.13 390 223 390 223L388 218.48L381.09 203.48C381.09 203.48 394.68 199.09 403.63 197.12C404.685 196.873 405.759 196.712 406.84 196.64C412.51 196.27 413 199.8 409.22 205.5Z" fill="#EBEBEB"/>
<path d="M392.35 200.91C392.526 201.534 392.611 202.181 392.6 202.83C392.615 203.479 392.531 204.127 392.35 204.75C392.017 203.492 392.017 202.168 392.35 200.91Z" fill="white"/>
<path d="M390.52 208.67C389.265 209.003 387.945 209.003 386.69 208.67C387.945 208.337 389.265 208.337 390.52 208.67Z" fill="white"/>
<path d="M409.92 197.94C409.296 198.116 408.649 198.201 408 198.19C407.351 198.206 406.703 198.121 406.08 197.94C407.338 197.607 408.662 197.607 409.92 197.94Z" fill="white"/>
<path d="M399.34 205.73C399.901 206.052 400.416 206.449 400.87 206.91C401.336 207.359 401.734 207.875 402.05 208.44C400.928 207.785 399.995 206.852 399.34 205.73Z" fill="white"/>
<path d="M392 214.87C392.561 215.192 393.076 215.589 393.53 216.05C393.996 216.499 394.394 217.015 394.71 217.58C394.147 217.264 393.632 216.87 393.18 216.41C392.716 215.955 392.319 215.436 392 214.87Z" fill="white"/>
<path d="M409.22 205.5C404.8 212.13 390 223 390 223L388 218.48C393.49 212.02 402 202.24 406.84 196.61C412.51 196.27 413 199.8 409.22 205.5Z" fill="#C7C7C7"/>
<path d="M392.69 220C391.55 217.24 386.44 206.09 385.17 203.76C385.08 203.59 384.96 203.61 385.03 203.76C387.254 209.305 389.774 214.726 392.58 220C392.62 220.06 392.72 220 392.69 220Z" fill="#263238"/>
<path d="M397.04 218.66C397.04 218.606 397.04 218.553 397.04 218.499C397.04 218.5 397.04 218.5 397.04 218.5V218.66Z" fill="#263238"/>
<path d="M400.54 252.26C402.54 253.67 405.07 255.77 417.91 255.05C418.71 255 419.52 254.92 420.34 254.8C432.55 252.91 448.53 241.08 449.45 240.22C449.45 240.22 435.05 207.45 412.56 194.65C409.78 193.07 404.56 194.65 401.5 197.09C400.4 197.96 397.27 205.09 397.24 211.18C397.21 217.27 398.53 250.86 400.54 252.26Z" fill="#EBEBEB"/>
<path d="M407.83 212.05C408.006 212.674 408.09 213.321 408.08 213.97C408.091 214.616 408.007 215.259 407.83 215.88C407.658 215.258 407.574 214.615 407.58 213.97C407.574 213.322 407.658 212.675 407.83 212.05Z" fill="white"/>
<path d="M413 234.05C413.333 235.308 413.333 236.632 413 237.89C412.667 236.632 412.667 235.308 413 234.05Z" fill="white"/>
<path d="M429 220.44C429.333 221.698 429.333 223.022 429 224.28C428.667 223.022 428.667 221.698 429 220.44Z" fill="white"/>
<path d="M399.75 231.14C399.926 231.764 400.01 232.411 400 233.06C400.011 233.706 399.927 234.349 399.75 234.97C399.578 234.348 399.494 233.705 399.5 233.06C399.494 232.412 399.578 231.765 399.75 231.14Z" fill="white"/>
<path d="M419.86 216.45C419.236 216.626 418.589 216.711 417.94 216.7C417.295 216.711 416.651 216.626 416.03 216.45C416.652 216.279 417.295 216.195 417.94 216.2C418.589 216.194 419.235 216.278 419.86 216.45Z" fill="white"/>
<path d="M433.45 233.48C432.195 233.813 430.875 233.813 429.62 233.48C430.875 233.147 432.195 233.147 433.45 233.48Z" fill="white"/>
<path d="M412.79 247C411.535 247.333 410.215 247.333 408.96 247C410.215 246.667 411.535 246.667 412.79 247Z" fill="white"/>
<path d="M436.85 244.39C436.228 244.561 435.585 244.645 434.94 244.64C434.292 244.646 433.645 244.562 433.02 244.39C433.644 244.214 434.291 244.13 434.94 244.14C435.585 244.13 436.229 244.214 436.85 244.39Z" fill="white"/>
<path d="M409.92 197.94C409.296 198.116 408.649 198.201 408 198.19C407.351 198.206 406.703 198.121 406.08 197.94C407.338 197.607 408.662 197.607 409.92 197.94Z" fill="white"/>
<path d="M416.59 200.43C417.712 201.085 418.645 202.018 419.3 203.14C418.733 202.827 418.217 202.429 417.77 201.96C417.303 201.511 416.906 200.995 416.59 200.43Z" fill="white"/>
<path d="M436.55 221.79C437.672 222.445 438.605 223.378 439.26 224.5C438.133 223.853 437.197 222.917 436.55 221.79Z" fill="white"/>
<path d="M404.63 224.08C405.752 224.735 406.685 225.668 407.34 226.79C406.773 226.477 406.257 226.079 405.81 225.61C405.344 225.161 404.946 224.645 404.63 224.08Z" fill="white"/>
<path d="M422.94 239.51C423.503 239.83 424.018 240.227 424.47 240.69C424.936 241.139 425.334 241.655 425.65 242.22C425.087 241.904 424.572 241.51 424.12 241.05C423.659 240.592 423.262 240.074 422.94 239.51Z" fill="white"/>
<path d="M399.34 205.73C399.901 206.052 400.416 206.449 400.87 206.91C401.336 207.359 401.734 207.875 402.05 208.44C400.928 207.785 399.995 206.852 399.34 205.73Z" fill="white"/>
<path d="M397.72 220.44C398.039 219.877 398.436 219.362 398.9 218.91C399.354 218.449 399.869 218.052 400.43 217.73C400.114 218.298 399.717 218.817 399.25 219.27C398.798 219.73 398.283 220.124 397.72 220.44Z" fill="white"/>
<path d="M441.06 236.76C441.378 236.196 441.776 235.681 442.24 235.23C442.694 234.769 443.209 234.373 443.77 234.05C443.457 234.62 443.059 235.139 442.59 235.59C442.138 236.05 441.623 236.444 441.06 236.76Z" fill="white"/>
<path d="M400.08 243.3C400.735 242.178 401.668 241.245 402.79 240.59C402.474 241.159 402.077 241.677 401.61 242.13C401.158 242.591 400.643 242.984 400.08 243.3Z" fill="white"/>
<path d="M424.55 211.82C424.866 211.257 425.26 210.742 425.72 210.29C426.173 209.823 426.692 209.426 427.26 209.11C426.605 210.232 425.672 211.165 424.55 211.82Z" fill="white"/>
<path d="M418.48 252.83C418.796 252.265 419.193 251.749 419.66 251.3C420.114 250.839 420.629 250.442 421.19 250.12C420.877 250.687 420.479 251.203 420.01 251.65C419.561 252.116 419.045 252.514 418.48 252.83Z" fill="white"/>
<path d="M418.5 228.14C419.155 227.018 420.088 226.085 421.21 225.43C420.57 226.563 419.633 227.5 418.5 228.14Z" fill="white"/>
<path d="M404.76 205.73C407.87 205.59 411.61 199.73 412.55 195.53C411.892 193.529 411.131 191.563 410.27 189.64C409.54 187.75 408.77 185.64 408.2 183.64C408.09 183.23 406.91 184.38 406.91 184.38L404.52 185.73L396.62 190.21C398.037 192.486 399.168 194.928 399.99 197.48C400.067 197.755 400.117 198.036 400.14 198.32C400.14 198.32 400.14 198.41 400.14 198.46C400.35 200.09 401.75 205.86 404.76 205.73Z" fill="#DD6A57"/>
<path d="M400.14 198.33C400.14 198.33 400.14 198.42 400.14 198.47C400.582 198.412 401.017 198.312 401.44 198.17C409.76 195.6 407.77 184.65 407.77 184.65L404.5 185.74L396.6 190.22C398.017 192.496 399.148 194.938 399.97 197.49C400.054 197.764 400.111 198.045 400.14 198.33Z" fill="#263238"/>
<path d="M409 171.32C410.56 175.86 408.59 189.19 405.43 192.25C400.85 196.69 393.13 197.37 389.3 191.81C385.58 186.42 388.45 169.1 392 166.3C397.19 162.16 406.66 164.62 409 171.32Z" fill="#DD6A57"/>
<path d="M396.64 180.36C396.64 180.36 396.7 180.42 396.69 180.45C396.54 181.35 396.51 182.45 397.28 182.81C397.28 182.81 397.28 182.87 397.28 182.86C396.29 182.58 396.34 181.19 396.64 180.36Z" fill="#263238"/>
<path d="M397.57 179.54C399.03 179.64 398.73 182.54 397.38 182.46C396.03 182.38 396.35 179.46 397.57 179.54Z" fill="#263238"/>
<path d="M391.11 179.67C391.11 179.67 391.04 179.67 391.03 179.75C390.97 180.65 390.74 181.68 389.9 181.89V181.94C390.91 181.91 391.2 180.54 391.11 179.67Z" fill="#263238"/>
<path d="M390.4 178.65C388.96 178.39 388.55 181.29 389.88 181.53C391.21 181.77 391.61 178.86 390.4 178.65Z" fill="#263238"/>
<path d="M398.86 178.33C398.487 178.177 398.123 178.003 397.77 177.81C397.368 177.679 397.018 177.423 396.77 177.08C396.713 176.954 396.7 176.813 396.733 176.679C396.766 176.545 396.842 176.426 396.95 176.34C397.185 176.202 397.452 176.129 397.725 176.129C397.997 176.129 398.265 176.202 398.5 176.34C399.025 176.547 399.453 176.943 399.7 177.45C399.752 177.569 399.767 177.701 399.744 177.829C399.722 177.957 399.662 178.075 399.572 178.169C399.482 178.263 399.367 178.328 399.24 178.357C399.114 178.386 398.981 178.376 398.86 178.33Z" fill="#263238"/>
<path d="M389.43 177.06C389.83 177.025 390.227 176.964 390.62 176.88C391.045 176.879 391.457 176.734 391.79 176.47C391.873 176.361 391.917 176.227 391.917 176.09C391.917 175.953 391.873 175.82 391.79 175.71C391.601 175.51 391.363 175.364 391.099 175.287C390.836 175.21 390.557 175.204 390.29 175.27C389.735 175.317 389.218 175.571 388.84 175.98C388.754 176.082 388.701 176.207 388.688 176.34C388.674 176.472 388.701 176.605 388.765 176.722C388.829 176.839 388.927 176.934 389.045 176.994C389.164 177.054 389.298 177.077 389.43 177.06Z" fill="#263238"/>
<path d="M396.57 188.52C396.33 188.71 396.09 188.98 395.76 188.98C395.424 188.935 395.101 188.823 394.81 188.65C394.92 188.841 395.079 188.998 395.271 189.105C395.463 189.213 395.68 189.266 395.9 189.26C396.087 189.226 396.261 189.14 396.401 189.01C396.541 188.881 396.642 188.714 396.69 188.53C396.69 188.53 396.61 188.5 396.57 188.52Z" fill="#263238"/>
<path d="M395.9 185.72C395.635 186.054 395.303 186.33 394.926 186.529C394.549 186.729 394.135 186.848 393.71 186.88C393.339 186.91 392.966 186.89 392.6 186.82H392.39L392.19 186.77C392.144 186.754 392.104 186.724 392.076 186.685C392.047 186.646 392.031 186.599 392.03 186.55C392.025 186.52 392.025 186.49 392.03 186.46V186.39C392.09 185.69 392.26 184.64 392.26 184.64C392 184.74 390.64 185.19 390.7 184.83C391.103 181.705 391.823 178.629 392.85 175.65C392.85 175.629 392.858 175.608 392.873 175.593C392.888 175.578 392.909 175.57 392.93 175.57C392.951 175.57 392.971 175.578 392.986 175.593C393.001 175.608 393.01 175.629 393.01 175.65C392.65 178.54 391.79 181.35 391.39 184.24C391.872 184.078 392.373 183.98 392.88 183.95C392.98 183.95 392.51 185.95 392.51 186.29C393.073 186.407 393.654 186.409 394.217 186.296C394.781 186.182 395.316 185.956 395.79 185.63C395.9 185.59 396 185.66 395.9 185.72Z" fill="#263238"/>
<path d="M393 186.51C393.333 187.046 393.798 187.486 394.35 187.79C394.659 187.946 395.008 188.002 395.35 187.95C396.09 187.84 396.17 187.18 396.1 186.6C396.059 186.292 395.981 185.99 395.87 185.7C395.024 186.27 394.019 186.554 393 186.51Z" fill="#263238"/>
<path d="M394.39 187.79C394.699 187.946 395.048 188.002 395.39 187.95C396.13 187.84 396.21 187.18 396.14 186.6C395.756 186.57 395.374 186.671 395.056 186.887C394.737 187.104 394.503 187.422 394.39 187.79Z" fill="#FF99BA"/>
<path d="M407.8 182.44C405.51 182.24 405.89 176.62 405.89 176.62C405.89 176.62 402.4 175.89 400.82 171.02C400.82 171.02 396.22 173.73 392.45 172.93C386.55 171.68 386.93 163.93 389.2 162.46C392.41 160.33 397.93 163.73 397.93 163.73C397.93 163.73 406.48 161.61 408.84 167.43C409.937 167.538 410.952 168.059 411.679 168.887C412.407 169.715 412.793 170.788 412.76 171.89C412.9 176.08 409.51 182.59 407.8 182.44Z" fill="#263238"/>
<path d="M406.69 177.3C404.993 176.959 403.459 176.062 402.33 174.75C401.726 174.038 401.302 173.191 401.094 172.281C400.885 171.371 400.897 170.424 401.13 169.52C401.124 169.505 401.114 169.492 401.101 169.482C401.087 169.473 401.071 169.468 401.055 169.468C401.039 169.468 401.023 169.473 401.009 169.482C400.996 169.492 400.986 169.505 400.98 169.52C400.686 170.463 400.604 171.459 400.738 172.437C400.873 173.415 401.222 174.352 401.76 175.18C402.302 175.967 403.043 176.597 403.907 177.006C404.771 177.415 405.727 177.589 406.68 177.51C406.708 177.511 406.735 177.502 406.756 177.483C406.776 177.464 406.789 177.438 406.79 177.41C406.791 177.382 406.781 177.355 406.763 177.334C406.744 177.314 406.718 177.301 406.69 177.3Z" fill="#263238"/>
<path d="M413.14 169.45C412.01 167.93 410.23 167.65 408.47 167.66C408.37 167.66 408.37 167.83 408.47 167.82C409.349 167.812 410.214 168.041 410.974 168.483C411.734 168.925 412.361 169.563 412.79 170.33C413.136 171.055 413.332 171.842 413.368 172.644C413.405 173.446 413.279 174.247 413 175C412.242 177.953 410.414 180.519 407.87 182.2C407.87 182.2 407.87 182.3 407.87 182.27C409.316 181.418 410.573 180.279 411.563 178.924C412.553 177.569 413.257 176.026 413.63 174.39C414 172.8 414.17 170.85 413.14 169.45Z" fill="#263238"/>
<path d="M398.15 164C397.439 162.776 396.304 161.854 394.96 161.41C393.325 160.916 391.566 161.045 390.02 161.77C389.404 162.076 388.88 162.54 388.502 163.114C388.125 163.689 387.906 164.353 387.87 165.04C387.827 166.637 388.332 168.2 389.3 169.47C389.3 169.47 389.38 169.47 389.36 169.47C388.59 168.282 388.206 166.885 388.26 165.47C388.295 164.793 388.521 164.139 388.912 163.586C389.304 163.032 389.844 162.6 390.47 162.34C392.94 161.34 396.47 161.61 398.02 164.13C398.07 164.19 398.2 164.1 398.15 164Z" fill="#263238"/>
<path d="M406.5 182.21C406.5 182.21 409.43 177.89 411.39 178.93C413.35 179.97 411.19 186.21 408.92 187.09C408.637 187.222 408.329 187.296 408.017 187.307C407.704 187.318 407.392 187.266 407.1 187.154C406.808 187.042 406.542 186.873 406.317 186.655C406.091 186.438 405.912 186.178 405.79 185.89L406.5 182.21Z" fill="#DD6A57"/>
<path d="M256.49 272.72H377.99V187.64H256.49V272.72Z" fill="#263238"/>
<path d="M280.75 221.89C286.311 221.89 290.82 217.382 290.82 211.82C290.82 206.259 286.311 201.75 280.75 201.75C275.188 201.75 270.68 206.259 270.68 211.82C270.68 217.382 275.188 221.89 280.75 221.89Z" fill="#FFC727"/>
<path d="M310.43 254.21H378L344.21 208.41L310.43 254.21Z" fill="#C7C7C7"/>
<path d="M283.95 254.42H339.73L311.84 224.61L283.95 254.42Z" fill="white"/>
<path d="M377.98 254.38H256.48V272.71H377.98V254.38Z" fill="#FFC727"/>
<path d="M420.41 205C423.56 213.81 419.06 246.13 413.73 252.94C405.82 263.08 390.19 272.41 384.21 275.32C381.61 276.59 369.9 257.88 372.45 256.13C377.92 252.37 395.39 243.41 396.87 241.63C398.35 239.85 406.31 222.75 409.5 213.12C413.78 200.2 418.82 200.53 420.41 205Z" fill="#DD6A57"/>
<path d="M384.2 275.37C375.91 280.1 359.42 279.37 357.2 278.71C355.29 278.14 354.3 277.82 354.3 277.82C350.84 276.82 349.91 274.93 349.91 274.93C349.91 274.93 345.58 274.99 345.11 272.37C344.58 269.45 350.76 269.94 354.33 268.13C362.51 263.99 372.98 255.81 375.22 254.38L384.2 275.37Z" fill="#DD6A57"/>
<path d="M365.93 269.81C363.551 271.056 361.088 272.135 358.56 273.04C355.735 273.853 352.854 274.458 349.94 274.85C349.921 274.85 349.904 274.857 349.891 274.871C349.877 274.884 349.87 274.902 349.87 274.92C349.87 274.939 349.877 274.956 349.891 274.97C349.904 274.983 349.921 274.99 349.94 274.99C355.648 274.823 361.202 273.098 366 270C366.012 269.984 366.02 269.965 366.023 269.945C366.026 269.925 366.024 269.905 366.017 269.886C366.01 269.867 365.999 269.85 365.983 269.837C365.968 269.824 365.95 269.814 365.93 269.81Z" fill="#263238"/>
<path d="M369.14 274.39C364.42 276.374 359.385 277.504 354.27 277.73C359.464 278.092 364.657 277.005 369.27 274.59C369.38 274.56 369.31 274.32 369.14 274.39Z" fill="#263238"/>
<path d="M363.84 262.52C364.69 261.52 364.2 261.1 361.95 261.52C359.7 261.94 351.16 265.45 350.18 262.37C349.2 259.29 361.33 254.49 365.12 254.09C368.546 253.914 371.98 254.014 375.39 254.39C373.22 255.79 368.07 259.7 363.84 262.52Z" fill="#DD6A57"/>
<path d="M411.6 207.2C417.13 195.58 422.17 198.66 422.6 210.2C422.768 218.188 422.414 226.178 421.54 234.12L401.54 228.38L411.6 207.2Z" fill="#EBEBEB"/>
<path d="M407.83 212.05C408.006 212.674 408.09 213.321 408.08 213.97C408.091 214.616 408.007 215.259 407.83 215.88C407.658 215.258 407.574 214.615 407.58 213.97C407.574 213.322 407.658 212.675 407.83 212.05Z" fill="white"/>
<path d="M419.86 216.45C419.236 216.626 418.589 216.711 417.94 216.7C417.295 216.711 416.651 216.626 416.03 216.45C416.652 216.279 417.295 216.195 417.94 216.2C418.589 216.194 419.235 216.278 419.86 216.45Z" fill="white"/>
<path d="M416.59 200.43C417.712 201.085 418.645 202.018 419.3 203.14C418.733 202.827 418.217 202.429 417.77 201.96C417.303 201.511 416.906 200.995 416.59 200.43Z" fill="white"/>
<path d="M404.63 224.08C405.752 224.735 406.685 225.668 407.34 226.79C406.773 226.477 406.257 226.079 405.81 225.61C405.344 225.161 404.946 224.645 404.63 224.08Z" fill="white"/>
<path d="M418.5 228.14C419.155 227.018 420.088 226.085 421.21 225.43C420.57 226.563 419.633 227.5 418.5 228.14Z" fill="white"/>
<path d="M409.69 210.75C408.94 212.27 408.15 213.75 407.36 215.28C407.5 214.56 407.61 213.85 407.69 213.12H407.64C407.52 213.69 407.39 214.25 407.28 214.82L407.13 215.64C407.125 215.7 407.125 215.76 407.13 215.82C406.52 216.99 405.91 218.17 405.34 219.36C404.65 220.78 404 222.21 403.34 223.65C402.68 225.09 402.07 226.84 401.34 228.29C401.969 228.547 402.623 228.741 403.29 228.87C403.47 228.94 403.56 228.76 403.37 228.74C403.18 228.72 401.7 228.11 401.68 228.1C402.33 226.65 403.15 225.28 403.85 223.86C404.55 222.44 405.25 221.03 405.91 219.59C407.27 216.68 408.46 213.7 409.8 210.78C409.76 210.73 409.7 210.71 409.69 210.75Z" fill="#263238"/>
<path d="M423.49 217.67C423.3 218.27 423.09 218.86 422.94 219.47L422.76 220.22C422.83 218.14 422.9 216.07 422.96 213.99C422.68 217.38 422.38 220.77 422.16 224.17C421.845 227.424 421.695 230.691 421.71 233.96C421.109 233.814 420.497 233.717 419.88 233.67C420.537 233.959 421.23 234.157 421.94 234.26C422.352 230.868 422.589 227.457 422.65 224.04C422.65 223.1 422.72 222.17 422.76 221.24C422.87 220.66 423.03 220.09 423.19 219.52C423.35 218.95 423.46 218.3 423.59 217.69C423.56 217.65 423.5 217.64 423.49 217.67Z" fill="#263238"/>
<path d="M420.76 231C417.94 230 406.25 226.31 403.67 225.68C403.49 225.63 403.42 225.68 403.6 225.8C409.206 227.88 414.921 229.652 420.72 231.11C420.733 231.112 420.747 231.109 420.759 231.102C420.77 231.095 420.779 231.084 420.784 231.071C420.789 231.058 420.789 231.044 420.784 231.031C420.78 231.018 420.771 231.007 420.76 231Z" fill="#263238"/>
<path d="M317.09 201.91C319.85 202.75 319.27 199.01 319.27 199.01C319.27 199.01 321.41 204.19 324.6 204.01C327.79 203.83 326.8 199.28 326.75 198.96C326.86 199.23 328.96 203.96 332.14 203.38C335.32 202.8 333.8 198.38 333.69 198.15C333.88 198.37 336.45 201.29 338.76 200.31C342.76 198.63 336.39 190.99 336.85 187.52L342.45 187.69C342.63 187.69 342.82 187.69 343 187.6L343.21 184.74C341.42 184.012 339.691 183.143 338.04 182.14C335.93 180.96 333.89 179.88 332.38 179.85C331.699 179.813 331.024 179.997 330.455 180.373C329.886 180.749 329.453 181.299 329.22 181.94C329.22 181.94 327.58 179.34 325.06 179.71C323.77 179.9 322.93 182.14 322.93 182.14C322.529 181.571 321.979 181.125 321.34 180.849C320.701 180.574 319.999 180.481 319.31 180.58C317.54 180.94 316.96 183.13 316.96 183.13C316.96 183.13 314.72 181.81 313.03 182.77C309.62 184.65 311.17 200.09 317.09 201.91Z" fill="#DD6A57"/>
<path d="M337.57 187.19L342.45 187.64C342.63 187.64 342.82 187.64 343 187.55C349.16 186.43 353 179.39 348.53 178.88C345.13 178.49 341.47 182.99 338.04 182.09L337.57 187.19Z" fill="#DD6A57"/>
<path d="M322.89 182C322.89 181.94 322.79 181.94 322.78 182C321.979 187.966 323.342 194.022 326.62 199.07C326.74 199.24 327.02 199.28 326.9 199.07C324.83 195.56 323 187 322.89 182Z" fill="#263238"/>
<path d="M334.05 198.37C330.9 193.37 329.65 187.92 329.18 182.11C329.18 182.03 329.07 182.05 329.05 182.11C328.51 185.02 329.2 188.69 329.97 191.5C330.642 194.134 331.99 196.547 333.88 198.5C334 198.55 334.12 198.47 334.05 198.37Z" fill="#263238"/>
</svg>
